<svg xmlns="http://www.w3.org/2000/svg" width="87.5" height="87.5" viewBox="0 0 87.5 87.5"><defs><style>.a{fill:#707070;}.b{fill:#e2e2e2;}</style></defs><g transform="translate(-283 -227)"><circle class="a" cx="38.5" cy="38.5" r="38.5" transform="translate(287 237)"/><path class="b" d="M50,6.25A43.75,43.75,0,1,0,93.75,50,43.8,43.8,0,0,0,50,6.25Zm0,15.625A15.625,15.625,0,1,1,34.375,37.5,15.671,15.671,0,0,1,50,21.875Zm-12.5,37.5h25A15.654,15.654,0,0,1,78.113,74.793a37.452,37.452,0,0,1-56.226,0A15.654,15.654,0,0,1,37.5,59.375Z" transform="translate(276.75 220.75)"/></g></svg>