<svg xmlns="http://www.w3.org/2000/svg" width="16.744" height="17.505" viewBox="0 0 16.744 17.505"><defs><style>.a{fill:#414041;}</style></defs><path class="a" d="M17.981,4a.571.571,0,0,1,.571.571V6.765a1.712,1.712,0,1,1-1.142,0V4.571A.571.571,0,0,1,17.981,4Zm-7.23,0a.571.571,0,0,1,.571.571V6.765a1.712,1.712,0,1,1-1.142,0V4.571A.571.571,0,0,1,10.751,4Zm9.894,1.142a2.107,2.107,0,0,1,2.1,2.1V19.406a2.107,2.107,0,0,1-2.1,2.1H8.1a2.107,2.107,0,0,1-2.1-2.1V7.241a2.107,2.107,0,0,1,2.1-2.1H9.235a.571.571,0,1,1,0,1.142H8.1a.945.945,0,0,0-.957.957v3.229H21.6V7.241a.945.945,0,0,0-.957-.957H19.51a.571.571,0,1,1,0-1.142Zm-4.18,0a.571.571,0,1,1,0,1.142H12.279a.571.571,0,1,1,0-1.142Zm1.516,2.664a.571.571,0,1,0,.571.571A.563.563,0,0,0,17.981,7.806Zm-7.23,0a.571.571,0,1,0,.571.571A.563.563,0,0,0,10.751,7.806ZM21.6,11.611H7.142v7.8a.945.945,0,0,0,.957.957H20.645a.945.945,0,0,0,.957-.957Z" transform="translate(-6 -4)"/></svg>