<svg xmlns="http://www.w3.org/2000/svg" viewBox="0 0 97.4 97.4"><defs><style>.cls-1{fill:#2b385a;}</style></defs><g id="Layer_2" data-name="Layer 2"><g id="Layer_1-2" data-name="Layer 1"><path class="cls-1" d="M45.7,31.2A14.61,14.61,0,1,0,60.31,45.81,14.63,14.63,0,0,0,45.7,31.2Z"/><path class="cls-1" d="M48.7,0A48.7,48.7,0,1,0,97.4,48.7,48.7,48.7,0,0,0,48.7,0ZM72.4,73.7a4.25,4.25,0,0,1-3,1.1,4.38,4.38,0,0,1-3-1.1l-9.2-9.2-.9.5A21.85,21.85,0,1,1,67.6,45.91a21.42,21.42,0,0,1-3.6,12l-.6,1L72.5,68a4.45,4.45,0,0,1,1.2,2.9,4.55,4.55,0,0,1-1.3,2.79Z"/></g></g></svg>