<svg xmlns="http://www.w3.org/2000/svg" viewBox="0 0 47.76 48.43"><defs><style>.cls-1{fill:#01798c;}</style></defs><g id="Layer_2" data-name="Layer 2"><g id="Layer_1-2" data-name="Layer 1"><path class="cls-1" d="M47.68,22a24.72,24.72,0,0,0-2-8A24.06,24.06,0,0,0,41,7.12a23.15,23.15,0,0,0-14.15-7,21.44,21.44,0,0,0-14.59,3.7,23.28,23.28,0,0,1,14.06-.73,20.86,20.86,0,0,1,11.07,7.25,20.27,20.27,0,0,1,2.75,20.78A4.6,4.6,0,1,0,35,37.34a4.62,4.62,0,0,0,.73.07A23.12,23.12,0,0,1,34,38.92a19.51,19.51,0,0,1-5.61,3,20.5,20.5,0,0,1-12.75,0A21.15,21.15,0,0,1,4.94,34.09,23.29,23.29,0,0,1,.66,20.66a21.53,21.53,0,0,0,1.68,15A23.23,23.23,0,0,0,7.1,42a23.74,23.74,0,0,0,23,5.48,24.66,24.66,0,0,0,13.35-9.63,26,26,0,0,0,3.53-7.6A24.31,24.31,0,0,0,47.68,22"/><path class="cls-1" d="M6.25,28.68a15.51,15.51,0,0,0,11.37,9.6,13.54,13.54,0,0,0,9.31-1.54,15.42,15.42,0,0,1-8.52-1.09,13.6,13.6,0,0,1-6-5.12,12.74,12.74,0,0,1-1.28-11.1A4.46,4.46,0,1,0,15.1,14a12.62,12.62,0,0,1,10.7-2.39,13.75,13.75,0,0,1,6.8,3.92,15.39,15.39,0,0,1,3.87,7.68,13.55,13.55,0,0,0-1.65-9.31,15.33,15.33,0,0,0-7.68-6.5A15.9,15.9,0,0,0,16.72,7a16.36,16.36,0,0,0-8.59,6.23,17.21,17.21,0,0,0-2.35,4.86,17.26,17.26,0,0,0-.64,5.34,15.72,15.72,0,0,0,1.11,5.21"/></g></g></svg>