<svg xmlns="http://www.w3.org/2000/svg" viewBox="0 0 119.63 33.55"><defs><style>.cls-1{fill:#2b385a;}</style></defs><g id="Layer_2" data-name="Layer 2"><g id="Layer_1-2" data-name="Layer 1"><path class="cls-1" d="M19,25a.07.07,0,0,0-.07,0l-.14,0h0s-.05,0,0,.06l.68,4.08L20.77,33s0,0,.06,0L21,33A.06.06,0,0,0,21,33l-.69-4.12Z"/><path class="cls-1" d="M14.51,8.6a.06.06,0,0,0,.06,0l.14,0a0,0,0,0,0,0-.06l-.69-4.12L12.71.52a.06.06,0,0,0-.07,0l-.14,0h0s0,0,0,.06l.68,4.08Z"/><path class="cls-1" d="M17.67,25.2a.06.06,0,0,0-.06-.05l-.15,0h0a0,0,0,0,0-.05,0l0,4.14.74,4.11a0,0,0,0,0,.06,0h.14a.06.06,0,0,0,.05-.06l0-4.18Z"/><path class="cls-1" d="M15.81,8.35a.06.06,0,0,0,.06.05l.14,0a0,0,0,0,0,0-.05l0-4.18L15.3.08a0,0,0,0,0-.06,0h-.15A.06.06,0,0,0,15,.11l0,4.14Z"/><path class="cls-1" d="M16.29,25.19h-.15s-.05,0-.06.05l-.61,4.09.09,4.17a0,0,0,0,0,0,0h.14a.06.06,0,0,0,.06,0l.62-4.13-.09-4.13a0,0,0,0,0-.05,0"/><path class="cls-1" d="M17.19,8.37h.14a.06.06,0,0,0,.06-.05L18,4.19,17.92.07s0-.06-.05-.06h-.15a.06.06,0,0,0-.06.05l-.61,4.09.09,4.17a.06.06,0,0,0,.05.06"/><path class="cls-1" d="M14.84,25h0a.06.06,0,0,0-.07,0L13.53,29,13,33.1a.06.06,0,0,0,0,.06l.13,0a.06.06,0,0,0,.07,0l1.25-4,.57-4.1A.06.06,0,0,0,15,25l-.14,0"/><path class="cls-1" d="M18.63,8.57a.06.06,0,0,0,.07,0l1.25-4L20.52.46a.08.08,0,0,0-.05-.07l-.14,0h0a.06.06,0,0,0-.07,0L19,4.34l-.57,4.14a.06.06,0,0,0,.05.06Z"/><path class="cls-1" d="M13.72,24.63l-.14-.05h0a.05.05,0,0,0-.07,0l-1.84,3.7-1.21,4a.06.06,0,0,0,0,.07l.14.05a.07.07,0,0,0,.07,0l1.86-3.74,1.19-4a.06.06,0,0,0,0-.07"/><path class="cls-1" d="M19.76,8.92l.13.05a.05.05,0,0,0,.07,0L21.82,5.2,23,1.25a.06.06,0,0,0,0-.07l-.13-.05h0a.08.08,0,0,0-.08,0l-1.84,3.7-1.2,4a.05.05,0,0,0,0,.07"/><path class="cls-1" d="M12.55,24.14a.08.08,0,0,0,0-.08L12.4,24h0a0,0,0,0,0-.07,0l-2.4,3.36L8.12,31.13a0,0,0,0,0,0,.07l.12.07a0,0,0,0,0,.07,0l2.42-3.41Z"/><path class="cls-1" d="M20.93,9.41a.05.05,0,0,0,0,.08l.12.07a.05.05,0,0,0,.08,0l2.42-3.4,1.79-3.71a.05.05,0,0,0,0-.08l-.12-.07h0a0,0,0,0,0-.07,0l-2.4,3.37Z"/><path class="cls-1" d="M11.45,23.39a.05.05,0,0,0,0-.08.87.87,0,0,1-.11-.09h0a.06.06,0,0,0-.08,0l-2.89,3L6,29.6a0,0,0,0,0,0,.07l.11.09a.06.06,0,0,0,.08,0l2.92-3Z"/><path class="cls-1" d="M22,10.16a.08.08,0,0,0,0,.08l.11.09a.05.05,0,0,0,.08,0l2.92-3L27.5,4a.06.06,0,0,0,0-.08l-.11-.09h0a.06.06,0,0,0-.07,0l-2.9,3Z"/><path class="cls-1" d="M10.49,22.48a.06.06,0,0,0,0-.08.94.94,0,0,1-.1-.1h0a.06.06,0,0,0-.08,0L7,24.75l-2.88,3a.06.06,0,0,0,0,.08l.09.11a.08.08,0,0,0,.08,0l3.35-2.49Z"/><path class="cls-1" d="M23,11.07a.06.06,0,0,0,0,.08l.09.1a.05.05,0,0,0,.08,0l3.35-2.48,2.85-3a.05.05,0,0,0,0-.08.52.52,0,0,1-.1-.11h0a.08.08,0,0,0-.08,0L25.87,8.06Z"/><path class="cls-1" d="M9.67,21.43a.05.05,0,0,0,0-.08l-.07-.12h0a.08.08,0,0,0-.08,0L5.87,23.12,2.55,25.64a.06.06,0,0,0,0,.07l.07.12a.07.07,0,0,0,.08,0l3.7-1.94Z"/><path class="cls-1" d="M23.8,12.12a.06.06,0,0,0,0,.08l.08.12a.06.06,0,0,0,.07,0l3.7-1.93,3.28-2.5a0,0,0,0,0,0-.07l-.07-.12h0a.08.08,0,0,0-.08,0L27.12,9.6Z"/><path class="cls-1" d="M9,20.26a.05.05,0,0,0,0-.07L9,20.06H9a.05.05,0,0,0-.07,0L5,21.34l-3.66,2a.05.05,0,0,0,0,.07l.05.13a.08.08,0,0,0,.08,0l4-1.33Z"/><path class="cls-1" d="M8.58,19s.05,0,0-.07l0-.13h0s0,0-.06,0l-4.07.68L.52,20.81a.06.06,0,0,0,0,.07l0,.14a.08.08,0,0,0,.07,0l4.11-.69Z"/><path class="cls-1" d="M8.33,17.71a.07.07,0,0,0,.05-.07.61.61,0,0,1,0-.14h0a.06.06,0,0,0-.06-.05l-4.13,0-4.1.74s0,0,0,.06v.14a.06.06,0,0,0,.06,0l4.17,0Z"/><path class="cls-1" d="M4.17,16.46l4.12-.08a.06.06,0,0,0,.06-.06.71.71,0,0,1,0-.14h0a.06.06,0,0,0,0-.06l-4.08-.61-4.17.08a.05.05,0,0,0,0,.05v.14a.06.06,0,0,0,.05.06Z"/><path class="cls-1" d="M4.38,14.5l4.08.56A.06.06,0,0,0,8.52,15l0-.14h0a0,0,0,0,0,0-.06L4.58,13.56.45,13a.07.07,0,0,0-.06,0l0,.14a.06.06,0,0,0,0,.07Z"/><path class="cls-1" d="M4.89,12.58l3.94,1.2a.05.05,0,0,0,.07,0,.78.78,0,0,1,0-.14H9a.05.05,0,0,0,0-.07L5.23,11.69l-4-1.21a.07.07,0,0,0-.07,0l-.06.13a.05.05,0,0,0,0,.07Z"/><path class="cls-1" d="M5.68,10.78l3.71,1.8a.08.08,0,0,0,.08,0,.54.54,0,0,1,.07-.13h0a.05.05,0,0,0,0-.08L6.16,10,2.42,8.13a.05.05,0,0,0-.07,0l-.08.12a.05.05,0,0,0,0,.07Z"/><path class="cls-1" d="M27.83,22.79,24.08,21A.05.05,0,0,0,24,21l-.07.12a0,0,0,0,0,0,.07l3.4,2.43,3.7,1.8a.07.07,0,0,0,.08,0l.07-.13h0a0,0,0,0,0,0-.07Z"/><path class="cls-1" d="M6.76,9.12l3.38,2.36a0,0,0,0,0,.07,0,.52.52,0,0,1,.1-.11h0a0,0,0,0,0,0-.07L7.36,8.38,3.94,6a.06.06,0,0,0-.07,0l-.09.11a.06.06,0,0,0,0,.08Z"/><path class="cls-1" d="M26.75,24.46l-3.41-2.38a.05.05,0,0,0-.08,0l-.09.1a.05.05,0,0,0,0,.08l3,2.93,3.38,2.36a.06.06,0,0,0,.08,0l.09-.11h0a.06.06,0,0,0,0-.08Z"/><path class="cls-1" d="M11.05,10.51a0,0,0,0,0,.07,0l.11-.1h0a0,0,0,0,0,0-.07L8.79,7l-3-2.89a0,0,0,0,0-.07,0l-.11.09a.08.08,0,0,0,0,.08L8.08,7.65Z"/><path class="cls-1" d="M22.43,23a.06.06,0,0,0-.08,0l-.1.09a.05.05,0,0,0,0,.08l2.48,3.36,3,2.86a.06.06,0,0,0,.08,0l.1-.09h0a.06.06,0,0,0,0-.08l-2.45-3.33Z"/><path class="cls-1" d="M9.61,6.4l2.48,3.29a.07.07,0,0,0,.08,0l.12-.08h0a.05.05,0,0,0,0-.08l-1.9-3.67L7.89,2.56a0,0,0,0,0-.07,0l-.12.07a.08.08,0,0,0,0,.08Z"/><path class="cls-1" d="M21.38,23.86a.05.05,0,0,0-.08,0l-.11.07s0,0,0,.07l1.92,3.71L25.58,31a.06.06,0,0,0,.08,0l.12-.08h0a.08.08,0,0,0,0-.08l-1.91-3.67Z"/><path class="cls-1" d="M13.26,9.05a.05.05,0,0,0,.07,0L13.46,9h0a.05.05,0,0,0,0-.07L12.19,5l-2-3.67a.05.05,0,0,0-.07,0L10,1.38a.05.05,0,0,0,0,.07l1.32,4Z"/><path class="cls-1" d="M20.22,24.5a.06.06,0,0,0-.07,0l-.13.06a.06.06,0,0,0,0,.07l1.33,4,1.94,3.64a.06.06,0,0,0,.07,0l.14-.06h0a.05.05,0,0,0,0-.07l-1.31-3.92Z"/><path class="cls-1" d="M22.69,16.22a6.08,6.08,0,0,0-.5-2,5.68,5.68,0,0,0-1.13-1.66,5.61,5.61,0,0,0-3.46-1.71,5.2,5.2,0,0,0-3.57.9,5.73,5.73,0,0,1,3.44-.18,5.11,5.11,0,0,1,2.71,1.78,5,5,0,0,1,.67,5.09A1.13,1.13,0,1,0,19.58,20l.18,0-.43.37a5,5,0,0,1-1.37.73,5.15,5.15,0,0,1-3.13,0,5.27,5.27,0,0,1-2.61-1.92,5.74,5.74,0,0,1-1-3.29,5.24,5.24,0,0,0,.41,3.67,5.66,5.66,0,0,0,1.16,1.56,5.83,5.83,0,0,0,1.66,1.09,6,6,0,0,0,4,.25,6.08,6.08,0,0,0,3.27-2.36,6.42,6.42,0,0,0,.86-1.86,5.85,5.85,0,0,0,.18-2"/><path class="cls-1" d="M12.54,17.87a3.87,3.87,0,0,0,2.79,2.35,3.3,3.3,0,0,0,2.28-.38,3.74,3.74,0,0,1-2.09-.26,3.39,3.39,0,0,1-1.46-1.26,3.11,3.11,0,0,1-.31-2.71,1.08,1.08,0,0,0,2.1-.06A1.08,1.08,0,0,0,15,14.28a1,1,0,0,0-.3,0,3.12,3.12,0,0,1,2.62-.59,3.46,3.46,0,0,1,1.67,1A3.9,3.9,0,0,1,20,16.53a3.31,3.31,0,0,0-.41-2.28,3.75,3.75,0,0,0-1.88-1.6,3.91,3.91,0,0,0-2.55-.08,4.07,4.07,0,0,0-2.68,2.72,4.07,4.07,0,0,0-.16,1.3,4.24,4.24,0,0,0,.27,1.28"/><path class="cls-1" d="M42.24,13.15l-.18.29A3.46,3.46,0,0,1,39,14.91c-2.73,0-4.1-2.06-4.1-4.62S36.29,5.6,39.07,5.6a3.35,3.35,0,0,1,3.12,1.59l-1.12.58A2.16,2.16,0,0,0,39,6.7c-1.92,0-2.7,1.75-2.7,3.55s.74,3.55,2.76,3.55a2.15,2.15,0,0,0,2.06-1.19Z"/><path class="cls-1" d="M49,11.46C49,13.39,47.93,15,45.89,15s-3.09-1.47-3.09-3.47S44,8,46,8C47.83,8,49,9.37,49,11.46m-4.93,0c0,1.42.69,2.43,1.83,2.43s1.79-1,1.79-2.42-.64-2.43-1.82-2.43-1.8.93-1.8,2.42"/><path class="cls-1" d="M50.08,9.86c0-.57,0-1.17,0-1.71H51.3c0,.19.05.66.05,1A2,2,0,0,1,53.26,8a1.8,1.8,0,0,1,1.81,1.16A2.26,2.26,0,0,1,57.17,8c1.09,0,2.09.65,2.09,2.44v4.36H58V10.58c0-.74-.27-1.5-1.25-1.5s-1.45.75-1.45,1.9v3.81H54.05V10.63c0-.83-.23-1.55-1.22-1.55s-1.48.79-1.48,2v3.68H50.08Z"/><path class="cls-1" d="M60.36,9.86c0-.57,0-1.17,0-1.71h1.23c0,.19.05.66.05,1A2,2,0,0,1,63.54,8a1.8,1.8,0,0,1,1.81,1.16A2.26,2.26,0,0,1,67.45,8c1.09,0,2.09.65,2.09,2.44v4.36H68.29V10.58c0-.74-.27-1.5-1.25-1.5s-1.46.75-1.46,1.9v3.81H64.33V10.63c0-.83-.23-1.55-1.22-1.55s-1.48.79-1.48,2v3.68H60.36Z"/><path class="cls-1" d="M76.77,11.45c0,1.93-1.12,3.49-3.16,3.49s-3.09-1.47-3.09-3.46S71.67,8,73.69,8c1.86,0,3.08,1.38,3.08,3.46m-4.94,0c0,1.42.7,2.42,1.83,2.42s1.8-1,1.8-2.42S74.81,9,73.63,9s-1.8.93-1.8,2.43"/><path class="cls-1" d="M77.77,9.82c0-.58,0-1.17,0-1.68H79c0,.19,0,.85,0,1a2.07,2.07,0,0,1,2-1.2c1.26,0,2.22.78,2.22,2.53v4.26H82v-4.1c0-.95-.37-1.6-1.34-1.6-1.16,0-1.65.85-1.65,2.15v3.56H77.77Z"/><path class="cls-1" d="M85.29,8.14c.79,3,1.23,4.76,1.34,5.47h0c.12-.64.54-2.18,1.45-5.47h1.24c1,3.66,1.27,4.73,1.38,5.35h0c.16-.7.41-1.7,1.4-5.35h1.28l-2,6.64H90c-.63-2.44-1.2-4.5-1.35-5.25h0c-.12.74-.66,2.66-1.38,5.25H85.86L83.94,8.14Z"/><path class="cls-1" d="M94.91,11.7c0,1.25.63,2.19,1.72,2.19a1.44,1.44,0,0,0,1.51-1h1.29a2.74,2.74,0,0,1-2.84,2c-2.11,0-3-1.69-3-3.4,0-2,1-3.56,3-3.56s2.88,1.71,2.88,3.17a4.79,4.79,0,0,1,0,.55Zm3.34-.87c0-1-.52-1.86-1.61-1.86s-1.59.77-1.69,1.86Z"/><path class="cls-1" d="M105.84,13.28a11.08,11.08,0,0,0,.09,1.5h-1.22a3,3,0,0,1-.11-.83,2,2,0,0,1-2,1,2,2,0,0,1-2.24-2c0-1.49,1.17-2.17,3.14-2.17h1.09v-.53c0-.56-.18-1.23-1.35-1.23s-1.22.51-1.34,1h-1.23c.09-1,.69-2,2.61-2,1.66,0,2.57.67,2.57,2.2Zm-1.25-1.7h-1c-1.28,0-1.93.36-1.93,1.24A1.11,1.11,0,0,0,102.88,14c1.51,0,1.71-1,1.71-2.17Z"/><rect class="cls-1" x="106.98" y="5.21" width="1.28" height="9.57"/><path class="cls-1" d="M109.24,8.13h1.12V6.21h1.28V8.13h1.43v1h-1.43v3.77c0,.62.15.92.74.92a2.68,2.68,0,0,0,.55,0v.94a3.26,3.26,0,0,1-1,.13c-1.08,0-1.53-.57-1.53-1.68v-4h-1.12Z"/><path class="cls-1" d="M115.36,5.21V9.08a2.19,2.19,0,0,1,2-1.1c1.1,0,2.23.61,2.23,2.55v4.25h-1.28v-4c0-1.08-.44-1.67-1.37-1.67-1.16,0-1.62.78-1.62,2.1v3.61h-1.28V5.21Z"/><polygon class="cls-1" points="35.41 19.12 41.31 19.12 41.31 20.26 36.73 20.26 36.73 23.06 39.77 23.07 39.77 24.21 36.73 24.2 36.73 28.18 35.41 28.18 35.41 19.12"/><path class="cls-1" d="M88.7,23.21c0-.58,0-1.17,0-1.68h1.24c0,.2,0,.85,0,1A2.08,2.08,0,0,1,92,21.38c1.26,0,2.21.79,2.21,2.53v4.27H93V24.07c0-.95-.36-1.6-1.34-1.6-1.15,0-1.65.85-1.65,2.15v3.56H88.71Z"/><path class="cls-1" d="M87.73,24.84c0,1.93-1.12,3.49-3.16,3.49s-3.09-1.47-3.09-3.46,1.15-3.49,3.17-3.49c1.86,0,3.08,1.38,3.08,3.46m-4.93,0c0,1.42.69,2.42,1.82,2.42s1.8-1,1.8-2.42-.65-2.43-1.83-2.43-1.79.93-1.79,2.43"/><path class="cls-1" d="M79.21,21.54h1.28v6.64H79.21Zm0-2.93h1.28v1.47H79.21Z"/><path class="cls-1" d="M74.18,21.54H75.3V19.61h1.28v1.93H78v1H76.58v3.77c0,.62.16.92.74.92a2.64,2.64,0,0,0,.55,0v.94a3.26,3.26,0,0,1-1,.12c-1.08,0-1.53-.56-1.53-1.68v-4H74.18Z"/><path class="cls-1" d="M73.53,26.68a11,11,0,0,0,.09,1.5H72.4a3.41,3.41,0,0,1-.1-.83,2.06,2.06,0,0,1-2,1,2,2,0,0,1-2.23-2c0-1.49,1.17-2.17,3.13-2.17h1.1v-.54c0-.56-.19-1.23-1.35-1.23s-1.23.51-1.34,1H68.36c.09-1,.68-2,2.61-2,1.65,0,2.56.68,2.56,2.2ZM72.28,25h-1c-1.28,0-1.93.37-1.93,1.24a1.12,1.12,0,0,0,1.23,1.14c1.51,0,1.71-1,1.71-2.17Z"/><path class="cls-1" d="M67.12,18.61v7.71c0,.62,0,1.23,0,1.86H65.91a7.8,7.8,0,0,1-.06-.89,2.06,2.06,0,0,1-2,1.05c-1.7,0-2.75-1.38-2.75-3.41s1.13-3.55,3-3.55c1.13,0,1.65.45,1.83.81V18.61Zm-4.74,6.28c0,1.55.71,2.38,1.72,2.38,1.49,0,1.8-1.13,1.8-2.49s-.28-2.33-1.72-2.33c-1.13,0-1.81.9-1.8,2.44"/><path class="cls-1" d="M54.53,23.22c0-.58,0-1.17,0-1.68h1.24a9.11,9.11,0,0,1,.06,1.05,2.06,2.06,0,0,1,2-1.21c1.26,0,2.21.79,2.21,2.54v4.26H58.79v-4.1c0-1-.36-1.6-1.33-1.6-1.16,0-1.65.85-1.65,2.15v3.56H54.53Z"/><path class="cls-1" d="M53.4,26.25c0,.65,0,1.5,0,1.94H52.16c0-.18,0-.57,0-1a2,2,0,0,1-2,1.1c-1.16,0-2.2-.6-2.2-2.43V21.54h1.27v4.1c0,.84.27,1.61,1.31,1.61s1.59-.64,1.59-2.23V21.54H53.4Z"/><path class="cls-1" d="M47.08,24.85c0,1.94-1.12,3.49-3.16,3.5s-3.08-1.48-3.08-3.47S42,21.39,44,21.39c1.86,0,3.08,1.38,3.08,3.46m-4.93,0c0,1.42.69,2.42,1.82,2.42s1.8-1,1.8-2.42-.65-2.43-1.83-2.43-1.79.93-1.79,2.43"/></g></g></svg>