<svg xmlns="http://www.w3.org/2000/svg" width="10.813" height="20" viewBox="0 0 10.813 20"><defs><style>.a{fill:#414041;}</style></defs><path class="a" d="M33.374,0,30.781,0a4.555,4.555,0,0,0-4.8,4.922v2.27H23.377a.408.408,0,0,0-.408.408v3.288a.408.408,0,0,0,.408.408h2.608v8.3a.408.408,0,0,0,.408.408h3.4a.408.408,0,0,0,.408-.408V11.3h3.049a.408.408,0,0,0,.408-.408l0-3.288a.408.408,0,0,0-.408-.408H30.2V5.268c0-.925.22-1.394,1.425-1.394h1.747a.408.408,0,0,0,.408-.408V.412A.408.408,0,0,0,33.374,0Z" transform="translate(-22.969)"/></svg>