<svg xmlns="http://www.w3.org/2000/svg" viewBox="0 0 127.45 137.01"><defs><style>.cls-1{fill:#2b385a;}</style></defs><g id="Layer_2" data-name="Layer 2"><g id="Layer_1-2" data-name="Layer 1"><path class="cls-1" d="M77.47,101.88a.23.23,0,0,0-.28-.15c-.19.06-.39.11-.57.15h0a.23.23,0,0,0-.17.26l2.78,16.66,5.58,16.09a.21.21,0,0,0,.27.15l.56-.14a.23.23,0,0,0,.17-.26L83,117.81Z"/><path class="cls-1" d="M59.24,35.13a.23.23,0,0,0,.27.14l.56-.14a.22.22,0,0,0,.17-.26L57.43,18,51.91,2.11A.23.23,0,0,0,51.63,2l-.57.15h0a.23.23,0,0,0-.17.26L53.66,19Z"/><path class="cls-1" d="M72.15,102.9a.22.22,0,0,0-.26-.19,5.7,5.7,0,0,1-.58.06h0a.24.24,0,0,0-.21.24l.14,16.89,3,16.77a.22.22,0,0,0,.24.19l.57,0a.26.26,0,0,0,.22-.24l-.16-17.06Z"/><path class="cls-1" d="M64.56,34.11a.23.23,0,0,0,.25.19l.57-.06a.23.23,0,0,0,.21-.23l-.15-17.07L62.47.35a.22.22,0,0,0-.25-.19,5.63,5.63,0,0,1-.59,0,.24.24,0,0,0-.21.23l.14,16.9Z"/><path class="cls-1" d="M66.51,102.84a5.85,5.85,0,0,1-.59,0h0a.24.24,0,0,0-.25.2l-2.5,16.71.35,17a.24.24,0,0,0,.22.23l.57,0a.25.25,0,0,0,.25-.2l2.51-16.88-.34-16.86a.23.23,0,0,0-.22-.23"/><path class="cls-1" d="M70.19,34.16l.57,0A.23.23,0,0,0,71,34l2.51-16.88L73.18.27A.22.22,0,0,0,73,0a5.65,5.65,0,0,1-.58,0h0a.23.23,0,0,0-.24.2l-2.5,16.7.35,17a.22.22,0,0,0,.21.22"/><path class="cls-1" d="M60.6,102h0a.25.25,0,0,0-.28.16l-5.06,16.11-2.31,16.87a.22.22,0,0,0,.17.26l.56.13a.23.23,0,0,0,.27-.16l5.12-16.28,2.3-16.7a.24.24,0,0,0-.19-.26,5.25,5.25,0,0,1-.57-.13"/><path class="cls-1" d="M76.09,35a.22.22,0,0,0,.27-.16l5.12-16.27,2.29-16.7a.21.21,0,0,0-.18-.26L83,1.48h0a.24.24,0,0,0-.27.16L77.67,17.74,75.35,34.62a.24.24,0,0,0,.18.26Z"/><path class="cls-1" d="M56,100.59a5,5,0,0,1-.54-.21h0a.25.25,0,0,0-.3.12L47.64,115.6l-4.92,16.31a.21.21,0,0,0,.13.27l.54.22a.23.23,0,0,0,.29-.11L51.28,117l4.87-16.13a.23.23,0,0,0-.14-.29"/><path class="cls-1" d="M80.69,36.41l.53.21a.22.22,0,0,0,.29-.1l7.6-15.28L94,5.11a.24.24,0,0,0-.14-.29c-.19-.06-.38-.14-.55-.21a0,0,0,0,0,0,0,.23.23,0,0,0-.29.11L85.47,19.82,80.55,36.13a.23.23,0,0,0,.14.28"/><path class="cls-1" d="M51.25,98.57a.25.25,0,0,0-.09-.31,4.21,4.21,0,0,1-.51-.29,0,0,0,0,0,0,0,.22.22,0,0,0-.3.06l-9.79,13.75-7.41,15.34a.21.21,0,0,0,.09.29l.49.3a.23.23,0,0,0,.31-.06l9.88-13.9Z"/><path class="cls-1" d="M85.45,38.44a.23.23,0,0,0,.1.3L86,39a.22.22,0,0,0,.3-.07l9.89-13.9L103.57,9.9a.23.23,0,0,0-.1-.3L103,9.3h0a.23.23,0,0,0-.31.06L92.86,23.11Z"/><path class="cls-1" d="M46.77,95.52a.23.23,0,0,0-.05-.32,5.19,5.19,0,0,1-.45-.37,0,0,0,0,0,0,0,.24.24,0,0,0-.31,0l-11.82,12-9.7,14a.2.2,0,0,0,0,.3l.44.37a.23.23,0,0,0,.31,0l11.94-12.18Z"/><path class="cls-1" d="M89.94,41.5a.21.21,0,0,0,0,.31l.44.36a.22.22,0,0,0,.31,0L102.67,30l9.61-13.83a.24.24,0,0,0,0-.32,5.19,5.19,0,0,1-.45-.37h0a.22.22,0,0,0-.3,0l-11.83,12Z"/><path class="cls-1" d="M42.82,91.8a.23.23,0,0,0,0-.32,5.2,5.2,0,0,1-.38-.44s0,0,0,0a.24.24,0,0,0-.31,0l-13.56,10L16.8,113.33a.23.23,0,0,0,0,.32l.37.43a.26.26,0,0,0,.32,0L31.16,104Z"/><path class="cls-1" d="M93.88,45.22a.23.23,0,0,0,0,.31l.38.43a.22.22,0,0,0,.31,0l13.68-10.15,11.66-12.16a.22.22,0,0,0,0-.32c-.13-.14-.27-.29-.39-.44h0a.23.23,0,0,0-.31,0l-13.56,10Z"/><path class="cls-1" d="M39.49,87.51a.24.24,0,0,0,.06-.32,4.07,4.07,0,0,1-.31-.49h0a.22.22,0,0,0-.3-.09l-15,7.8L10.43,104.7a.21.21,0,0,0,0,.3l.3.49a.24.24,0,0,0,.3.09l15.11-7.89Z"/><path class="cls-1" d="M97.2,49.5a.22.22,0,0,0,0,.31l.3.49a.24.24,0,0,0,.31.08l15.1-7.88,13.41-10.18a.23.23,0,0,0,0-.32c-.11-.16-.22-.33-.31-.49h0a.21.21,0,0,0-.29-.08l-15,7.8Z"/><path class="cls-1" d="M36.88,82.75a.23.23,0,0,0,.11-.3,5.22,5.22,0,0,1-.24-.54h0a.23.23,0,0,0-.29-.12l-16,5.35-15,8.05a.21.21,0,0,0-.11.28l.23.54a.23.23,0,0,0,.29.12l16.14-5.41Z"/><path class="cls-1" d="M35,77.64a.23.23,0,0,0,.16-.28,5.29,5.29,0,0,1-.15-.57h0a.23.23,0,0,0-.26-.17L18.16,79.4,2.11,85a.22.22,0,0,0-.15.27l.14.56a.25.25,0,0,0,.26.18l16.8-2.83Z"/><path class="cls-1" d="M34,72.31a.24.24,0,0,0,.19-.26,5.7,5.7,0,0,1-.06-.58s0,0,0,0a.23.23,0,0,0-.23-.21l-16.86.14L.35,74.4a.23.23,0,0,0-.19.25l0,.57a.24.24,0,0,0,.24.21l17-.15Z"/><path class="cls-1" d="M17,67.22l16.81-.34a.23.23,0,0,0,.24-.22,5.83,5.83,0,0,1,0-.59h0a.22.22,0,0,0-.19-.24l-16.68-2.5-17,.35a.22.22,0,0,0-.22.21l0,.57a.24.24,0,0,0,.19.25Z"/><path class="cls-1" d="M17.87,59.19l16.66,2.3a.24.24,0,0,0,.27-.18,5.23,5.23,0,0,1,.12-.57h0a.22.22,0,0,0-.15-.27L18.69,55.37,1.86,53.05a.23.23,0,0,0-.26.18l-.13.56a.24.24,0,0,0,.16.27Z"/><path class="cls-1" d="M20,51.39,36,56.28a.24.24,0,0,0,.29-.14c.06-.19.14-.37.21-.55h0a.23.23,0,0,0-.11-.29L21.36,47.75,5.09,42.81a.22.22,0,0,0-.28.14l-.22.53a.24.24,0,0,0,.12.3Z"/><path class="cls-1" d="M23.21,44l15.14,7.35a.23.23,0,0,0,.31-.09,5.14,5.14,0,0,1,.29-.51h0a.24.24,0,0,0-.07-.31L25.17,40.64,9.87,33.21a.23.23,0,0,0-.29.09l-.29.5a.22.22,0,0,0,.05.3Z"/><path class="cls-1" d="M113.64,93.07l-15.3-7.42a.22.22,0,0,0-.3.09l-.3.49a.25.25,0,0,0,.07.31l13.86,9.91,15.14,7.34a.22.22,0,0,0,.31-.09c.08-.16.19-.34.29-.5a0,0,0,0,1,0,0,.24.24,0,0,0-.07-.31Z"/><path class="cls-1" d="M27.6,37.24l13.8,9.63a.22.22,0,0,0,.31,0c.12-.16.25-.32.37-.46h0a.24.24,0,0,0,0-.32l-12-11.84L16.1,24.48a.22.22,0,0,0-.3,0l-.37.44a.23.23,0,0,0,0,.32Z"/><path class="cls-1" d="M109.24,99.87,95.29,90.14a.22.22,0,0,0-.3,0l-.37.44a.24.24,0,0,0,0,.32l12.15,12,13.8,9.64a.24.24,0,0,0,.32,0,5.19,5.19,0,0,1,.37-.45h0a.24.24,0,0,0,0-.32Z"/><path class="cls-1" d="M45.1,42.91a.23.23,0,0,0,.32,0,5.34,5.34,0,0,1,.44-.39h0a.23.23,0,0,0,0-.31l-10-13.58L23.62,16.83a.23.23,0,0,0-.31,0l-.44.38a.24.24,0,0,0,0,.31L33,31.23Z"/><path class="cls-1" d="M91.58,94.09a.23.23,0,0,0-.31,0l-.43.37a.23.23,0,0,0,0,.32l10.13,13.72,12.12,11.68a.23.23,0,0,0,.32,0,5.73,5.73,0,0,1,.45-.39h0a.24.24,0,0,0,0-.32l-10-13.58Z"/><path class="cls-1" d="M39.23,26.14,49.38,39.58a.24.24,0,0,0,.32.05l.49-.31h0a.25.25,0,0,0,.08-.31L42.5,24,32.23,10.45a.21.21,0,0,0-.3,0l-.49.3a.23.23,0,0,0-.08.31Z"/><path class="cls-1" d="M87.3,97.42a.22.22,0,0,0-.3,0l-.49.3a.24.24,0,0,0-.08.31l7.87,15.13,10.15,13.44a.22.22,0,0,0,.31.06l.5-.32h0a.22.22,0,0,0,.08-.29l-7.78-15Z"/><path class="cls-1" d="M54.13,37a.23.23,0,0,0,.3.11,5.22,5.22,0,0,1,.54-.24h0a.23.23,0,0,0,.12-.29l-5.34-16-8-15a.23.23,0,0,0-.3-.1l-.52.23a.23.23,0,0,0-.13.29L46.2,22.1Z"/><path class="cls-1" d="M82.55,100a.22.22,0,0,0-.29-.1l-.53.22a.26.26,0,0,0-.13.29L87,116.64,95,131.5a.23.23,0,0,0,.3.1l.54-.23h0a.23.23,0,0,0,.13-.28l-5.34-16Z"/></g></g></svg>