<svg xmlns="http://www.w3.org/2000/svg" width="14.2" height="18.145" viewBox="0 0 14.2 18.145"><defs><style>.a{fill:#414041;}</style></defs><path class="a" d="M20.389,4.779V7.6h4.737A1.574,1.574,0,0,1,26.7,9.177v9.476a1.573,1.573,0,0,1-1.574,1.573H14.074A1.574,1.574,0,0,1,12.5,18.653V9.177A1.573,1.573,0,0,1,14.074,7.6h4.737V4.777l-.89.89A.789.789,0,0,1,16.8,4.552L19.047,2.31a.779.779,0,0,1,.55-.229l.006,0a.774.774,0,0,1,.549.226l2.241,2.242a.789.789,0,0,1-1.115,1.115Zm-1.578,4.4H14.078v9.467H25.123V9.181H20.389v3.157a.789.789,0,0,1-1.578,0ZM16.445,7.6V9.181h6.312V7.6Zm2.367,0h1.578V9.181H18.811Z" transform="translate(-12.5 -2.081)"/></svg>