<svg xmlns="http://www.w3.org/2000/svg" width="25.738" height="25.743" viewBox="0 0 25.738 25.743"><defs><style>.a{fill:#fff;}</style></defs><g transform="translate(-3.638 -3.636)"><path class="a" d="M28.75,11.922l-1.388-1.388a.52.52,0,0,0-.715-.042,2.9,2.9,0,0,1-3.828-.295,2.949,2.949,0,0,1-.295-3.87.572.572,0,0,0-.042-.715L21.136,4.267a2.184,2.184,0,0,0-3.071,0L4.269,18.021a2.184,2.184,0,0,0,0,3.071l1.388,1.388a.52.52,0,0,0,.715.042,2.9,2.9,0,0,1,3.828.295,2.949,2.949,0,0,1,.295,3.87.572.572,0,0,0,.042.715l1.346,1.346a2.184,2.184,0,0,0,3.071,0L28.71,14.992a2.147,2.147,0,0,0,.04-3.07ZM12.681,27.949,11.629,26.9A4.069,4.069,0,0,0,11,22.059a3.958,3.958,0,0,0-4.838-.631L5.108,20.376a1.066,1.066,0,0,1,0-1.514l9.549-9.549,1.767,1.767.757-.757L15.414,8.556l3.45-3.45a1.066,1.066,0,0,1,1.514,0L21.43,6.158A4.069,4.069,0,0,0,22.061,11a3.958,3.958,0,0,0,4.838.631l1.052,1.052a1.066,1.066,0,0,1,0,1.514l-3.45,3.45-1.767-1.767-.757.757L23.744,18.4l-9.506,9.549a1.117,1.117,0,0,1-1.556,0Z" transform="translate(0)"/><path class="a" d="M54.055,32.691l.773-.773,3.123,3.123-.773.773Z" transform="translate(-36.42 -20.43)"/><path class="a" d="M35.008,45.319l.8-.8,4.878,4.878-.8.8Z" transform="translate(-22.661 -29.53)"/><path class="a" d="M30.855,53.437l.773-.773,3.808,3.808-.773.773Z" transform="translate(-19.661 -35.417)"/></g></svg>