<svg xmlns="http://www.w3.org/2000/svg" width="24.732" height="20" viewBox="0 0 24.732 20"><defs><style>.a{fill:#414041;}</style></defs><g transform="translate(-0.001 -57.441)"><g transform="translate(0.001 57.441)"><path class="a" d="M24.733,59.807a10.168,10.168,0,0,1-2.913.8,5.076,5.076,0,0,0,2.23-2.793,10.256,10.256,0,0,1-3.224,1.226,5.07,5.07,0,0,0-8.645,4.6A14.426,14.426,0,0,1,1.724,58.364a5.042,5.042,0,0,0,1.57,6.742A5.091,5.091,0,0,1,1,64.472v.063a5.062,5.062,0,0,0,4.069,4.953,5.161,5.161,0,0,1-1.337.177,4.891,4.891,0,0,1-.955-.094,5.073,5.073,0,0,0,4.738,3.508,10.209,10.209,0,0,1-6.3,2.159A10.829,10.829,0,0,1,0,75.169a14.388,14.388,0,0,0,7.777,2.272,14.3,14.3,0,0,0,14.435-14.37l-.017-.654A10.107,10.107,0,0,0,24.733,59.807Z" transform="translate(-0.001 -57.441)"/></g></g></svg>