<svg xmlns="http://www.w3.org/2000/svg" width="20" height="20" viewBox="0 0 20 20"><defs><style>.a{fill:#414041;}</style></defs><path class="a" d="M12.5,2.5a10,10,0,1,0,10,10A10.009,10.009,0,0,0,12.5,2.5Zm7.516,6.169H17.489A11.825,11.825,0,0,0,15.974,4.8a8.485,8.485,0,0,1,4.042,3.873Zm.927,3.831a8.131,8.131,0,0,1-.316,2.274H17.763A20.1,20.1,0,0,0,17.89,12.5a19.908,19.908,0,0,0-.127-2.274h2.884a8.957,8.957,0,0,1,.3,2.274Zm-16.885,0a8.131,8.131,0,0,1,.316-2.274H7.257a20.477,20.477,0,0,0,0,4.548H4.373A8.131,8.131,0,0,1,4.058,12.5Zm4.611,0a16.529,16.529,0,0,1,.169-2.274h2.905v4.548H8.837A16.528,16.528,0,0,1,8.668,12.5Zm4.61-8.252c1.158.548,2.084,2.316,2.59,4.443h-2.59Zm-1.558,0V8.69H9.131c.5-2.126,1.432-3.895,2.59-4.442Zm0,12.084v4.443c-1.158-.548-2.084-2.316-2.59-4.443Zm1.558,4.421V16.31h2.59c-.5,2.127-1.432,3.9-2.59,4.443Zm0-5.979V10.226h2.905a16.528,16.528,0,0,1,.169,2.274,16.529,16.529,0,0,1-.169,2.274ZM9.026,4.816A12.278,12.278,0,0,0,7.511,8.689H4.984A8.3,8.3,0,0,1,9.026,4.816ZM4.984,16.331H7.511A11.825,11.825,0,0,0,9.026,20.2a8.485,8.485,0,0,1-4.042-3.873Zm10.989,3.853a12.278,12.278,0,0,0,1.516-3.873h2.526a8.3,8.3,0,0,1-4.042,3.873Z" transform="translate(-2.5 -2.5)"/></svg>