<?xml version="1.0" encoding="UTF-8"?>
<svg id="Artwork" xmlns="http://www.w3.org/2000/svg" viewBox="0 0 1147.25 494.93">
  <defs>
    <style>
      .cls-1 {
        fill: #58595b;
      }

      .cls-1, .cls-2 {
        stroke-width: 0px;
      }

      .cls-2 {
        fill: #44b8ac;
      }
    </style>
  </defs>
  <g>
    <path class="cls-2" d="M292.31,250.74c0,33.95-27.52,61.47-61.47,61.47s-61.47-27.52-61.47-61.47,27.52-61.46,61.47-61.46,61.47,27.52,61.47,61.46Z"/>
    <path class="cls-2" d="M231.4,250.89l-.03.03-.03-.03h.06Z"/>
    <path class="cls-2" d="M231.37,250.89v.03l-.03-.03h.03Z"/>
    <g>
      <path class="cls-2" d="M214.33,180.56c-.21-.49-.49-.92-.76-1.41-23.64-51.79-65.24-65.79-93.34-68.96-17.1-1.9-29.25.17-29.25.17-8.28,81.36,44.83,113.12,68.09,122.91-.22,1.04-.49,2.02-.71,3.06-16.4-5.29-100.92-38.02-89.69-148.14,6.04-.49,11.81-.76,17.43-.76,9.79,0,18.94.76,27.5,2.12.05.05.11.05.16.05,34.04,6.33,78.82,27.02,103.1,88.89.22.49.38.98.61,1.53-1.04.16-2.07.38-3.11.54Z"/>
      <path class="cls-2" d="M214.33,180.56s-.05.05-.11.05c-.17-.49-.38-.98-.66-1.46.28.49.55.92.76,1.41Z"/>
      <path class="cls-2" d="M205.08,181.92c.21.38.49.76.7,1.15.07-.11.17-.11.28-.11-.33-.38-.59-.71-.98-1.04ZM213.56,179.15c.28.49.49.98.66,1.46.05,0,.11-.05.11-.05-.21-.49-.49-.92-.76-1.41Z"/>
      <g>
        <path class="cls-2" d="M214.22,180.61c-.87.22-1.74.38-2.61.61-1.04.26-2.14.59-3.16.92-.82.21-1.63.49-2.4.82-.33-.38-.59-.71-.98-1.04.21.38.49.76.7,1.15-.82.22-1.62.54-2.44.87-1.48.54-2.89,1.15-4.26,1.79-.92.43-1.79.88-2.66,1.37-19.07,9.58-29.52,27.78-29.52,27.78-.55.82-1.04,1.63-1.48,2.5-.76,1.41-1.53,2.89-2.18,4.4-.38.82-.76,1.63-1.09,2.5-12.75-11.48-24.51-30.77-21.34-61.92l.21-2.23,2.29-.17c8.33-.7,15.85-.49,23.08.71l1.15.28c11.82,2.39,25.76,8,37.36,20.75-16.94-25.71-41.06-33.93-59.69-36.05-8.66-.99-15.57-.55-18.84-.17-3.76,44.33,17.86,67.65,35.62,79.19-.38.82-.71,1.75-.99,2.62-.44,1.08-.82,2.23-1.13,3.32-.28.87-.55,1.74-.76,2.61-22.82-11.71-61.22-41.45-54.52-106.91l.22-2.23,2.23-.17c4.8-.43,9.1-.59,13.18-.59,7.13,0,14.11.54,20.8,1.58l.99.26c23.25,4.52,52.66,17.76,71.55,53.98.28.49.49.98.66,1.46Z"/>
        <path class="cls-2" d="M205.08,181.92c.21.38.49.76.7,1.15.07-.11.17-.11.28-.11-.33-.38-.59-.71-.98-1.04Z"/>
      </g>
    </g>
    <path class="cls-2" d="M218.41,190.8c-.93-2.56-1.96-5.06-3-7.52"/>
    <path class="cls-2" d="M169.62,237.14s-3-.76-7.84-2.72"/>
    <g>
      <path class="cls-2" d="M249.18,179.15c-.28.49-.49.98-.66,1.46-.05,0-.11-.05-.11-.05.21-.49.49-.92.76-1.41Z"/>
      <path class="cls-2" d="M248.42,180.56s.05.05.11.05c.17-.49.38-.98.66-1.46-.28.49-.55.92-.76,1.41Z"/>
      <g>
        <path class="cls-2" d="M304.4,236.33c-.22-1.04-.49-2.02-.71-3.06,23.25-9.79,76.37-41.55,68.09-122.91,0,0-12.15-2.07-29.25-.17-28.1,3.16-69.71,17.16-93.34,68.96-.28.49-.55.92-.76,1.41-1.04-.16-2.07-.38-3.11-.54.22-.55.38-1.04.61-1.53,24.28-61.86,69.05-82.56,103.1-88.89.05,0,.11,0,.16-.05,8.56-1.36,17.7-2.12,27.5-2.12,5.62,0,11.39.28,17.43.76,11.23,110.13-73.29,142.86-89.69,148.14Z"/>
        <path class="cls-2" d="M248.52,180.61c.17-.49.38-.98.66-1.46,18.89-36.22,48.3-49.46,71.55-53.98l.99-.26c6.7-1.04,13.67-1.58,20.8-1.58,4.09,0,8.38.16,13.18.59l2.23.17.22,2.23c6.7,65.46-31.7,95.2-54.52,106.91-.21-.87-.49-1.74-.76-2.61-.32-1.09-.7-2.24-1.13-3.32-.28-.87-.61-1.81-.99-2.62,17.76-11.53,39.38-34.85,35.62-79.19-3.27-.38-10.18-.82-18.84.17-18.63,2.12-42.76,10.35-59.69,36.05,11.6-12.75,25.53-18.36,37.36-20.75l1.15-.28c7.24-1.2,14.75-1.41,23.08-.71l2.29.17.21,2.23c3.16,31.15-8.59,50.44-21.34,61.93-.33-.88-.71-1.7-1.09-2.52-.65-1.52-1.41-2.99-2.18-4.4-.43-.87-.92-1.69-1.48-2.5,0,0-10.44-18.19-29.52-27.78-.87-.49-1.74-.92-2.66-1.37-1.37-.65-2.78-1.25-4.26-1.79-.82-.33-1.63-.65-2.44-.87-.07-.11-.17-.11-.28-.11-.76-.33-1.58-.61-2.4-.82-1.03-.33-2.12-.66-3.16-.92-.87-.22-1.74-.38-2.61-.61Z"/>
      </g>
    </g>
    <path class="cls-2" d="M218.18,321.36c-.22.54-.38,1.03-.61,1.52-24.28,61.88-69.05,82.57-103.1,88.89-.05,0-.11,0-.16.05-8.56,1.36-17.7,2.12-27.5,2.12-5.62,0-11.39-.28-17.43-.76-11.23-110.11,73.29-142.84,89.69-148.13.22,1.03.49,2.02.71,3.05-23.25,9.81-76.37,41.55-68.09,122.93,0,0,12.15,2.07,29.25.16,28.1-3.15,69.71-17.15,93.34-68.94-18.89,36.21-48.3,49.45-71.55,53.97l-.99.28c-6.7,1.03-13.67,1.58-20.8,1.58-4.09,0-8.38-.17-13.18-.61l-2.23-.16-.22-2.24c-6.7-65.46,31.7-95.19,54.52-106.91.21.87.49,1.74.76,2.62.32,1.08.7,2.23,1.13,3.32.28.87.61,1.79.99,2.61-17.76,11.55-39.38,34.85-35.62,79.19,3.27.38,10.18.82,18.84-.16,18.63-2.14,42.75-10.35,59.69-36.05-11.6,12.73-25.53,18.35-37.36,20.75l-1.15.26c-7.24,1.2-14.75,1.42-23.08.71l-2.29-.16-.21-2.24c-3.16-31.15,8.59-50.42,21.34-61.92.33.87.71,1.69,1.09,2.5.65,1.53,1.41,2.99,2.17,4.42.44.87.92,1.69,1.48,2.5,0,0,10.44,18.18,29.52,27.78.87.49,1.74.92,2.66,1.36,1.37.65,2.78,1.25,4.26,1.79.82.33,1.62.66,2.44.87.07.12.17.12.28.12.76.32,1.58.59,2.4.82,1.03.32,2.12.65,3.16.92.87.21,1.74.38,2.61.59.05,0,.11.05.11.05,1.04.17,2.07.38,3.11.55Z"/>
    <path class="cls-2" d="M394.83,413.17c-6.04.49-11.81.76-17.43.76-9.79,0-18.94-.76-27.5-2.12-.05-.05-.11-.05-.16-.05-34.05-6.31-78.82-27.01-103.1-88.89-.22-.49-.38-.98-.61-1.52,1.04-.17,2.07-.38,3.11-.55,0,0,.05-.05.11-.05.87-.21,1.74-.38,2.61-.59,1.04-.28,2.14-.61,3.16-.92.82-.22,1.63-.5,2.4-.82.11,0,.21,0,.28-.12.8-.21,1.62-.54,2.44-.87,1.48-.54,2.89-1.15,4.26-1.79.92-.43,1.79-.87,2.66-1.36,19.07-9.6,29.52-27.78,29.52-27.78.55-.82,1.04-1.63,1.48-2.52.76-1.41,1.53-2.87,2.18-4.4.38-.82.76-1.63,1.09-2.5,12.75,11.49,24.51,30.77,21.34,61.92l-.21,2.24-2.29.16c-8.33.71-15.85.49-23.08-.71l-1.15-.26c-11.82-2.4-25.76-8.01-37.36-20.75,16.94,25.71,41.06,33.92,59.69,36.05,8.66.98,15.57.54,18.84.16,3.76-44.33-17.86-67.64-35.62-79.19.38-.82.71-1.74.99-2.61.43-1.09.82-2.24,1.13-3.32.28-.88.55-1.75.76-2.62,22.82,11.72,61.22,41.45,54.52,106.91l-.22,2.24-2.23.16c-4.8.43-9.1.59-13.18.59-7.13,0-14.11-.54-20.8-1.57l-.99-.28c-23.25-4.52-52.66-17.76-71.55-53.97,23.64,51.79,65.24,65.79,93.34,68.94,17.1,1.91,29.25-.16,29.25-.16,8.28-81.37-44.83-113.12-68.09-122.93.22-1.03.49-2.02.71-3.05,16.4,5.29,100.92,38,89.69,148.13Z"/>
    <g>
      <circle class="cls-2" cx="228.34" cy="98.26" r="17.04"/>
      <g>
        <path class="cls-2" d="M303.12,92.19c-35.36,14.57-55.43,48.82-69.52,82.35-2.11,6.23-11.04,5.62-12.44-.73-9.44-36.52-34.7-68.8-70.88-81.62,18.72,2.01,35.39,10.65,48.9,23.12l.03.03c.09.09.36.35.79.73.07.06.13.12.2.18,5.07,4.4,28.52,21.96,58.27-.49,12.35-11.98,27.17-20.81,44.65-23.57Z"/>
        <path class="cls-2" d="M200,116.07c-.43-.38-.7-.64-.79-.73.26.23.53.48.79.73Z"/>
      </g>
    </g>
    <g>
      <circle class="cls-2" cx="230.28" cy="404.4" r="17.04"/>
      <g>
        <path class="cls-2" d="M305.06,410.48c-17.49-2.76-32.31-11.58-44.66-23.57-29.75-22.45-53.19-4.89-58.26-.49-.07.06-.13.12-.2.18-.43.38-.7.64-.79.73l-.03.03c-13.51,12.47-30.19,21.11-48.91,23.12,36.19-12.82,61.44-45.1,70.89-81.63,1.4-6.34,10.33-6.95,12.44-.72,14.09,33.53,34.15,67.78,69.52,82.35Z"/>
        <path class="cls-2" d="M201.94,386.6c-.26.25-.53.5-.79.73.09-.09.36-.35.79-.73Z"/>
      </g>
    </g>
    <g>
      <circle class="cls-2" cx="77.43" cy="249.1" r="17.04"/>
      <g>
        <path class="cls-2" d="M152.98,256.28c-36.52,9.45-68.81,34.7-81.63,70.88,2.01-18.71,10.65-35.38,23.12-48.9,0,0,.36-.35.94-1.03.01,0,.01,0,.01,0,4.44-5.11,21.92-28.53-.5-58.25-11.99-12.35-20.81-27.16-23.57-44.65,14.57,35.37,48.83,55.43,82.35,69.52,6.24,2.11,5.62,11.04-.72,12.44Z"/>
        <path class="cls-2" d="M95.41,277.23c-.58.68-.94,1.03-.94,1.03.31-.35.62-.69.94-1.03Z"/>
      </g>
    </g>
    <g>
      <circle class="cls-2" cx="386.53" cy="249.1" r="17.04"/>
      <g>
        <path class="cls-2" d="M369.49,278.26c12.46,13.52,21.11,30.19,23.12,48.9-12.82-36.18-45.11-61.43-81.63-70.88-6.35-1.4-6.96-10.33-.73-12.44,33.53-14.09,67.79-34.15,82.36-69.52-2.76,17.49-11.58,32.3-23.57,44.65-22.44,29.73-4.92,53.17-.5,58.26.07.07.13.14.19.21.38.43.64.7.73.79.02.02.03.03.03.03Z"/>
        <path class="cls-2" d="M369.46,278.23c-.09-.09-.35-.36-.73-.79.25.26.5.52.73.79Z"/>
      </g>
    </g>
  </g>
  <g>
    <g>
      <path class="cls-1" d="M499.44,227.74c-.77,1.14-1.83,2.31-3.18,3.5-1.36,1.19-2.95,2.29-4.79,3.31-1.84,1.02-3.86,1.85-6.06,2.49-2.2.64-4.52.97-6.98.97-3.83,0-7.33-.65-10.5-1.93-3.17-1.29-5.9-3.09-8.2-5.39-2.3-2.31-4.09-5.02-5.37-8.15-1.28-3.12-1.92-6.55-1.92-10.27s.64-7.02,1.92-10.19c1.28-3.17,3.08-5.95,5.41-8.33,2.33-2.38,5.1-4.27,8.32-5.66,3.22-1.39,6.77-2.08,10.66-2.08,2.5,0,4.8.26,6.9.78,2.09.52,4,1.23,5.71,2.12,1.71.89,3.23,1.95,4.56,3.16,1.33,1.22,2.5,2.52,3.53,3.91l-6.82,5.88c-1.64-2.28-3.54-4.12-5.71-5.51-2.17-1.39-4.9-2.08-8.17-2.08-2.5,0-4.75.48-6.75,1.45-1.99.97-3.69,2.26-5.1,3.87-1.41,1.61-2.48,3.5-3.22,5.66-.74,2.16-1.11,4.43-1.11,6.81s.37,4.61,1.11,6.7c.74,2.08,1.8,3.9,3.18,5.43,1.38,1.54,3.03,2.75,4.95,3.65,1.92.89,4.08,1.34,6.48,1.34,2.2,0,4.08-.25,5.64-.74,1.56-.5,2.89-1.12,3.99-1.86,1.1-.74,2.02-1.53,2.76-2.34s1.42-1.53,2.03-2.12l6.75,5.66Z"/>
      <path class="cls-1" d="M529.81,238.16c-3.73,0-7.21-.68-10.43-2.05-3.22-1.36-6.03-3.24-8.43-5.62-2.4-2.38-4.29-5.16-5.67-8.33-1.38-3.17-2.07-6.57-2.07-10.19s.69-7.02,2.07-10.19c1.38-3.17,3.26-5.94,5.63-8.3,2.38-2.36,5.19-4.22,8.43-5.58,3.25-1.36,6.73-2.05,10.47-2.05s7.21.68,10.43,2.05c3.22,1.37,6.03,3.23,8.43,5.58,2.4,2.36,4.29,5.12,5.67,8.3s2.07,6.57,2.07,10.19-.69,7.02-2.07,10.19c-1.38,3.18-3.27,5.95-5.67,8.33-2.4,2.38-5.21,4.25-8.43,5.62-3.22,1.36-6.7,2.05-10.43,2.05ZM529.81,229.31c2.5,0,4.78-.47,6.82-1.41,2.04-.94,3.78-2.22,5.21-3.83,1.43-1.61,2.53-3.48,3.3-5.62.77-2.13,1.15-4.37,1.15-6.7s-.38-4.62-1.15-6.73c-.77-2.11-1.87-3.96-3.3-5.54-1.43-1.59-3.17-2.84-5.21-3.76-2.04-.92-4.32-1.38-6.82-1.38s-4.84.46-6.86,1.38c-2.02.92-3.75,2.17-5.17,3.76-1.43,1.59-2.53,3.44-3.3,5.54-.77,2.11-1.15,4.35-1.15,6.73s.38,4.56,1.15,6.7c.77,2.13,1.87,4.01,3.3,5.62,1.43,1.61,3.16,2.89,5.17,3.83,2.02.94,4.31,1.41,6.86,1.41Z"/>
      <path class="cls-1" d="M565.08,187.19h8.97l14.18,23.44,13.96-23.44h8.97l2.45,49.63h-9.43l-1.69-34.38-12.27,20.24h-4.52l-12.34-19.72-1.69,33.86h-9.05l2.45-49.63Z"/>
      <path class="cls-1" d="M623.65,187.19h8.97l14.18,23.44,13.96-23.44h8.97l2.45,49.63h-9.43l-1.69-34.38-12.27,20.24h-4.52l-12.34-19.72-1.69,33.86h-9.05l2.45-49.63Z"/>
      <path class="cls-1" d="M705.01,238.16c-3.73,0-7.21-.68-10.43-2.05-3.22-1.36-6.03-3.24-8.43-5.62-2.4-2.38-4.29-5.16-5.67-8.33-1.38-3.17-2.07-6.57-2.07-10.19s.69-7.02,2.07-10.19c1.38-3.17,3.26-5.94,5.63-8.3,2.38-2.36,5.19-4.22,8.43-5.58,3.25-1.36,6.73-2.05,10.47-2.05s7.21.68,10.43,2.05c3.22,1.37,6.03,3.23,8.43,5.58,2.4,2.36,4.29,5.12,5.67,8.3s2.07,6.57,2.07,10.19-.69,7.02-2.07,10.19c-1.38,3.18-3.27,5.95-5.67,8.33-2.4,2.38-5.21,4.25-8.43,5.62-3.22,1.36-6.7,2.05-10.43,2.05ZM705.01,229.31c2.5,0,4.78-.47,6.82-1.41,2.04-.94,3.78-2.22,5.21-3.83,1.43-1.61,2.53-3.48,3.3-5.62.77-2.13,1.15-4.37,1.15-6.7s-.38-4.62-1.15-6.73c-.77-2.11-1.87-3.96-3.3-5.54-1.43-1.59-3.17-2.84-5.21-3.76-2.04-.92-4.32-1.38-6.82-1.38s-4.84.46-6.86,1.38c-2.02.92-3.75,2.17-5.17,3.76-1.43,1.59-2.53,3.44-3.3,5.54-.77,2.11-1.15,4.35-1.15,6.73s.38,4.56,1.15,6.7c.77,2.13,1.87,4.01,3.3,5.62,1.43,1.61,3.16,2.89,5.17,3.83,2.02.94,4.31,1.41,6.86,1.41Z"/>
      <path class="cls-1" d="M738.44,187.19h9.74l24.77,35.27v-35.27h9.43v49.63h-9.51l-25-35.72v35.72h-9.43v-49.63Z"/>
      <path class="cls-1" d="M788.5,187.19h10.58l8.36,37.13,9.89-35.72h8.74l9.97,35.72,8.28-37.13h10.12l-13.42,49.63h-10.12l-9.51-32.82-9.66,32.82h-9.97l-13.26-49.63Z"/>
      <path class="cls-1" d="M859.43,187.19h33.12v8.26h-23.46v11.68h17.25v8.33h-17.25v12.95h25.23v8.41h-34.89v-49.63Z"/>
      <path class="cls-1" d="M919.31,187.19h9.97l19.4,49.63h-10.73l-4.45-12.58h-19.02l-4.45,12.58h-10.12l19.4-49.63ZM930.74,216.51l-6.75-19.27-6.82,19.27h13.57Z"/>
      <path class="cls-1" d="M954.43,187.19h9.66v41.3h25.23v8.33h-34.89v-49.63Z"/>
      <path class="cls-1" d="M997.67,195.45h-17.33v-8.26h44.32v8.26h-17.33v41.37h-9.66v-41.37Z"/>
      <path class="cls-1" d="M1031.02,187.19h9.66v19.94h25.38v-19.94h9.66v49.63h-9.66v-21.36h-25.38v21.36h-9.66v-49.63Z"/>
    </g>
    <g>
      <path class="cls-2" d="M455.8,273.37h20.86c2.76,0,5.25.36,7.48,1.08,2.22.72,4.13,1.76,5.71,3.12,1.58,1.37,2.81,3.08,3.68,5.13.87,2.06,1.3,4.43,1.3,7.11,0,2.53-.45,4.83-1.34,6.88-.9,2.06-2.12,3.82-3.68,5.28-1.56,1.46-3.43,2.58-5.6,3.35-2.17.77-4.56,1.15-7.17,1.15h-7.97v16.52h-13.27v-49.63ZM475.5,296.14c1.84,0,3.3-.57,4.37-1.71,1.07-1.14,1.61-2.6,1.61-4.39,0-1.88-.51-3.4-1.53-4.54-1.02-1.14-2.53-1.71-4.52-1.71h-6.36v12.35h6.44Z"/>
      <path class="cls-2" d="M501.57,273.37h36.8v11.38h-23.23v7.66h19.09v10.72h-19.09v8.48h24.84v11.38h-38.41v-49.63Z"/>
      <path class="cls-2" d="M571.65,324.19c-3.83,0-7.37-.66-10.62-1.97-3.25-1.31-6.06-3.12-8.43-5.43s-4.23-5.06-5.56-8.26c-1.33-3.2-1.99-6.68-1.99-10.45s.66-7.25,1.99-10.45c1.33-3.2,3.18-5.95,5.56-8.26s5.19-4.1,8.43-5.39c3.25-1.29,6.79-1.93,10.62-1.93s7.39.64,10.66,1.93c3.27,1.29,6.08,3.09,8.43,5.39,2.35,2.31,4.19,5.06,5.52,8.26,1.33,3.2,1.99,6.68,1.99,10.45s-.67,7.26-1.99,10.45c-1.33,3.2-3.17,5.95-5.52,8.26-2.35,2.31-5.16,4.12-8.43,5.43-3.27,1.31-6.82,1.97-10.66,1.97ZM571.65,311.84c1.99,0,3.77-.36,5.33-1.08,1.56-.72,2.88-1.7,3.95-2.94,1.07-1.24,1.89-2.7,2.45-4.39.56-1.69.84-3.47.84-5.36s-.28-3.67-.84-5.36c-.56-1.69-1.38-3.15-2.45-4.39-1.07-1.24-2.39-2.22-3.95-2.94-1.56-.72-3.33-1.08-5.33-1.08s-3.77.36-5.33,1.08c-1.56.72-2.88,1.7-3.95,2.94s-1.89,2.7-2.45,4.39c-.56,1.69-.84,3.47-.84,5.36s.28,3.67.84,5.36c.56,1.69,1.38,3.15,2.45,4.39,1.07,1.24,2.39,2.22,3.95,2.94,1.56.72,3.34,1.08,5.33,1.08Z"/>
      <path class="cls-2" d="M605.54,273.37h20.86c2.76,0,5.25.36,7.48,1.08,2.22.72,4.13,1.76,5.71,3.12,1.58,1.37,2.81,3.08,3.68,5.13.87,2.06,1.3,4.43,1.3,7.11,0,2.53-.45,4.83-1.34,6.88-.9,2.06-2.12,3.82-3.68,5.28-1.56,1.46-3.43,2.58-5.6,3.35-2.17.77-4.56,1.15-7.17,1.15h-7.97v16.52h-13.27v-49.63ZM625.25,296.14c1.84,0,3.3-.57,4.37-1.71,1.07-1.14,1.61-2.6,1.61-4.39,0-1.88-.51-3.4-1.53-4.54-1.02-1.14-2.53-1.71-4.52-1.71h-6.36v12.35h6.44Z"/>
      <path class="cls-2" d="M651.31,273.37h13.57v38.02h23.69v11.61h-37.26v-49.63Z"/>
      <path class="cls-2" d="M694.71,273.37h36.8v11.38h-23.23v7.66h19.09v10.72h-19.09v8.48h24.84v11.38h-38.41v-49.63Z"/>
      <path class="cls-2" d="M741.56,273.37h13.5l-5.9,18.45h-9.58l1.99-18.45Z"/>
      <path class="cls-2" d="M764.87,307.3c1.43,1.39,3.3,2.65,5.6,3.79,2.3,1.14,4.83,1.71,7.59,1.71.66,0,1.35-.06,2.07-.19.72-.12,1.35-.34,1.92-.63.56-.3,1.02-.7,1.38-1.19.36-.49.54-1.14.54-1.93,0-1.29-.68-2.36-2.03-3.2-1.35-.84-3.33-1.69-5.94-2.53l-2.84-.89c-1.58-.5-3.18-1.14-4.79-1.94-1.61-.79-3.05-1.75-4.33-2.86-1.28-1.12-2.31-2.43-3.11-3.94-.79-1.51-1.19-3.29-1.19-5.32,0-2.28.43-4.4,1.3-6.36.87-1.96,2.13-3.67,3.79-5.13,1.66-1.46,3.72-2.6,6.17-3.42,2.45-.82,5.29-1.23,8.51-1.23,2.5,0,4.78.22,6.82.67,2.04.45,3.83.99,5.37,1.64s2.84,1.34,3.91,2.08,1.89,1.41,2.45,2.01l-6.9,8.48c-1.79-1.29-3.66-2.34-5.6-3.16-1.94-.82-3.94-1.23-5.98-1.23-.67,0-1.33.07-1.99.22-.67.15-1.26.37-1.8.67-.54.3-.97.68-1.3,1.15-.33.47-.5,1.05-.5,1.75,0,.74.19,1.39.58,1.93.38.55.91,1.02,1.57,1.41.66.4,1.47.76,2.42,1.08.95.32,1.96.66,3.03,1l2.45.74c1.74.55,3.5,1.18,5.29,1.9,1.79.72,3.4,1.69,4.83,2.9,1.43,1.22,2.61,2.73,3.53,4.54.92,1.81,1.38,4.03,1.38,6.66,0,2.28-.55,4.39-1.65,6.32-1.1,1.94-2.58,3.6-4.45,4.99s-4.06,2.47-6.59,3.24c-2.53.77-5.23,1.15-8.09,1.15-5.11,0-9.39-.66-12.84-1.97-3.45-1.31-6.38-3.09-8.78-5.32l8.2-9.6Z"/>
      <path class="cls-1" d="M822.22,273.37h35.65v11.53h-22.08v9.6h17.1v10.86h-17.1v17.63h-13.57v-49.63Z"/>
      <path class="cls-1" d="M888.62,324.19c-3.83,0-7.37-.66-10.62-1.97-3.25-1.31-6.06-3.12-8.43-5.43s-4.23-5.06-5.56-8.26c-1.33-3.2-1.99-6.68-1.99-10.45s.66-7.25,1.99-10.45c1.33-3.2,3.18-5.95,5.56-8.26s5.19-4.1,8.43-5.39c3.25-1.29,6.79-1.93,10.62-1.93s7.39.64,10.66,1.93c3.27,1.29,6.08,3.09,8.43,5.39,2.35,2.31,4.19,5.06,5.52,8.26,1.33,3.2,1.99,6.68,1.99,10.45s-.67,7.26-1.99,10.45c-1.33,3.2-3.17,5.95-5.52,8.26-2.35,2.31-5.16,4.12-8.43,5.43-3.27,1.31-6.82,1.97-10.66,1.97ZM888.62,311.84c1.99,0,3.77-.36,5.33-1.08,1.56-.72,2.88-1.7,3.95-2.94,1.07-1.24,1.89-2.7,2.45-4.39.56-1.69.84-3.47.84-5.36s-.28-3.67-.84-5.36c-.56-1.69-1.38-3.15-2.45-4.39-1.07-1.24-2.39-2.22-3.95-2.94-1.56-.72-3.33-1.08-5.33-1.08s-3.77.36-5.33,1.08c-1.56.72-2.88,1.7-3.95,2.94s-1.89,2.7-2.45,4.39c-.56,1.69-.84,3.47-.84,5.36s.28,3.67.84,5.36c.56,1.69,1.38,3.15,2.45,4.39,1.07,1.24,2.39,2.22,3.95,2.94,1.56.72,3.34,1.08,5.33,1.08Z"/>
      <path class="cls-1" d="M922.43,273.37h21.16c2.76,0,5.25.35,7.48,1.04,2.22.7,4.13,1.72,5.71,3.09,1.58,1.37,2.81,3.06,3.68,5.1.87,2.04,1.3,4.39,1.3,7.07,0,3.27-.74,6.11-2.22,8.52-1.48,2.41-3.45,4.33-5.9,5.77l10.96,19.05h-14.57l-8.66-16.89h-5.67v16.89h-13.26v-49.63ZM942.29,295.76c1.79,0,3.25-.53,4.37-1.6,1.12-1.07,1.69-2.49,1.69-4.28,0-1.88-.54-3.37-1.61-4.46-1.07-1.09-2.58-1.64-4.52-1.64h-6.52v11.98h6.59Z"/>
      <path class="cls-1" d="M970.28,273.37h13.57v29.09c0,2.73.65,4.96,1.96,6.7s3.46,2.6,6.48,2.6,5.16-.88,6.44-2.64c1.28-1.76,1.92-3.98,1.92-6.66v-29.09h13.72v30.29c0,3.17-.54,6.04-1.61,8.59s-2.59,4.72-4.56,6.51c-1.97,1.79-4.29,3.15-6.98,4.09s-5.64,1.41-8.86,1.41-6.19-.47-8.89-1.41c-2.71-.94-5.05-2.29-7.02-4.05s-3.49-3.92-4.56-6.47c-1.07-2.55-1.61-5.44-1.61-8.67v-30.29Z"/>
      <path class="cls-1" d="M1024.56,273.37h12.96l12.42,21.65,12.19-21.65h13.04l2.38,49.63h-13.73l-1.23-29.09-8.97,16.97h-7.44l-9.97-16.97-1,29.09h-13.03l2.38-49.63Z"/>
    </g>
  </g>
</svg>