<?xml version="1.0" encoding="UTF-8"?><svg id="b" xmlns="http://www.w3.org/2000/svg" xmlns:xlink="http://www.w3.org/1999/xlink" viewBox="0 0 78.4 24.22"><defs><style>.g{fill:none;}.g,.h,.i{stroke-width:0px;}.h{fill:#45b8ab;}.j{clip-path:url(#e);}.k{clip-path:url(#f);}.l{clip-path:url(#d);}.i{fill:#fff;}</style><clipPath id="d"><rect class="g" width="78.4" height="24.22"/></clipPath><clipPath id="e"><rect class="g" y="-14.09" width="78.4" height="84.96"/></clipPath><clipPath id="f"><rect class="g" y="-14.09" width="78.4" height="84.96"/></clipPath></defs><g id="c"><g class="l"><g class="j"><g class="k"><path class="h" d="M5.37,24c0,4.31-3.49,7.8-7.8,7.8s-7.79-3.49-7.79-7.8,3.49-7.79,7.79-7.79,7.8,3.49,7.8,7.79"/><path class="h" d="M6.9,22.18c-.03-.13-.06-.26-.09-.39,2.95-1.24,9.68-5.27,8.63-15.59,0,0-1.54-.26-3.71-.02C8.17,6.58,2.9,8.36-.1,14.93c-.03.06-.07.12-.1.18-.13-.02-.26-.05-.39-.07.03-.07.05-.13.08-.19C2.57,7,8.24,4.37,12.56,3.57c0,0,.01,0,.02,0,1.09-.17,2.24-.27,3.49-.27.71,0,1.44.04,2.21.1,1.42,13.96-9.29,18.12-11.37,18.79"/><path class="h" d="M-.18,15.11c.02-.06.05-.12.08-.19,2.4-4.59,6.13-6.27,9.07-6.85l.13-.03c.85-.13,1.73-.2,2.64-.2.52,0,1.06.02,1.67.08l.28.02.03.28c.85,8.3-4.02,12.07-6.91,13.56-.03-.11-.06-.22-.1-.33-.04-.14-.09-.28-.14-.42-.03-.11-.08-.23-.13-.33,2.25-1.46,4.99-4.42,4.52-10.04-.41-.05-1.29-.1-2.39.02-2.36.27-5.42,1.31-7.57,4.57,1.47-1.62,3.24-2.33,4.74-2.63l.15-.03c.92-.15,1.87-.18,2.93-.09l.29.02.03.28c.4,3.95-1.09,6.4-2.71,7.85-.04-.11-.09-.22-.14-.32-.08-.19-.18-.38-.28-.56-.05-.11-.12-.21-.19-.32,0,0-1.32-2.31-3.74-3.52-.11-.06-.22-.12-.34-.17-.17-.08-.35-.16-.54-.23-.1-.04-.21-.08-.31-.11,0-.01-.02-.01-.03-.01-.1-.04-.2-.08-.3-.1-.13-.04-.27-.08-.4-.12-.11-.03-.22-.05-.33-.08"/><path class="h" d="M6.74,3.9C2.26,5.75-.29,10.09-2.08,14.34c-.27.79-1.4.71-1.58-.09-1.2-4.63-4.4-8.72-8.99-10.35,2.37.25,4.49,1.35,6.2,2.93,0,0,0,0,0,0,.01.01.05.04.1.09,0,0,.02.02.03.02.64.56,3.62,2.78,7.39-.06,1.57-1.52,3.45-2.64,5.66-2.99"/><path class="i" d="M17.32,21.63c-1.19,0-2.16.97-2.16,2.16s.97,2.16,2.16,2.16,2.16-.97,2.16-2.16-.97-2.16-2.16-2.16"/><path class="h" d="M15.16,27.49c1.58,1.71,2.68,3.83,2.93,6.2-1.63-4.59-5.72-7.79-10.35-8.99-.81-.18-.88-1.31-.09-1.58,4.25-1.79,8.6-4.33,10.44-8.82-.35,2.22-1.47,4.1-2.99,5.66-2.85,3.77-.62,6.74-.06,7.39,0,0,.02.02.02.03.05.05.08.09.09.1,0,0,0,0,0,0"/><path class="i" d="M17.32,21.63c1.19,0,2.16.97,2.16,2.16s-.97,2.16-2.16,2.16-2.16-.97-2.16-2.16.97-2.16,2.16-2.16"/><path class="h" d="M44.57,24c0,4.31-3.49,7.8-7.8,7.8s-7.79-3.49-7.79-7.8,3.49-7.79,7.79-7.79,7.8,3.49,7.8,7.79"/><rect class="i" x="36.84" y="24.02" width="0" height="0" transform="translate(-6.2 33.09) rotate(-45)"/><polygon class="i" points="36.84 24.02 36.84 24.03 36.84 24.02 36.84 24.02"/><path class="h" d="M34.68,15.1c-.03-.06-.06-.12-.1-.18-3-6.57-8.27-8.34-11.84-8.74-2.17-.24-3.71.02-3.71.02-1.05,10.32,5.69,14.34,8.63,15.59-.03.13-.06.26-.09.39-2.08-.67-12.8-4.82-11.37-18.79.77-.06,1.5-.1,2.21-.1,1.24,0,2.4.1,3.49.27,0,0,.01,0,.02,0,4.32.8,9.99,3.43,13.07,11.27.03.06.05.12.08.19-.13.02-.26.05-.39.07"/><path class="i" d="M34.68,15.1s0,0-.01,0c-.02-.06-.05-.12-.08-.19.04.06.07.12.1.18"/><path class="i" d="M33.63,15.41s-.03,0-.04.01c-.03-.05-.06-.1-.09-.15.05.04.08.08.12.13M34.68,15.1s0,0-.01,0c-.02-.06-.05-.12-.08-.19.04.06.07.12.1.18"/><path class="h" d="M34.67,15.11c-.11.03-.22.05-.33.08-.13.03-.27.08-.4.12-.1.03-.21.06-.3.1-.04-.05-.08-.09-.12-.13.03.05.06.1.09.15-.1.03-.21.07-.31.11-.19.07-.37.15-.54.23-.12.06-.23.11-.34.17-2.42,1.22-3.74,3.52-3.74,3.52-.07.1-.13.21-.19.32-.1.18-.19.37-.28.56-.05.1-.1.21-.14.32-1.62-1.46-3.11-3.9-2.71-7.85l.03-.28.29-.02c1.06-.09,2.01-.06,2.93.09l.15.03c1.5.3,3.27,1.01,4.74,2.63-2.15-3.26-5.21-4.3-7.57-4.57-1.1-.13-1.97-.07-2.39-.02-.48,5.62,2.26,8.58,4.52,10.04-.05.1-.09.22-.13.33-.06.14-.1.28-.14.42-.03.11-.07.22-.1.33-2.89-1.48-7.76-5.26-6.91-13.56l.03-.28.28-.02c.61-.06,1.15-.08,1.67-.08.9,0,1.79.07,2.64.2l.13.03c2.95.57,6.68,2.25,9.07,6.85.03.06.06.12.08.19"/><path class="i" d="M33.63,15.41s-.03,0-.03.01c-.03-.05-.06-.1-.09-.15.05.04.08.08.12.13"/><path class="i" d="M39.1,14.93c-.03.06-.06.12-.08.19,0,0-.01,0-.01,0,.03-.06.06-.12.1-.18"/><path class="i" d="M39.1,14.93c-.03.06-.06.12-.08.19,0,0-.01,0-.01,0,.03-.06.06-.12.1-.18"/><path class="h" d="M46.1,22.18c-.03-.13-.06-.26-.09-.39,2.95-1.24,9.68-5.27,8.63-15.59,0,0-1.54-.26-3.71-.02-3.56.4-8.84,2.18-11.84,8.74-.03.06-.07.12-.1.18-.13-.02-.26-.05-.39-.07.03-.07.05-.13.08-.19,3.08-7.85,8.76-10.47,13.07-11.27,0,0,.01,0,.02,0,1.08-.17,2.24-.27,3.49-.27.71,0,1.44.04,2.21.1,1.42,13.96-9.29,18.12-11.37,18.79"/><path class="h" d="M39.02,15.11c.02-.06.05-.12.08-.19,2.4-4.59,6.12-6.27,9.07-6.85l.13-.03c.85-.13,1.73-.2,2.64-.2.52,0,1.06.02,1.67.08l.28.02.03.28c.85,8.3-4.02,12.07-6.91,13.56-.03-.11-.06-.22-.1-.33-.04-.14-.09-.28-.14-.42-.03-.11-.08-.23-.13-.33,2.25-1.46,4.99-4.42,4.52-10.04-.41-.05-1.29-.1-2.39.02-2.36.27-5.42,1.31-7.57,4.57,1.47-1.62,3.24-2.33,4.74-2.63l.15-.03c.92-.15,1.87-.18,2.93-.09l.29.02.03.28c.4,3.95-1.09,6.4-2.71,7.85-.04-.11-.09-.22-.14-.32-.08-.19-.18-.38-.28-.56-.06-.11-.12-.21-.19-.32,0,0-1.32-2.31-3.74-3.52-.11-.06-.22-.12-.34-.17-.17-.08-.35-.16-.54-.23-.1-.04-.21-.08-.31-.11,0-.01-.02-.01-.03-.01-.1-.04-.2-.08-.3-.1-.13-.04-.27-.08-.4-.12-.11-.03-.22-.05-.33-.08"/><path class="h" d="M38.62,4.67c0,1.19-.97,2.16-2.16,2.16s-2.16-.97-2.16-2.16.97-2.16,2.16-2.16,2.16.97,2.16,2.16"/><path class="h" d="M45.94,3.9c-4.48,1.85-7.03,6.19-8.82,10.44-.27.79-1.4.71-1.58-.09-1.2-4.63-4.4-8.72-8.99-10.35,2.37.25,4.49,1.35,6.2,2.93,0,0,0,0,0,0,.01.01.05.04.1.09,0,0,.02.02.03.02.64.56,3.62,2.78,7.39-.06,1.57-1.52,3.45-2.64,5.66-2.99"/><path class="i" d="M32.86,6.93c-.05-.05-.09-.08-.1-.09.03.03.07.06.1.09"/><path class="h" d="M17.32,21.63c1.19,0,2.16.97,2.16,2.16s-.97,2.16-2.16,2.16-2.16-.97-2.16-2.16.97-2.16,2.16-2.16"/><path class="h" d="M26.9,24.71c-4.63,1.2-8.73,4.4-10.35,8.99.25-2.37,1.35-4.49,2.93-6.2,0,0,.05-.04.12-.13,0,0,0,0,0,0,.56-.65,2.78-3.62-.06-7.39-1.52-1.57-2.64-3.44-2.99-5.66,1.85,4.49,6.19,7.03,10.44,8.82.79.27.71,1.4-.09,1.58"/><path class="i" d="M56.52,21.63c-1.19,0-2.16.97-2.16,2.16s.97,2.16,2.16,2.16,2.16-.97,2.16-2.16-.97-2.16-2.16-2.16"/><path class="h" d="M54.35,27.49c1.58,1.71,2.68,3.83,2.93,6.2-1.63-4.59-5.72-7.79-10.35-8.99-.81-.18-.88-1.31-.09-1.58,4.25-1.79,8.6-4.33,10.44-8.82-.35,2.22-1.47,4.1-2.99,5.66-2.85,3.77-.62,6.74-.06,7.39,0,0,.02.02.02.03.05.05.08.09.09.1h0"/><path class="i" d="M56.52,21.63c1.19,0,2.16.97,2.16,2.16s-.97,2.16-2.16,2.16-2.16-.97-2.16-2.16.97-2.16,2.16-2.16"/><path class="h" d="M83.77,24c0,4.31-3.49,7.8-7.79,7.8s-7.79-3.49-7.79-7.8,3.49-7.79,7.79-7.79,7.79,3.49,7.79,7.79"/><rect class="i" x="76.04" y="24.02" width="0" height="0" transform="translate(5.28 60.8) rotate(-45)"/><polygon class="i" points="76.04 24.02 76.04 24.03 76.03 24.02 76.04 24.02"/><path class="h" d="M73.88,15.1c-.03-.06-.06-.12-.1-.18-3-6.57-8.27-8.34-11.84-8.74-2.17-.24-3.71.02-3.71.02-1.05,10.32,5.69,14.34,8.63,15.59-.03.13-.06.26-.09.39-2.08-.67-12.8-4.82-11.37-18.79.77-.06,1.5-.1,2.21-.1,1.24,0,2.4.1,3.49.27,0,0,.01,0,.02,0,4.32.8,9.99,3.43,13.07,11.27.03.06.05.12.08.19-.13.02-.26.05-.39.07"/><path class="i" d="M73.88,15.1s0,0-.01,0c-.02-.06-.05-.12-.08-.19.04.06.07.12.1.18"/><path class="i" d="M72.83,15.41s-.03,0-.04.01c-.03-.05-.06-.1-.09-.15.05.04.08.08.12.13M73.88,15.1s0,0-.01,0c-.02-.06-.05-.12-.08-.19.04.06.07.12.1.18"/><path class="h" d="M73.86,15.11c-.11.03-.22.05-.33.08-.13.03-.27.08-.4.12-.1.03-.21.06-.3.1-.04-.05-.08-.09-.12-.13.03.05.06.1.09.15-.1.03-.21.07-.31.11-.19.07-.37.15-.54.23-.12.06-.23.11-.34.17-2.42,1.22-3.74,3.52-3.74,3.52-.07.1-.13.21-.19.32-.1.18-.19.37-.28.56-.05.1-.1.21-.14.32-1.62-1.46-3.11-3.9-2.71-7.85l.03-.28.29-.02c1.06-.09,2.01-.06,2.93.09l.15.03c1.5.3,3.27,1.01,4.74,2.63-2.15-3.26-5.21-4.3-7.57-4.57-1.1-.13-1.97-.07-2.39-.02-.48,5.62,2.26,8.58,4.52,10.04-.05.1-.09.22-.13.33-.06.14-.1.28-.14.42-.03.11-.07.22-.1.33-2.89-1.48-7.76-5.26-6.91-13.56l.03-.28.28-.02c.61-.06,1.15-.08,1.67-.08.9,0,1.79.07,2.64.2l.13.03c2.95.57,6.68,2.25,9.07,6.85.04.06.06.12.08.19"/><path class="i" d="M72.83,15.41s-.03,0-.04.01c-.03-.05-.06-.1-.09-.15.05.04.08.08.12.13"/><path class="i" d="M78.3,14.93c-.04.06-.06.12-.08.19,0,0-.01,0-.01,0,.03-.06.06-.12.1-.18"/><path class="i" d="M78.3,14.93c-.04.06-.06.12-.08.19,0,0-.01,0-.01,0,.03-.06.06-.12.1-.18"/><path class="i" d="M85.3,22.18c-.03-.13-.06-.26-.09-.39,2.95-1.24,9.68-5.27,8.63-15.59,0,0-1.54-.26-3.71-.02-3.56.4-8.84,2.18-11.84,8.74-.03.06-.07.12-.1.18-.13-.02-.26-.05-.39-.07.03-.07.05-.13.08-.19,3.08-7.85,8.76-10.47,13.07-11.27,0,0,.01,0,.02,0,1.08-.17,2.25-.27,3.49-.27.71,0,1.44.04,2.21.1,1.42,13.96-9.29,18.12-11.37,18.79"/><path class="i" d="M78.21,15.11c.02-.06.05-.12.08-.19,2.4-4.59,6.12-6.27,9.07-6.85l.13-.03c.85-.13,1.73-.2,2.64-.2.52,0,1.06.02,1.67.08l.28.02.03.28c.85,8.3-4.02,12.07-6.91,13.56-.03-.11-.06-.22-.1-.33-.04-.14-.09-.28-.14-.42-.04-.11-.08-.23-.13-.33,2.25-1.46,4.99-4.42,4.52-10.04-.41-.05-1.29-.1-2.39.02-2.36.27-5.42,1.31-7.57,4.57,1.47-1.62,3.24-2.33,4.74-2.63l.15-.03c.92-.15,1.87-.18,2.93-.09l.29.02.03.28c.4,3.95-1.09,6.4-2.71,7.85-.04-.11-.09-.22-.14-.32-.08-.19-.18-.38-.28-.56-.06-.11-.12-.21-.19-.32,0,0-1.32-2.31-3.74-3.52-.11-.06-.22-.12-.34-.17-.17-.08-.35-.16-.54-.23-.1-.04-.21-.08-.31-.11,0-.01-.02-.01-.04-.01-.1-.04-.2-.08-.3-.1-.13-.04-.27-.08-.4-.12-.11-.03-.22-.05-.33-.08"/><path class="h" d="M77.82,4.67c0,1.19-.97,2.16-2.16,2.16s-2.16-.97-2.16-2.16.97-2.16,2.16-2.16,2.16.97,2.16,2.16"/><path class="h" d="M85.14,3.9c-4.48,1.85-7.03,6.19-8.82,10.44-.27.79-1.4.71-1.58-.09-1.2-4.63-4.4-8.72-8.99-10.35,2.37.25,4.49,1.35,6.2,2.93h0s.05.05.1.1c0,0,.02.02.03.02.64.56,3.62,2.78,7.39-.06,1.57-1.52,3.45-2.64,5.66-2.99"/><path class="i" d="M72.06,6.93c-.05-.05-.09-.08-.1-.09.03.03.07.06.1.09"/><path class="h" d="M56.52,21.63c1.19,0,2.16.97,2.16,2.16s-.97,2.16-2.16,2.16-2.16-.97-2.16-2.16.97-2.16,2.16-2.16"/><path class="h" d="M66.1,24.71c-4.63,1.2-8.73,4.4-10.35,8.99.25-2.37,1.35-4.49,2.93-6.2,0,0,.05-.04.12-.13,0,0,0,0,0,0,.56-.65,2.78-3.62-.06-7.39-1.52-1.57-2.64-3.44-2.99-5.66,1.85,4.49,6.19,7.03,10.44,8.82.79.27.71,1.4-.09,1.58"/></g></g></g></g></svg>