<?xml version="1.0" encoding="UTF-8"?> <svg xmlns="http://www.w3.org/2000/svg" xmlns:xlink="http://www.w3.org/1999/xlink" width="1366" height="447" viewBox="0 0 1366 447"><defs><style>.a{fill:#2a395a;}.b{fill:#fbe77c;}.c{clip-path:url(#a);}.d{fill:#22325d;}</style><clipPath id="a"><rect class="a" width="736" height="447" rx="5" transform="translate(-0.245 115)"></rect></clipPath></defs><g transform="translate(7426 -1431)"><g transform="translate(-7426 1322)"><rect class="b" width="1366" height="447" transform="translate(0 109)"></rect><g class="c" transform="translate(630.245 -6)"><g transform="matrix(0.588, -0.809, 0.809, 0.588, 224.973, 697.013)"><path class="a" d="M911.614,421.244c-4.023-53.8-22.192-106.526-43.962-155.892a442.736,442.736,0,0,0-88.079-129.391A437.277,437.277,0,0,0,509.879,2.674,405.32,405.32,0,0,0,231.611,72.825a446.632,446.632,0,0,1,268.135-14.03A398.306,398.306,0,0,1,710.98,197.539,389.731,389.731,0,0,1,763.2,594.285a88.079,88.079,0,1,0-98.992,121.6h14.03l-33.517,28.84a389.738,389.738,0,0,1-106.786,56.9,401.42,401.42,0,0,1-243.971,0A410.776,410.776,0,0,1,90.528,651.965,447.409,447.409,0,0,1,12.582,395.522,408.439,408.439,0,0,0,44.54,681.585a441.174,441.174,0,0,0,90.418,121.6,454.419,454.419,0,0,0,129.391,84.962,467.678,467.678,0,0,0,311.785,19.486A473.913,473.913,0,0,0,831.017,723.676,500.413,500.413,0,0,0,898.05,578.7,455.99,455.99,0,0,0,912.081,422.8" transform="translate(0 0)"></path><path class="a" d="M21.289,426.814C58.651,520.35,136.336,589.066,234.861,609.988a257.222,257.222,0,0,0,177.717-29.62A291.518,291.518,0,0,1,249.671,560.1a264.238,264.238,0,0,1-113.8-98.212,242.412,242.412,0,0,1-24.163-211.234,83.979,83.979,0,1,0,97.433-103.669,77.944,77.944,0,0,0-23.384,0A243.192,243.192,0,0,1,389.974,101a269.7,269.7,0,0,1,130.17,77.946A303.99,303.99,0,0,1,598.87,322.366a258,258,0,0,0-31.958-177.717A292.3,292.3,0,0,0,420.373,19.935,304.769,304.769,0,0,0,221.61,13.7,314.684,314.684,0,0,0,.243,327.043a330.5,330.5,0,0,0,21.045,99.771" transform="translate(98.079 123.041)"></path></g></g></g><g transform="translate(-7338.72 1560.126)"><path class="d" d="M33.661,33.421a14.385,14.385,0,0,1-.763,1.253c-2.615,3.8-6.738,6.193-13,6.193C8.16,40.868,2.33,32.15,2.33,21.2,2.33,10.645,8.2,1.11,20.075,1.11c6.775,0,11.025,2.815,13.386,6.829l-4.795,2.488a9.227,9.227,0,0,0-8.773-4.6C11.666,5.832,8.342,13.315,8.342,21s3.124,15.22,11.788,15.22a9.081,9.081,0,0,0,8.845-5.1Z" transform="translate(1.902 0.906)"></path><path class="d" d="M26.522,21.661c0,6.085,2.961,10.371,7.792,10.371s7.7-4.1,7.7-10.353S39.236,11.2,34.187,11.2s-7.665,3.978-7.665,10.462m21.105,0c0,8.264-4.777,14.93-13.495,14.93-8.246,0-13.2-6.284-13.222-14.821s4.9-14.93,13.531-14.93c7.973,0,13.168,5.9,13.186,14.821" transform="translate(17.068 5.583)"></path><path class="d" d="M38.091,14.766V7.5h5.267c0,.835.218,2.815.2,4.2a8.791,8.791,0,0,1,8.191-4.868A7.737,7.737,0,0,1,59.432,11.7,9.7,9.7,0,0,1,68.4,6.756c4.668,0,8.954,2.8,8.954,10.425V35.835H71.91v-18c0-3.142-1.144-6.43-5.34-6.43s-6.23,3.233-6.23,8.137V35.889H54.891V18.108c0-3.505-.981-6.593-5.213-6.593s-6.23,3.269-6.23,8.573V35.835H38Z" transform="translate(31.018 5.504)"></path><path class="d" d="M62.309,14.769V7.5h5.249c0,.835.218,2.815.218,4.2a8.791,8.791,0,0,1,8.173-4.868A7.737,7.737,0,0,1,83.632,11.7a9.7,9.7,0,0,1,9.081-4.94c4.668,0,8.936,2.8,8.954,10.425V35.837H96.219v-18c0-3.142-1.126-6.448-5.322-6.43s-6.23,3.233-6.23,8.137V35.892H79.218V18.111c0-3.505-.981-6.593-5.213-6.593s-6.357,3.36-6.357,8.664V35.928H62.2Z" transform="translate(50.772 5.501)"></path><path class="d" d="M91.792,21.55c0,6.085,2.961,10.389,7.81,10.389s7.683-4.123,7.683-10.262-2.761-10.407-7.81-10.407-7.683,3.978-7.683,10.371m21.105,0c0,8.264-4.759,14.93-13.495,14.93-8.246,0-13.2-6.284-13.222-14.821s4.9-14.93,13.549-14.93c7.955,0,13.168,5.9,13.168,14.821" transform="translate(70.346 5.567)"></path><path class="d" d="M103.26,14.583V7.427h5.3c.145.817.218,3.633.218,4.468a8.809,8.809,0,0,1,8.791-5.14c5.449,0,9.445,3.378,9.445,10.9V35.815h-5.449V18.27c0-4.068-1.562-6.866-5.721-6.866-4.958,0-7.065,3.633-7.065,9.227v15.2h-5.449Z" transform="translate(84.288 5.487)"></path><path class="d" d="M123.62,7.1c3.342,12.95,5.231,20.36,5.739,23.394h0c.527-2.743,2.289-9.317,6.194-23.394h5.285c4.214,15.674,5.449,20.233,5.921,22.885h0c.672-3.015,1.816-7.265,5.957-22.885h5.449L149.5,35.507h-5.885c-2.688-10.425-5.14-19.271-5.739-22.467h0c-.49,3.2-2.833,11.406-5.9,22.467h-5.994L117.79,7.1Z" transform="translate(96.149 5.796)"></path><path class="d" d="M160.443,18.909c0-4.4-2.216-7.973-6.866-7.973s-6.811,3.324-7.265,7.992Zm-14.294,3.742c0,5.34,2.706,9.317,7.265,9.317a6.157,6.157,0,0,0,6.484-4.123h5.449a11.7,11.7,0,0,1-12.133,8.627c-9.081,0-12.714-7.265-12.714-14.53,0-8.536,4.3-15.2,13.023-15.2,9.263,0,12.332,7.265,12.332,13.549a20.354,20.354,0,0,1-.091,2.361Z" transform="translate(114.686 5.502)"></path><path class="d" d="M174.556,22.14h-4.377c-5.449,0-8.246,1.544-8.246,5.3a4.722,4.722,0,0,0,4.613,4.868,4.159,4.159,0,0,0,.672,0c6.466,0,7.265-4.4,7.265-9.281Zm5.34,7.265a47.363,47.363,0,0,0,.381,6.43h-5.213a14.527,14.527,0,0,1-.454-3.542c-1,1.816-3.2,4.214-8.591,4.214-6.72,0-9.59-4.4-9.59-8.718,0-6.375,5.013-9.3,13.422-9.3h4.686V16.183c0-2.416-.781-5.267-5.776-5.267-4.45,0-5.231,2.18-5.721,4.359h-5.267c.381-4.141,2.942-8.573,11.17-8.555,7.065,0,10.9,2.888,10.9,9.408Z" transform="translate(127.689 5.485)"></path><path class="d" d="M177.376,10.8h4.795V2.55h5.449V10.8h6.121v4.359H187.62V31.3c0,2.634.654,3.941,3.178,3.941a11.35,11.35,0,0,0,2.343-.2v4.032a14.531,14.531,0,0,1-4.432.527c-4.632,0-6.575-2.434-6.575-7.265V15.173h-4.8Z" transform="translate(144.758 2.081)"></path><path class="d" d="M194.219.19V16.736a9.408,9.408,0,0,1,8.718-4.686c4.686,0,9.535,2.615,9.535,10.9V41.111h-5.449V23.856c0-4.613-1.816-7.156-5.867-7.156-4.958,0-6.938,3.36-6.938,9.081V41.22H188.77V.208Z" transform="translate(154.088 0.155)"></path><path class="d" d="M301.456,10.6h4.795V2.35H311.7V10.6h6.121v4.377H311.7V31.12c0,2.634.654,3.941,3.178,3.941a10.152,10.152,0,0,0,2.343-.218v4.032a13.548,13.548,0,0,1-4.432.527c-4.632,0-6.575-2.416-6.575-7.265V14.973H301.42Z" transform="translate(246.041 1.918)"></path><path class="d" d="M305.146,21.914h-4.359c-5.449,0-8.264,1.544-8.264,5.3a4.722,4.722,0,0,0,4.6,4.868,3.942,3.942,0,0,0,.654,0c6.466,0,7.265-4.4,7.265-9.281Zm5.34,7.265a47.385,47.385,0,0,0,.381,6.43h-5.231a15.516,15.516,0,0,1-.454-3.542c-1,1.816-3.178,4.214-8.591,4.214-6.72,0-9.572-4.4-9.572-8.718,0-6.375,5.013-9.3,13.4-9.3h4.722V15.975c0-2.416-.781-5.267-5.776-5.267-4.45,0-5.231,2.18-5.721,4.359h-5.267c.4-4.123,2.942-8.573,11.188-8.536,7.047,0,10.9,2.87,10.9,9.39Z" transform="translate(234.286 5.33)"></path><path class="d" d="M276.154,26.863c0,6.611,3.051,10.189,7.374,10.189,6.393,0,7.7-4.849,7.683-10.662s-1.181-9.953-7.265-9.953c-4.831,0-7.737,3.832-7.737,10.425M296.46,0V40.939h-5.122a33.892,33.892,0,0,1-.272-3.832c-1.4,2.833-4.177,4.5-8.754,4.5-7.265,0-11.751-5.885-11.751-14.53s4.831-15.166,12.714-15.166c4.831,0,7.065,1.816,7.792,3.451V0Z" transform="translate(220.851)"></path><path class="d" d="M262.989,27.052v8.282h-5.34c-.091-.745-.163-2.434-.182-4.068-1.453,3.088-4.141,4.74-8.428,4.74-4.977,0-9.39-2.6-9.39-10.425V6.91H245.1V24.4c0,3.633,1.126,6.9,5.576,6.9,4.9,0,6.811-2.706,6.811-9.517V6.91h5.449Z" transform="translate(195.62 5.64)"></path><path class="d" d="M228.522,21.4c0,6.066,2.961,10.371,7.792,10.371s7.7-4.123,7.7-10.353-2.779-10.444-7.81-10.444-7.683,4.032-7.683,10.425m21.105,0c0,8.264-4.759,14.948-13.495,14.948-8.246,0-13.2-6.3-13.222-14.839s4.9-14.93,13.531-14.93c7.973,0,13.168,5.921,13.186,14.821" transform="translate(181.955 5.371)"></path><path class="d" d="M255.16,14.388V7.214h5.322c.145.835.218,3.633.218,4.486a8.809,8.809,0,0,1,8.7-5.158c5.449,0,9.463,3.378,9.463,10.9V35.6h-5.449V18.075c0-4.087-1.562-6.866-5.721-6.866-4.958,0-7.047,3.633-7.047,9.227v15.2H255.2Z" transform="translate(208.28 5.319)"></path><path class="d" d="M210.14,1.2H235.4V6.068H215.789V18.073l12.986.036v4.868l-12.986-.036V39.959H210.14Z" transform="translate(171.531 0.98)"></path><path class="d" d="M313.28,0h5.449V6.3H313.28Zm0,12.514h5.449V40.939H313.28Z" transform="translate(255.722)"></path><path class="d" d="M335.65,14.362V7.206h5.322c.127.817.218,3.633.218,4.45a8.827,8.827,0,0,1,8.773-5.122c5.449,0,9.463,3.378,9.463,10.9V35.595h-5.449V18.049c0-4.087-1.562-6.866-5.721-6.847-4.94,0-7.065,3.633-7.047,9.209v15.2h-5.449Z" transform="translate(273.982 5.308)"></path><path class="d" d="M324.22,21.371c0,6.085,2.942,10.371,7.792,10.371s7.683-4.1,7.683-10.353S336.934,11,331.975,11s-7.683,3.978-7.683,10.371m21.105,0c0,8.264-4.777,14.93-13.495,14.93-8.246,0-13.222-6.284-13.222-14.821s4.9-14.93,13.531-14.93c7.955,0,13.168,5.9,13.168,14.821" transform="translate(260.13 5.347)"></path><rect class="d" width="5.467" height="40.939" transform="translate(312.453 0.363)"></rect><path class="d" d="M37.924,31.14c32.566,0,33.419,25.718,33.419,50.347A2.016,2.016,0,0,1,69.2,83.558H49.221a2.016,2.016,0,0,1-2-2.071c0-16.492-.636-25.065-10.28-25.065-9.208,0-13.277,15.2-13.277,41.139-.054,25.264,3.978,40.485,13.186,40.485,9.844,0,10.371-8.573,10.371-25.065a2.016,2.016,0,0,1,2.052-2.179H69.254a2.016,2.016,0,0,1,2.143,2.143c0,24.629-.854,50.347-33.419,50.347C6.212,163.328,0,126.476,0,97.561,0,67.992,6.212,31.14,37.924,31.14Z" transform="translate(0 25.419)"></path><path class="d" d="M102.147,115.017c10.9,8.791,10.716,22.068,10.716,31.93v11.134a2.016,2.016,0,0,1-2.143,2.143H91.431a2.034,2.034,0,0,1-2.143-2.143V146.947c0-19.725-11.352-19.071-11.352-19.071h-4.5a2.016,2.016,0,0,0-2.125,2.143v28.061a2.034,2.034,0,0,1-2.143,2.143h-19.2a2.016,2.016,0,0,1-2.143-2.143V34.465a2.016,2.016,0,0,1,2.143-2.143H70.435c24.865,0,42.428,18.163,42.428,46.7,0,19.725-7.5,29.569-10.9,33.22C100.821,113.31,100.821,114.163,102.147,115.017ZM71.27,101.522c0,1.29.854,2.361,2.125,2.143,5.449-.854,17.582-4.722,17.582-23.612S78.789,57.169,73.431,56.315c-1.271-.218-2.125.854-2.125,2.143Z" transform="translate(39.032 26.38)"></path><path class="d" d="M92.122,34.465a2.016,2.016,0,0,1,2.143-2.143h55.269a2.016,2.016,0,0,1,2.143,2.143V54.172a2.016,2.016,0,0,1-2.143,2.143H117.822a2.016,2.016,0,0,0-2.143,2.143V82.451a1.925,1.925,0,0,0,2.143,2.143h31.712a2.016,2.016,0,0,1,2.143,2.143v19.47a2.016,2.016,0,0,1-2.143,2.125H117.822a1.925,1.925,0,0,0-2.143,2.143v23.612a2.016,2.016,0,0,0,2.143,2.143h31.712a2.016,2.016,0,0,1,2.143,2.143v19.707a2.016,2.016,0,0,1-2.143,2.143H94.265a2.016,2.016,0,0,1-2.143-2.143Z" transform="translate(75.193 26.38)"></path><path class="d" d="M198,157.824a1.925,1.925,0,0,1-1.925,2.361H176.292c-1.29,0-1.925-.436-2.143-1.925l-1.58-12.133c-.218-1.489-.854-1.925-2.143-1.925h-11.57c-1.29,0-1.925.436-2.143,1.925l-1.925,12.224c-.218,1.489-.854,1.925-2.143,1.925H133.228a1.925,1.925,0,0,1-1.925-2.361L149.465,34.3c.218-1.489.854-1.925,2.143-1.925h25.065a1.962,1.962,0,0,1,2.143,1.925Zm-29.424-33.855a1.925,1.925,0,0,0,1.925-2.343l-4.7-32.784a1.29,1.29,0,0,0-2.579,0l-4.7,32.784a2.071,2.071,0,0,0,2.143,2.343Z" transform="translate(107.138 26.419)"></path><path class="d" d="M189.061,160.222a1.816,1.816,0,0,1-1.707-1.707V54.824a1.671,1.671,0,0,0-1.508-1.816h-15.42A1.816,1.816,0,0,1,168.61,51.3V34.028a1.816,1.816,0,0,1,1.816-1.707h57.848a1.453,1.453,0,0,1,1.489,1.508V51.391a1.653,1.653,0,0,1-1.489,1.707H212.419a1.489,1.489,0,0,0-1.508,1.508V158.515a1.653,1.653,0,0,1-1.489,1.707Z" transform="translate(137.632 26.382)"></path><path class="d" d="M208.65,34.028a1.816,1.816,0,0,1,1.707-1.707H230.5a1.653,1.653,0,0,1,1.707,1.507V158.715a1.471,1.471,0,0,1-1.489,1.508h-20.36a1.816,1.816,0,0,1-1.707-1.707Z" transform="translate(170.315 26.381)"></path><path class="d" d="M292.7,32.321c1.072,0,1.725.636,1.507,1.707L274.921,158.715a1.816,1.816,0,0,1-1.707,1.508h-20.56a1.816,1.816,0,0,1-1.725-1.508l-22.9-124.687c-.218-1.271.218-1.707,1.29-1.707H249.82a1.816,1.816,0,0,1,1.725,1.508l9.426,68.328c.218,1.29,1.489,1.072,1.707,0L270.4,33.828a1.653,1.653,0,0,1,1.707-1.508Z" transform="translate(186.085 26.381)"></path><path class="d" d="M270.812,34.466a2.016,2.016,0,0,1,2.161-2.143h55.269a2.016,2.016,0,0,1,2.143,2.143V54.172a2.016,2.016,0,0,1-2.143,2.143H296.585a2.016,2.016,0,0,0-2.143,2.143V82.452a1.925,1.925,0,0,0,2.143,2.143H328.3a2.016,2.016,0,0,1,2.143,2.143v19.47a2.016,2.016,0,0,1-2.143,2.125H296.585a1.925,1.925,0,0,0-2.143,2.143v23.612a2.016,2.016,0,0,0,2.143,2.143H328.3a2.016,2.016,0,0,1,2.143,2.143v19.707a2.016,2.016,0,0,1-2.143,2.143H272.973a2.016,2.016,0,0,1-2.143-2.143Z" transform="translate(221.053 26.379)"></path><path class="d" d="M315.925,135.467V118.975a1.816,1.816,0,0,1,1.707-1.707h20.36a1.653,1.653,0,0,1,1.707,1.489v16.71a7.828,7.828,0,0,0,7.937,8.028,7.447,7.447,0,0,0,7.5-7.937V113.2a4.413,4.413,0,0,0-4.5-4.5h-10.9c-28.279,0-27.626-28.061-27.626-28.061V59s0-27.862,31.494-27.862S375.1,59,375.1,59V75.493a1.653,1.653,0,0,1-1.508,1.707H352.777a1.653,1.653,0,0,1-1.508-1.707V59a7.828,7.828,0,0,0-7.919-7.937,7.447,7.447,0,0,0-7.5,7.937V80.633a4.413,4.413,0,0,0,4.5,4.486l14.53.218C379.512,87.7,378.877,113.2,378.877,113.2v22.267s0,27.862-31.494,27.862S315.925,135.467,315.925,135.467Z" transform="translate(254.766 25.419)"></path></g></g></svg> 