<?xml version="1.0" encoding="UTF-8"?> <svg xmlns="http://www.w3.org/2000/svg" xmlns:xlink="http://www.w3.org/1999/xlink" width="204.486" height="58.046" viewBox="0 0 204.486 58.046"><defs><style>.a{fill:#214c59;}.b{clip-path:url(#a);}</style><clipPath id="a"><path class="a" d="M0-25.873H204.486V-83.919H0Z" transform="translate(0 83.919)"></path></clipPath></defs><g transform="translate(0 83.92)"><g class="b" transform="translate(0 -83.919)"><g transform="translate(0 2.476)"><path class="a" d="M-3.985,0a8.642,8.642,0,0,0-8.939,8.734v19.4c0,5.363,3.546,8.836,9.027,8.836a8.888,8.888,0,0,0,8.734-9.027V25.1H-1.8v2.4c0,1.876-.777,2.814-2.286,2.814-1,0-2.184-.44-2.184-2.565V9.7c0-2.227.6-3.063,2.227-3.063.528,0,2.242.22,2.242,3.063v2.214H4.837V9.555A9.257,9.257,0,0,0,2.361,2.638,8.733,8.733,0,0,0-3.985,0" transform="translate(12.924 0.001)"></path></g><g transform="translate(20.135 5.392)"><path class="a" d="M-5.957-2.961A6.508,6.508,0,0,0-12.638-9.6a6.51,6.51,0,0,0-6.684,6.639V10.126a6.516,6.516,0,0,0,6.684,6.638,6.552,6.552,0,0,0,4.748-1.9,6.552,6.552,0,0,0,1.933-4.736Zm-5.173,13.013a1.4,1.4,0,0,1-1.508,1.54,1.4,1.4,0,0,1-1.509-1.538V-2.932a1.4,1.4,0,0,1,.4-1.091,1.4,1.4,0,0,1,1.083-.418,1.424,1.424,0,0,1,1.126.412A1.424,1.424,0,0,1-11.131-2.9Z" transform="translate(19.322 9.6)"></path></g><g transform="translate(75.41 3.779)"><path class="a" d="M-5.124-7.567V-18.822a5.611,5.611,0,0,0-1.653-4.084,5.611,5.611,0,0,0-4.092-1.632,5.611,5.611,0,0,0-4.092,1.632,5.611,5.611,0,0,0-1.652,4.084V-7.567a5.594,5.594,0,0,0,1.647,4.089,5.594,5.594,0,0,0,4.1,1.626,5.672,5.672,0,0,0,5.744-5.6v-.118m-7.049-.059V-18.793a1.2,1.2,0,0,1,.345-.935,1.2,1.2,0,0,1,.931-.355,1.21,1.21,0,0,1,.969.35,1.21,1.21,0,0,1,.348.97V-7.626a1.206,1.206,0,0,1-1.289,1.334,1.217,1.217,0,0,1-.963-.362,1.217,1.217,0,0,1-.341-.971" transform="translate(16.614 24.539)"></path></g></g><g transform="translate(35.712 -74.937)"><path class="a" d="M-4.86-5.4V5.243H-.7V-17.5H-4.611L-8.231-6.993-11.879-17.5h-3.884V5.243H-11.6V-5.366l2.2,6.741h2.316Z" transform="translate(15.763 17.5)"></path></g><g transform="translate(53.444 -79.04)"><path class="a" d="M-2.371-6.931.457,1.715h2.96L6.29-6.974V6.669h5.319V-22.479H6.6L1.952-9.026-2.722-22.479H-7.691V6.669h5.32Z" transform="translate(7.691 22.479)"></path></g><g transform="translate(89.699 -81.443)"><path class="a" d="M-2.084-6.008,2.342,6.109H6.635v-25.6H1.96v12.1l-4.352-12.1H-6.759v25.6h4.675Z" transform="translate(6.759 19.491)"></path></g><g transform="translate(105.57 -83.92)"><path class="a" d="M-8.348,0-9.93,14.963-12.612,0h-4.382l-2.579,14.582L-21.214,0h-5.862l4.543,30.554H-17.4L-14.8,14.947l2.638,15.606h5.129L-2.486,0Z" transform="translate(27.076)"></path></g><g transform="translate(131.346 -80.315)"><path class="a" d="M-5-9.008H-11.68v-5.773h5.832V-19.1H-11.68v-5.788H-5v-4.323H-16.208V-4.479H-5Z" transform="translate(16.208 29.216)"></path></g><g transform="translate(144.653 -79.362)"><path class="a" d="M-2.456,0l-5.51,24.692h4.558l1-5.056H1.237l1,5.056H6.791L1.266,0Zm.85,15.328,1-5.158,1,5.158Z" transform="translate(7.966)"></path></g><g transform="translate(161.211 -79.611)"><path class="a" d="M-5.665-10.21h-7.591v-22.9h-5.115V-5.1H-5.665Z" transform="translate(18.372 33.114)"></path></g><g transform="translate(172.32 -77.589)"><path class="a" d="M0-2.182H4.425V20.943h5.13V-2.182H13.98V-7.076H0Z" transform="translate(0 7.076)"></path></g><g transform="translate(188.542 -83.114)"><path class="a" d="M-4.448,0V13.336H-8.464V0h-5.964V32.636h5.964V18.772h4.015V32.636H1.516V0Z" transform="translate(14.428)"></path></g><g class="b" transform="translate(0 -83.919)"><g transform="translate(18.743 35.111)"><path class="a" d="M-4-.483a5.278,5.278,0,0,0-3.3-1.085c-3.355,0-5.525,2.389-5.525,6.082,0,2.813.908,4.5,2.96,5.451.615.293,1.29.557,1.876.806l1.056.426c.688.322.864.469.864,2.242a6.184,6.184,0,0,1-.118,1.539c-.117.41-.365.747-1.275.747a1.235,1.235,0,0,1-.991-.356,1.235,1.235,0,0,1-.355-.991V12.807h-4.162v1.539a5.238,5.238,0,0,0,1.935,4.308,5.815,5.815,0,0,0,3.575,1.217c2.52,0,5.539-1.129,5.539-6.492,0-2.52-.233-4.719-3.239-5.949l-1.553-.616-.426-.161C-8.526,6.1-8.673,6.037-8.673,4.513s.615-1.935,1.262-1.935,1.348.22,1.348,1.846V5.612h4.146V3.678A5.049,5.049,0,0,0-4-.483" transform="translate(12.966 1.569)"></path></g></g><g transform="translate(31.668 -49.262)"><path class="a" d="M-2.338-3.122H-4.156v-7H-7.585V7.326h3.429V.043h1.817V7.326H1.091V-10.127H-2.338Z" transform="translate(7.585 10.127)"></path></g><g class="b" transform="translate(0 -83.919)"><g transform="translate(42.497 34.304)"><path class="a" d="M-2.073,0A4.535,4.535,0,0,0-5.386,1.319,4.535,4.535,0,0,0-6.718,4.628V13.8A4.535,4.535,0,0,0-5.386,17.11a4.535,4.535,0,0,0,3.313,1.322,4.588,4.588,0,0,0,4.661-4.513V4.628A4.547,4.547,0,0,0,1.246,1.317,4.547,4.547,0,0,0-2.073,0M-.988,4.672v9.086a1.016,1.016,0,0,1-.283.809,1.016,1.016,0,0,1-.8.3,1.016,1.016,0,0,1-.8-.3,1.016,1.016,0,0,1-.284-.81V4.642A1.026,1.026,0,0,1-2.2,3.559a.928.928,0,0,1,.105,0,1.021,1.021,0,0,1,.809.3,1.021,1.021,0,0,1,.29.813" transform="translate(6.719 0.004)"></path></g><g transform="translate(53.62 37.441)"><path class="a" d="M-4.024-2.391c0-3.458-1.656-5.363-4.645-5.363h-4.382V9.758h3.444V2.753h.469l2.183,7.005h3.649L-5.943,1.947c1.3-.894,1.92-2.286,1.92-4.337m-3.444-.1a2.985,2.985,0,0,1-.015.351c0,.118-.015.249-.015.365C-7.541-.618-7.966-.415-8.875-.415h-.732V-4.442h.659c1.276,0,1.48.454,1.48,1.949" transform="translate(13.051 7.754)"></path></g></g><g transform="translate(63.644 -47.05)"><path class="a" d="M0,0V4H3.283V21.173H7.445V4h3.3V0Z"></path></g><g class="b" transform="translate(0 -83.919)"><g transform="translate(78.869 29.894)"><path class="a" d="M-4.011-.483A5.353,5.353,0,0,0-7.323-1.568c-3.37,0-5.54,2.389-5.54,6.1,0,2.814.923,4.513,2.975,5.481.615.279,1.29.557,1.876.792l1.056.425c.688.322.864.484.864,2.257a7.024,7.024,0,0,1-.1,1.538c-.1.41-.381.748-1.289.748a1.235,1.235,0,0,1-.992-.356,1.235,1.235,0,0,1-.355-.992V12.852h-4.177V14.4a5.264,5.264,0,0,0,1.935,4.308,5.879,5.879,0,0,0,3.591,1.232c2.535,0,5.569-1.143,5.569-6.521,0-2.535-.25-4.733-3.255-5.964l-1.566-.616-.423-.176c-1.4-.541-1.541-.6-1.541-2.139,0-1.935.821-1.935,1.26-1.935s1.349.205,1.349,1.847V5.629h4.176V3.693a5.07,5.07,0,0,0-2.1-4.176" transform="translate(13.009 1.569)"></path></g></g><g transform="translate(91.003 -52.559)"><path class="a" d="M0-1.431H2.637V12.387H5.992V-1.431H8.63V-4.64H0Z" transform="translate(0 4.64)"></path></g><g class="b" transform="translate(0 -83.919)"><g transform="translate(101.072 29.747)"><path class="a" d="M-1.788,0A3.916,3.916,0,0,0-4.646,1.134,3.916,3.916,0,0,0-5.8,3.983v7.9a3.916,3.916,0,0,0,1.156,2.851,3.916,3.916,0,0,0,2.859,1.135,3.942,3.942,0,0,0,4-3.883v-8A3.912,3.912,0,0,0,1.064,1.137,3.912,3.912,0,0,0-1.788,0m.923,4.03v7.811a.87.87,0,0,1-.241.69.87.87,0,0,1-.682.263.881.881,0,0,1-.688-.261.881.881,0,0,1-.25-.692V4a.879.879,0,0,1,.215-.638.879.879,0,0,1,.6-.3.79.79,0,0,1,.091,0,.883.883,0,0,1,.7.26.883.883,0,0,1,.249.707" transform="translate(5.802 0.004)"></path></g><g transform="translate(110.787 32.782)"><path class="a" d="M-3.625-2.155c0-3.122-1.495-4.836-4.191-4.836h-3.942V8.776h3.106V2.461h.41l1.978,6.316h3.283L-5.355,1.758A4.357,4.357,0,0,0-3.625-2.155m-3.107-.1a2.286,2.286,0,0,1-.015.322v.323C-6.805-.558-7.186-.382-8.007-.382h-.644V-4.017h.587c1.143,0,1.333.426,1.333,1.76" transform="translate(11.758 6.991)"></path></g></g><g transform="translate(118.831 -50.992)"><path class="a" d="M-2.267-2.281-3.747-7.394h-3.6l3.4,9.965V9.854H-.567V2.571l3.4-9.965H-.787Z" transform="translate(7.352 7.394)"></path></g><g class="b" transform="translate(0 -83.919)"><g transform="translate(134.556 31.111)"><path class="a" d="M-2.594,0H-8.411V24.458H-3.6V15.5h.762c3.488,0,4.821-1.48,5.671-2.916a9.074,9.074,0,0,0,.952-4.836c0-2.844-.439-4.484-1.509-5.686A5.939,5.939,0,0,0-2.594,0m1.76,7.019V8.529c0,2.126-.615,2.358-1.92,2.358H-3.6V4.617h1.04c1.334,0,1.729.542,1.729,2.4" transform="translate(8.411)"></path></g><g transform="translate(148.053 31.844)"><path class="a" d="M-4.625-2.75c0-3.986-1.9-6.169-5.348-6.169H-15V11.186h3.956V3.141h.528L-8,11.186H-3.8L-6.837,2.232C-5.328,1.192-4.625-.4-4.625-2.75m-3.956-.133c0,.133-.015.266-.015.411a3.865,3.865,0,0,0-.015.41c-.058,1.334-.543,1.569-1.6,1.569h-.836V-5.124h.748c1.48,0,1.715.528,1.715,2.242" transform="translate(15 8.919)"></path></g></g><path class="a" d="M231.907-33.729h3.678v18.734h-3.678Z" transform="translate(-71.501 -15.475)"></path><g transform="translate(166.224 -49.204)"><path class="a" d="M-.1-1.5H3.94L-.339,10.207v2.77H7.9V9.605H3.53L7.9-2.308V-4.873h-8Z" transform="translate(0.339 4.873)"></path></g><g transform="translate(176.614 -47.734)"><path class="a" d="M0-9.091H9.452v-4.015H4.015v-4.337H8.749V-21.3H4.015v-4.351H9.452V-29.5H0Z" transform="translate(0 29.5)"></path></g></g></svg> 