<?xml version="1.0" encoding="UTF-8"?> <svg xmlns="http://www.w3.org/2000/svg" xmlns:xlink="http://www.w3.org/1999/xlink" width="423.377" height="120.182" viewBox="0 0 423.377 120.182"><defs><style>.a{fill:#fff;}.b{clip-path:url(#a);}</style><clipPath id="a"><path class="a" d="M0,36.261H423.377V-83.919H0Z" transform="translate(0 83.919)"></path></clipPath></defs><g class="b" transform="translate(0 0.001)"><g transform="translate(0 5.126)"><path class="a" d="M5.584,0C-4.975,0-12.924,7.771-12.924,18.083V58.255c0,11.1,7.342,18.294,18.69,18.294,9.982,0,18.083-8.374,18.083-18.69V51.974H10.105V56.95c0,3.884-1.608,5.826-4.733,5.826-2.063,0-4.521-.911-4.521-5.31V20.085c0-4.611,1.243-6.342,4.611-6.342,1.093,0,4.643.455,4.643,6.342v4.583H23.849V19.785c0-6.19-1.516-10.469-5.127-14.321A18.082,18.082,0,0,0,5.584,0" transform="translate(12.924 0.001)"></path></g><g transform="translate(41.689 11.164)"><path class="a" d="M8.349,4.146A13.474,13.474,0,0,0-5.484-9.6,13.479,13.479,0,0,0-19.322,4.146v27.1A13.491,13.491,0,0,0-5.484,44.985a13.565,13.565,0,0,0,9.83-3.94,13.565,13.565,0,0,0,4-9.8ZM-2.362,31.089a2.9,2.9,0,0,1-3.122,3.188,2.9,2.9,0,0,1-3.125-3.185V4.206a2.9,2.9,0,0,1,.819-2.26,2.9,2.9,0,0,1,2.243-.865,2.949,2.949,0,0,1,2.332.854,2.949,2.949,0,0,1,.853,2.332Z" transform="translate(19.322 9.6)"></path></g><g transform="translate(156.132 7.824)"><path class="a" d="M7.176,10.6V-12.7a11.618,11.618,0,0,0-3.421-8.455,11.618,11.618,0,0,0-8.472-3.379,11.617,11.617,0,0,0-8.472,3.379A11.617,11.617,0,0,0-16.611-12.7V10.6a11.581,11.581,0,0,0,3.41,8.466,11.581,11.581,0,0,0,8.483,3.367A11.744,11.744,0,0,0,7.176,10.843V10.6m-14.594-.122v-23.12A2.494,2.494,0,0,1-6.7-14.577a2.494,2.494,0,0,1,1.928-.734,2.5,2.5,0,0,1,2.007.724,2.5,2.5,0,0,1,.721,2.008V10.478a2.5,2.5,0,0,1-2.67,2.761,2.52,2.52,0,0,1-1.995-.75,2.52,2.52,0,0,1-.706-2.011" transform="translate(16.614 24.539)"></path></g></g><g transform="translate(73.94 18.6)"><path class="a" d="M6.811,7.561V29.589h8.617V-17.5h-8.1L-.167,4.255-7.722-17.5h-8.041V29.589h8.619V7.622L-2.6,21.579H2.2Z" transform="translate(15.763 17.5)"></path></g><g transform="translate(110.653 10.104)"><path class="a" d="M3.323,9.713l5.856,17.9h6.129L21.256,9.623V37.87H32.269V-22.479H21.892L12.274,5.374,2.6-22.479H-7.691V37.87H3.323Z" transform="translate(7.691 22.479)"></path></g><g transform="translate(185.716 5.129)"><path class="a" d="M2.921,8.424l9.163,25.089h8.89v-53h-9.68V5.569L2.283-19.491H-6.759v53h9.68Z" transform="translate(6.759 19.491)"></path></g><g transform="translate(218.576 0)"><path class="a" d="M11.7,0,8.423,30.979,2.87,0H-6.2l-5.34,30.191L-14.939,0H-27.076l9.405,63.261h10.62l5.4-32.313L3.811,63.26H14.43L23.836,0Z" transform="translate(27.076)"></path></g><g transform="translate(271.945 7.465)"><path class="a" d="M7,12.624H-6.832V.671H5.244V-8.28H-6.832V-20.265H7v-8.951H-16.208V22H7Z" transform="translate(16.208 29.216)"></path></g><g transform="translate(299.495 9.436)"><path class="a" d="M3.442,0-7.966,51.124H1.47L3.533,40.657h7.555l2.063,10.467h9.436L11.148,0ZM5.2,31.736l2.063-10.68,2.063,10.68Z" transform="translate(7.966)"></path></g><g transform="translate(333.778 8.921)"><path class="a" d="M7.936,14.308H-7.781V-33.114H-18.372V24.9H7.936Z" transform="translate(18.372 33.114)"></path></g><g transform="translate(356.779 13.108)"><path class="a" d="M0,3.058H9.163V50.935H19.783V3.058h9.163V-7.076H0Z" transform="translate(0 7.076)"></path></g><g transform="translate(390.366 1.669)"><path class="a" d="M6.234,0V27.611H-2.079V0H-14.428V67.57H-2.079V38.865H6.234V67.57H18.583V0Z" transform="translate(14.428)"></path></g><g class="b" transform="translate(0 0.001)"><g transform="translate(38.806 72.694)"><path class="a" d="M5.6.679A10.929,10.929,0,0,0-1.224-1.568c-6.946,0-11.438,4.946-11.438,12.592,0,5.824,1.88,9.315,6.128,11.286,1.274.607,2.671,1.153,3.884,1.668l2.186.881c1.425.667,1.788.971,1.788,4.641a12.8,12.8,0,0,1-.243,3.186c-.242.849-.756,1.547-2.639,1.547A2.556,2.556,0,0,1-3.613,33.5a2.556,2.556,0,0,1-.736-2.053V28.2h-8.617v3.186A10.844,10.844,0,0,0-8.961,40.3a12.039,12.039,0,0,0,7.4,2.519c5.218,0,11.469-2.338,11.469-13.442,0-5.218-.481-9.77-6.705-12.317L-.01,15.788l-.881-.334c-2.883-1.153-3.186-1.274-3.186-4.43S-2.8,7.019-1.464,7.019s2.791.455,2.791,3.822V13.3H9.912V9.295A10.453,10.453,0,0,0,5.6.679" transform="translate(12.966 1.569)"></path></g></g><g transform="translate(65.566 71.757)"><path class="a" d="M3.278,4.376H-.485v-14.5h-7.1V26.009h7.1V10.929H3.278v15.08h7.1V-10.127h-7.1Z" transform="translate(7.585 10.127)"></path></g><g class="b" transform="translate(0 0.001)"><g transform="translate(87.987 71.025)"><path class="a" d="M2.9,0A9.39,9.39,0,0,0-6.717,9.586V28.581A9.39,9.39,0,0,0,2.9,38.167a9.5,9.5,0,0,0,9.649-9.343V9.586A9.414,9.414,0,0,0,2.9,0M5.146,9.677V28.488A2.1,2.1,0,0,1,2.9,30.794,2.1,2.1,0,0,1,.653,28.488V9.616A2.125,2.125,0,0,1,2.647,7.372a1.921,1.921,0,0,1,.218,0A2.113,2.113,0,0,1,5.141,9.678" transform="translate(6.719 0.004)"></path></g><g transform="translate(111.017 77.52)"><path class="a" d="M5.639,3.351c0-7.161-3.428-11.1-9.618-11.1h-9.072V28.5h7.13V14h.971L-.431,28.5H7.126L1.665,12.331c2.7-1.85,3.974-4.733,3.974-8.98m-7.13-.213a6.18,6.18,0,0,1-.03.728c0,.243-.03.516-.03.756-.091,2.4-.971,2.82-2.853,2.82H-5.921V-.9h1.364c2.641,0,3.065.941,3.065,4.036" transform="translate(13.051 7.754)"></path></g></g><g transform="translate(131.77 76.338)"><path class="a" d="M0,0V8.283H6.8V43.838h8.617V8.283H22.24V0Z"></path></g><g class="b" transform="translate(0 0.001)"><g transform="translate(163.294 61.893)"><path class="a" d="M5.621.679A11.083,11.083,0,0,0-1.236-1.568c-6.978,0-11.47,4.946-11.47,12.623,0,5.826,1.912,9.344,6.159,11.347,1.274.577,2.671,1.154,3.884,1.64l2.186.88c1.425.667,1.788,1,1.788,4.673A14.542,14.542,0,0,1,1.1,32.78c-.212.849-.789,1.548-2.67,1.548a2.556,2.556,0,0,1-2.053-.738,2.556,2.556,0,0,1-.736-2.054V28.289h-8.648V31.5A10.9,10.9,0,0,0-9,40.424a12.173,12.173,0,0,0,7.434,2.55c5.249,0,11.53-2.367,11.53-13.5,0-5.249-.517-9.8-6.74-12.349L-.023,15.848-.9,15.485c-2.888-1.12-3.19-1.245-3.19-4.43,0-4.005,1.7-4.005,2.609-4.005s2.793.425,2.793,3.824v2.46H9.96V9.325A10.5,10.5,0,0,0,5.621.679" transform="translate(13.009 1.569)"></path></g></g><g transform="translate(188.417 64.93)"><path class="a" d="M0,2H5.461V30.614h6.946V2h5.462V-4.64H0Z" transform="translate(0 4.64)"></path></g><g class="b" transform="translate(0 0.001)"><g transform="translate(209.263 61.589)"><path class="a" d="M2.509,0A8.107,8.107,0,0,0-5.8,8.252V24.6a8.107,8.107,0,0,0,8.313,8.253,8.163,8.163,0,0,0,8.283-8.04V8.252A8.1,8.1,0,0,0,2.509,0M4.421,8.342V24.515a1.8,1.8,0,0,1-1.912,1.972A1.825,1.825,0,0,1,.567,24.515V8.285A1.82,1.82,0,0,1,2.261,6.345a1.635,1.635,0,0,1,.188,0,1.827,1.827,0,0,1,1.972,2" transform="translate(5.802 0.004)"></path></g><g transform="translate(229.378 67.873)"><path class="a" d="M5.08,3.021C5.08-3.444,1.986-6.991-3.6-6.991h-8.161V25.655h6.432V12.578h.849l4.1,13.076h6.8L1.5,11.122c2.428-1.7,3.58-4.278,3.58-8.1m-6.433-.212a4.732,4.732,0,0,1-.03.667v.668c-.12,2.184-.909,2.549-2.609,2.549H-5.326V-.833h1.215c2.366,0,2.76.881,2.76,3.645" transform="translate(11.758 6.991)"></path></g></g><g transform="translate(246.034 68.176)"><path class="a" d="M3.177,3.193.111-7.394H-7.352l7.04,20.632V28.317H6.7V13.238L13.736-7.393H6.24Z" transform="translate(7.352 7.394)"></path></g><g class="b" transform="translate(0 0.001)"><g transform="translate(278.59 64.413)"><path class="a" d="M3.632,0H-8.411V50.639H1.54V32.1H3.119c7.221,0,9.982-3.065,11.742-6.038,1.4-2.338,1.972-5.249,1.972-10.012,0-5.888-.909-9.284-3.125-11.773C11.1,1.307,8,0,3.632,0M7.277,14.533v3.125c0,4.4-1.273,4.883-3.974,4.883H1.54V9.559H3.694c2.761,0,3.58,1.123,3.58,4.975" transform="translate(8.411 0)"></path></g><g transform="translate(306.535 65.931)"><path class="a" d="M6.481,3.854C6.481-4.4,2.537-8.919-4.591-8.919H-15V32.708h8.192V16.051h1.093L-.5,32.708H8.181L1.9,14.169C5.025,12.015,6.481,8.709,6.481,3.853M-1.71,3.578c0,.275-.03.55-.03.851a8,8,0,0,0-.032.849C-1.892,8.041-2.9,8.527-5.078,8.527h-1.73V-1.061H-5.26C-2.2-1.061-1.71.032-1.71,3.58" transform="translate(15 8.919)"></path></g></g><path class="a" d="M231.907-33.729h7.616V5.059h-7.616Z" transform="translate(100.206 105.607)"></path><g transform="translate(344.157 71.878)"><path class="a" d="M.147,2.105H8.52L-.339,26.348v5.734H16.713V25.1H7.671L16.713.437v-5.31H.147Z" transform="translate(0.339 4.873)"></path></g><g transform="translate(365.669 74.921)"><path class="a" d="M0,12.757H19.569V4.443H8.313V-4.536h9.8v-7.978h-9.8v-9.009H19.569V-29.5H0Z" transform="translate(0 29.5)"></path></g></svg> 