<svg xmlns="http://www.w3.org/2000/svg" xmlns:xlink="http://www.w3.org/1999/xlink" width="466" height="274" viewBox="0 0 466 274"><defs><style>.a{fill:#fff;}.b{clip-path:url(#a);}.c{clip-path:url(#b);}.d{fill:#3b8495;}</style><clipPath id="a"><rect class="a" width="466" height="274" transform="translate(-5512 2544)"/></clipPath><clipPath id="b"><rect class="a" width="1366" height="446" transform="translate(0 109)"/></clipPath></defs><g class="b" transform="translate(5512 -2544)"><g class="c" transform="translate(-6412 2261)"><g transform="translate(67.176 -182.851)"><path class="d" d="M924.634,432.966c-4.031-53.92-22.24-106.755-44.057-156.228A443.686,443.686,0,0,0,792.308,147.07,438.218,438.218,0,0,0,522.034,13.5,406.193,406.193,0,0,0,243.167,83.8a447.593,447.593,0,0,1,268.712-14.06A399.164,399.164,0,0,1,723.568,208.78a390.57,390.57,0,0,1,52.336,397.6A88.269,88.269,0,1,0,676.7,728.237H690.76l-33.589,28.9a390.575,390.575,0,0,1-107.016,57.023,402.286,402.286,0,0,1-244.5,0A411.66,411.66,0,0,1,101.781,664.184,448.372,448.372,0,0,1,23.667,407.189,409.317,409.317,0,0,0,55.694,693.867a442.123,442.123,0,0,0,90.612,121.858,455.4,455.4,0,0,0,129.669,85.144A468.683,468.683,0,0,0,588.431,920.4,474.932,474.932,0,0,0,843.863,736.048a501.492,501.492,0,0,0,67.178-145.292A456.972,456.972,0,0,0,925.1,434.529" transform="translate(671.159 463.241)"/><path class="d" d="M29.745,440.127A302.3,302.3,0,0,0,247.683,623.695a257.775,257.775,0,0,0,178.1-29.683A292.145,292.145,0,0,1,262.525,573.7a264.806,264.806,0,0,1-114.046-98.424A242.933,242.933,0,0,1,124.263,263.59,84.159,84.159,0,1,0,221.906,159.7a78.113,78.113,0,0,0-23.434,0A243.715,243.715,0,0,1,403.13,113.611a270.275,270.275,0,0,1,130.45,78.114,304.643,304.643,0,0,1,78.895,143.73,258.557,258.557,0,0,0-32.027-178.1A292.925,292.925,0,0,0,433.594,32.372,305.425,305.425,0,0,0,234.4,26.123,315.361,315.361,0,0,0,12.561,340.141a331.206,331.206,0,0,0,21.091,99.986" transform="translate(768.192 584.968)"/></g></g></g></svg>