<?xml version="1.0" encoding="UTF-8"?>
<svg id="Layer_2" data-name="Layer 2" xmlns="http://www.w3.org/2000/svg" xmlns:xlink="http://www.w3.org/1999/xlink" viewBox="0 0 1146.64 447">
  <defs>
    <style>
      .cls-1 {
        fill: none;
      }

      .cls-2 {
        clip-path: url(#clippath);
      }

      .cls-3 {
        fill: #fbe77c;
      }

      .cls-4 {
        fill: #fdf4c5;
      }
    </style>
    <clipPath id="clippath">
      <path class="cls-1" d="m7.79,0h1131.06c4.3,0,7.79,2.24,7.79,5v437c0,2.76-3.49,5-7.79,5H7.79c-4.3,0-7.79-2.24-7.79-5V5C0,2.24,3.49,0,7.79,0Z"/>
    </clipPath>
  </defs>
  <g id="Layer_1-2" data-name="Layer 1">
    <g class="cls-2">
      <rect class="cls-3" width="1146.64" height="447"/>
      <g>
        <path class="cls-4" d="m1208.44,182.12c-46.47-48.28-105.63-84.33-165.56-114.3-58.56-28.95-121.8-47.24-186.77-54-127.58-15.19-256.4,15.34-363.6,86.16-102.93,66.96-177.84,169.24-210.63,287.57,56.7-98.67,142.37-177.52,245.39-225.86,97.48-45.1,207-57.26,312-34.62,174.45,37.02,314.41,166.95,364.28,338.17-54.01-27.08-119.75-5.25-146.84,48.76-27.08,54.01-5.25,119.75,48.76,146.84,31.44,15.77,68.55,15.45,99.72-.84l13.42-11.12-9.21,54.14c-11.67,49.03-30.93,95.94-57.08,139.04-55.86,87.08-137.43,154.63-233.39,193.29-99.91,38.74-209.49,45.04-313.19,18-109.16-31.37-206.09-95.44-277.74-183.57,52.76,111.25,144.18,199.52,257.21,248.34,57.91,25.33,119.77,40.45,182.84,44.69,64.44,3.9,129.08-3.28,191.09-21.23,127.65-37.92,238.4-118.54,313.71-228.38,74.74-111.14,109.34-244.45,98.09-377.92-6.53-66.24-23.66-130.99-50.73-191.8-27.19-59.37-64.43-113.58-110.09-160.26"/>
        <path class="cls-4" d="m552.44,932.82c109.85,59.88,238.61,64.07,349.43,6.03,67.64-36.87,119.68-96.93,146.55-169.13-45.61,52.27-105.28,90.34-171.9,109.68-61.28,16.83-126.13,15.52-186.68-3.79-88.27-28.4-158.53-95.88-190.47-182.93,46.78,33.62,111.96,22.95,145.58-23.84,33.62-46.78,22.95-111.96-23.84-145.58-32.5-23.36-75.5-26.06-110.67-6.95-8.35,5.02-15.89,11.26-22.37,18.53,19.23-89.05,77.63-164.67,158.93-205.79,58.08-27.15,122.73-37.06,186.28-28.56,68.63,7.21,133.98,33.09,188.94,74.83-37.83-67.3-98.68-118.68-171.37-144.69-77.02-28.01-161.25-29.14-238.99-3.21-80.14,27.27-148.83,80.61-195.09,151.51-96.95,148.34-81.98,343.34,36.48,475.14,28.79,31.23,62.24,57.8,99.18,78.77"/>
      </g>
    </g>
  </g>
</svg>