<svg xmlns="http://www.w3.org/2000/svg" width="239.91" height="71.463" viewBox="0 0 239.91 71.463"><defs><style>.a{fill:#22325d;}</style></defs><path class="a" d="M14.192,13.344a5.447,5.447,0,0,1-.289.474A5.561,5.561,0,0,1,8.98,16.163c-4.442,0-6.65-3.3-6.65-7.448,0-4,2.221-7.606,6.719-7.606A5.454,5.454,0,0,1,14.117,3.7L12.3,4.638A3.493,3.493,0,0,0,8.98,2.9C5.865,2.9,4.606,5.731,4.606,8.64S5.789,14.4,9.069,14.4a3.438,3.438,0,0,0,3.349-1.932Z" transform="translate(-0.728 -0.347)"/><path class="a" d="M23.035,12.451c0,2.3,1.121,3.927,2.95,3.927s2.916-1.554,2.916-3.92S27.849,8.49,25.937,8.49s-2.9,1.506-2.9,3.961m7.991,0c0,3.129-1.809,5.653-5.109,5.653-3.122,0-5-2.379-5.006-5.611S22.767,6.84,26.033,6.84c3.019,0,4.986,2.235,4.993,5.611" transform="translate(-6.531 -2.136)"/><path class="a" d="M38.034,9.78V7.03h1.994c0,.316.083,1.066.076,1.589a3.328,3.328,0,0,1,3.1-1.843,2.929,2.929,0,0,1,2.909,1.843,3.672,3.672,0,0,1,3.4-1.87c1.767,0,3.39,1.059,3.39,3.947v7.062H50.839V10.942c0-1.19-.433-2.434-2.022-2.434s-2.359,1.224-2.359,3.081v6.189H44.4V11.046c0-1.327-.371-2.5-1.974-2.5S40.063,9.787,40.063,11.8v5.962H38Z" transform="translate(-11.868 -2.106)"/><path class="a" d="M62.241,9.779V7.029h1.987c0,.316.083,1.066.083,1.589a3.328,3.328,0,0,1,3.095-1.843,2.929,2.929,0,0,1,2.909,1.843,3.672,3.672,0,0,1,3.438-1.87c1.767,0,3.383,1.059,3.39,3.947v7.062H75.08V10.941c0-1.19-.426-2.441-2.015-2.434s-2.359,1.224-2.359,3.081v6.189H68.644V11.045c0-1.327-.371-2.5-1.974-2.5s-2.407,1.272-2.407,3.28v5.962H62.2Z" transform="translate(-19.427 -2.105)"/><path class="a" d="M88.3,12.4c0,2.3,1.121,3.933,2.957,3.933s2.909-1.561,2.909-3.885S93.126,8.5,91.214,8.5,88.3,10.011,88.3,12.431m7.991,0c0,3.129-1.8,5.653-5.109,5.653-3.122,0-5-2.379-5.006-5.611S88.037,6.82,91.31,6.82c3.012,0,4.986,2.235,4.986,5.611" transform="translate(-26.916 -2.13)"/><path class="a" d="M103.26,9.7V6.989h2.008c.055.309.083,1.375.083,1.692a3.335,3.335,0,0,1,3.328-1.946c2.063,0,3.576,1.279,3.576,4.126v6.877h-2.063V11.094c0-1.54-.591-2.6-2.166-2.6-1.877,0-2.675,1.375-2.675,3.493v5.756h-2.063Z" transform="translate(-32.251 -2.099)"/><path class="a" d="M120,7.1c1.265,4.9,1.98,7.709,2.173,8.857h0c.2-1.038.866-3.528,2.345-8.857h2c1.6,5.935,2.063,7.661,2.242,8.665h0c.254-1.142.688-2.751,2.256-8.665h2.063L129.8,17.855h-2.228c-1.018-3.947-1.946-7.3-2.173-8.507h0c-.186,1.21-1.073,4.319-2.235,8.507h-2.269L117.79,7.1Z" transform="translate(-36.789 -2.218)"/><path class="a" d="M148.051,11.347c0-1.664-.839-3.019-2.6-3.019s-2.579,1.258-2.751,3.026Zm-5.412,1.417c0,2.022,1.025,3.528,2.751,3.528a2.331,2.331,0,0,0,2.455-1.561h2.063A4.429,4.429,0,0,1,145.314,18c-3.438,0-4.814-2.751-4.814-5.5,0-3.232,1.63-5.756,4.931-5.756,3.507,0,4.669,2.751,4.669,5.13a7.707,7.707,0,0,1-.034.894Z" transform="translate(-43.882 -2.105)"/><path class="a" d="M163.293,12.558h-1.657c-2.063,0-3.122.585-3.122,2.008a1.788,1.788,0,0,0,1.747,1.843,1.575,1.575,0,0,0,.254,0c2.448,0,2.751-1.664,2.751-3.514Zm2.022,2.751a17.933,17.933,0,0,0,.144,2.434h-1.974a5.5,5.5,0,0,1-.172-1.341c-.378.688-1.21,1.6-3.253,1.6a3.268,3.268,0,0,1-3.631-3.3c0-2.414,1.9-3.521,5.082-3.521h1.774V10.3c0-.915-.3-1.994-2.187-1.994-1.685,0-1.981.825-2.166,1.65h-1.994c.144-1.568,1.114-3.246,4.229-3.239,2.675,0,4.126,1.093,4.126,3.562Z" transform="translate(-48.857 -2.099)"/><path class="a" d="M177.354,5.672h1.815V2.55h2.063V5.672h2.317v1.65h-2.317v6.113c0,1,.248,1.492,1.2,1.492a4.3,4.3,0,0,0,.887-.076v1.527a5.5,5.5,0,0,1-1.678.2c-1.754,0-2.489-.921-2.489-2.751v-6.5H177.34Z" transform="translate(-55.388 -0.796)"/><path class="a" d="M190.833.19V6.455a3.562,3.562,0,0,1,3.3-1.774c1.774,0,3.61.99,3.61,4.126v6.877h-2.063V9.15c0-1.747-.688-2.709-2.221-2.709-1.877,0-2.627,1.272-2.627,3.438v5.845H188.77V.2Z" transform="translate(-58.958 -0.059)"/><path class="a" d="M301.434,5.472h1.815V2.35h2.063V5.472h2.317V7.129h-2.317v6.113c0,1,.248,1.492,1.2,1.492a3.844,3.844,0,0,0,.887-.083v1.527a5.13,5.13,0,0,1-1.678.2c-1.754,0-2.489-.915-2.489-2.751v-6.5H301.42Z" transform="translate(-94.141 -0.734)"/><path class="a" d="M293.883,12.355h-1.65c-2.063,0-3.129.585-3.129,2.008a1.788,1.788,0,0,0,1.74,1.843,1.493,1.493,0,0,0,.248,0c2.448,0,2.751-1.664,2.751-3.514Zm2.022,2.751a17.938,17.938,0,0,0,.144,2.434h-1.98A5.875,5.875,0,0,1,293.9,16.2c-.378.688-1.2,1.6-3.253,1.6a3.262,3.262,0,0,1-3.624-3.3c0-2.414,1.9-3.521,5.075-3.521h1.788v-.866c0-.915-.3-1.994-2.187-1.994-1.685,0-1.98.825-2.166,1.65h-1.994c.151-1.561,1.114-3.246,4.236-3.232,2.668,0,4.126,1.087,4.126,3.555Z" transform="translate(-89.644 -2.039)"/><path class="a" d="M272.678,10.171c0,2.5,1.155,3.858,2.792,3.858,2.421,0,2.916-1.836,2.909-4.037s-.447-3.768-2.751-3.768c-1.829,0-2.93,1.451-2.93,3.947M280.366,0V15.5h-1.939a12.833,12.833,0,0,1-.1-1.451,3.326,3.326,0,0,1-3.315,1.705c-2.751,0-4.449-2.228-4.449-5.5s1.829-5.742,4.814-5.742c1.829,0,2.675.688,2.95,1.307V0Z" transform="translate(-84.503)"/><path class="a" d="M248.487,14.536v3.136h-2.022c-.034-.282-.062-.921-.069-1.54a3.169,3.169,0,0,1-3.191,1.795c-1.884,0-3.555-.983-3.555-3.947V6.91h2.063v6.622c0,1.375.426,2.613,2.111,2.613,1.857,0,2.579-1.025,2.579-3.6V6.91h2.063Z" transform="translate(-74.849 -2.158)"/><path class="a" d="M225.035,12.191c0,2.3,1.121,3.927,2.95,3.927s2.916-1.561,2.916-3.92-1.052-3.954-2.957-3.954-2.909,1.527-2.909,3.947m7.991,0c0,3.129-1.8,5.66-5.109,5.66-3.122,0-5-2.386-5.006-5.618s1.857-5.653,5.123-5.653c3.019,0,4.986,2.242,4.993,5.611" transform="translate(-69.62 -2.055)"/><path class="a" d="M255.16,9.5V6.78h2.015c.055.316.082,1.375.082,1.7a3.335,3.335,0,0,1,3.294-1.953c2.063,0,3.583,1.279,3.583,4.126v6.877h-2.063V10.892c0-1.547-.591-2.6-2.166-2.6-1.877,0-2.668,1.375-2.668,3.493v5.756h-2.063Z" transform="translate(-79.693 -2.035)"/><path class="a" d="M210.14,1.2h9.566V3.043h-7.427V7.588L217.2,7.6V9.445l-4.917-.014v6.444H210.14Z" transform="translate(-65.632 -0.375)"/><path class="a" d="M313.28,0h2.063V2.386H313.28Zm0,4.738h2.063V15.5H313.28Z" transform="translate(-97.845)"/><path class="a" d="M335.65,9.478V6.769h2.015c.048.309.083,1.375.083,1.685a3.342,3.342,0,0,1,3.321-1.939c2.063,0,3.583,1.279,3.583,4.126v6.877h-2.063V10.874c0-1.547-.591-2.6-2.166-2.593-1.87,0-2.675,1.375-2.668,3.487v5.756h-2.063Z" transform="translate(-104.832 -2.031)"/><path class="a" d="M320.777,12.161c0,2.3,1.114,3.927,2.95,3.927s2.909-1.554,2.909-3.92-1.045-3.933-2.923-3.933S320.8,9.741,320.8,12.161m7.991,0c0,3.129-1.809,5.653-5.109,5.653-3.122,0-5.006-2.379-5.006-5.611S320.537,6.55,323.8,6.55c3.012,0,4.986,2.235,4.986,5.611" transform="translate(-99.532 -2.046)"/><rect class="a" width="2.07" height="15.5" transform="translate(118.301 0.138)"/><path class="a" d="M14.359,31.14c12.33,0,12.653,9.737,12.653,19.062a.763.763,0,0,1-.811.784H18.636a.763.763,0,0,1-.756-.784c0-6.244-.241-9.49-3.892-9.49-3.487,0-5.027,5.756-5.027,15.576-.021,9.566,1.506,15.328,4.993,15.328,3.727,0,3.927-3.246,3.927-9.49a.763.763,0,0,1,.777-.825h7.564a.763.763,0,0,1,.811.811c0,9.325-.323,19.062-12.653,19.062C2.352,81.189,0,67.236,0,56.288,0,45.093,2.352,31.14,14.359,31.14Z" transform="translate(0 -9.726)"/><path class="a" d="M68.388,63.629c4.126,3.328,4.057,8.355,4.057,12.089v4.215a.763.763,0,0,1-.811.811h-7.3a.77.77,0,0,1-.811-.811V75.718c0-7.468-4.3-7.221-4.3-7.221H57.515a.763.763,0,0,0-.8.811V79.934a.77.77,0,0,1-.811.811H48.631a.763.763,0,0,1-.811-.811v-46.8a.763.763,0,0,1,.811-.811h7.75C65.8,32.319,72.445,39.2,72.445,50c0,7.468-2.84,11.2-4.126,12.578C67.886,62.983,67.886,63.306,68.388,63.629ZM56.7,58.52c0,.488.323.894.8.811,2.063-.323,6.657-1.788,6.657-8.94s-4.614-8.665-6.643-8.988c-.481-.083-.8.323-.8.811Z" transform="translate(-14.935 -10.094)"/><path class="a" d="M92.119,33.131a.763.763,0,0,1,.811-.811h20.926a.763.763,0,0,1,.811.811v7.461a.763.763,0,0,1-.811.811H101.85a.763.763,0,0,0-.811.811V51.3a.729.729,0,0,0,.811.811h12.007a.763.763,0,0,1,.811.811v7.372a.763.763,0,0,1-.811.8H101.85a.729.729,0,0,0-.811.811v8.94a.763.763,0,0,0,.811.811h12.007a.763.763,0,0,1,.811.811v7.461a.763.763,0,0,1-.811.811H92.931a.763.763,0,0,1-.811-.811Z" transform="translate(-28.771 -10.094)"/><path class="a" d="M156.523,79.866a.729.729,0,0,1-.729.894h-7.489c-.488,0-.729-.165-.811-.729l-.6-4.594c-.083-.564-.323-.729-.811-.729H141.7c-.488,0-.729.165-.811.729l-.729,4.628c-.083.564-.323.729-.811.729H132a.729.729,0,0,1-.729-.894l6.877-46.8c.083-.564.323-.729.811-.729h9.49a.743.743,0,0,1,.811.729Zm-11.14-12.818a.729.729,0,0,0,.729-.887L144.33,53.748a.488.488,0,0,0-.977,0l-1.781,12.413a.784.784,0,0,0,.811.887Z" transform="translate(-40.993 -10.109)"/><path class="a" d="M176.353,80.746a.688.688,0,0,1-.646-.646V40.84a.633.633,0,0,0-.571-.688H169.3a.688.688,0,0,1-.688-.646v-6.54a.688.688,0,0,1,.688-.646h21.9a.55.55,0,0,1,.564.571v6.65a.626.626,0,0,1-.564.646h-6a.564.564,0,0,0-.571.571V80.1a.626.626,0,0,1-.564.646Z" transform="translate(-52.661 -10.094)"/><path class="a" d="M208.65,32.966a.688.688,0,0,1,.646-.646h7.626a.626.626,0,0,1,.646.571V80.175a.557.557,0,0,1-.564.571H209.3a.688.688,0,0,1-.646-.646Z" transform="translate(-65.167 -10.094)"/><path class="a" d="M252.479,32.32c.406,0,.653.241.571.646l-7.3,47.209a.688.688,0,0,1-.646.571h-7.784a.688.688,0,0,1-.653-.571l-8.672-47.209c-.083-.481.083-.646.488-.646h7.764a.688.688,0,0,1,.653.571l3.569,25.87c.083.488.564.406.646,0l2.923-25.87a.626.626,0,0,1,.646-.571Z" transform="translate(-71.201 -10.094)"/><path class="a" d="M270.809,33.13a.763.763,0,0,1,.818-.811h20.926a.763.763,0,0,1,.811.811v7.461a.763.763,0,0,1-.811.811H280.567a.763.763,0,0,0-.811.811V51.3a.729.729,0,0,0,.811.811h12.007a.763.763,0,0,1,.811.811v7.372a.763.763,0,0,1-.811.8H280.567a.729.729,0,0,0-.812.811v8.94a.763.763,0,0,0,.811.811h12.007a.763.763,0,0,1,.811.811v7.461a.763.763,0,0,1-.811.811H271.628a.763.763,0,0,1-.811-.811Z" transform="translate(-84.58 -10.093)"/><path class="a" d="M313.554,70.64V64.4a.688.688,0,0,1,.646-.646h7.709a.626.626,0,0,1,.646.564V70.64a2.964,2.964,0,0,0,3.005,3.04,2.819,2.819,0,0,0,2.84-3.005V62.209A1.671,1.671,0,0,0,326.7,60.5h-4.126c-10.707,0-10.46-10.625-10.46-10.625v-8.19s0-10.549,11.924-10.549,11.924,10.549,11.924,10.549v6.244a.626.626,0,0,1-.571.646h-7.881a.626.626,0,0,1-.571-.646V41.689a2.964,2.964,0,0,0-3-3.005,2.819,2.819,0,0,0-2.84,3.005v8.19a1.671,1.671,0,0,0,1.705,1.7l5.5.083c9.325.894,9.084,10.549,9.084,10.549V70.64s0,10.549-11.924,10.549S313.554,70.64,313.554,70.64Z" transform="translate(-97.48 -9.726)"/></svg>