<svg xmlns="http://www.w3.org/2000/svg" xmlns:xlink="http://www.w3.org/1999/xlink" width="795" height="354" viewBox="0 0 795 354"><defs><style>.a{fill:#fff;}.b{clip-path:url(#a);}.c{fill:#92e2b2;}</style><clipPath id="a"><rect class="a" width="795" height="354" transform="translate(485 189)"/></clipPath></defs><g class="b" transform="translate(-485 -189)"><g transform="translate(2041.928 -428.259) rotate(90)"><path class="c" d="M763.467,358.494c-3.32-44.408-18.317-87.922-36.285-128.667a365.414,365.414,0,0,0-72.7-106.794A360.911,360.911,0,0,0,431.892,13.022a334.535,334.535,0,0,0-229.671,57.9,368.632,368.632,0,0,1,221.308-11.58A328.746,328.746,0,0,1,597.872,173.856a321.668,321.668,0,0,1,43.1,327.458,72.7,72.7,0,1,0-81.7,100.361h11.58l-27.663,23.8a321.674,321.674,0,0,1-88.137,46.964,331.317,331.317,0,0,1-201.364,0A339.038,339.038,0,0,1,85.776,548.921,369.273,369.273,0,0,1,21.443,337.264a337.109,337.109,0,0,0,26.377,236.1,364.126,364.126,0,0,0,74.627,100.36,375.057,375.057,0,0,0,106.794,70.124,386,386,0,0,0,257.334,16.083A391.149,391.149,0,0,0,696.946,608.108a413.023,413.023,0,0,0,55.327-119.661,376.356,376.356,0,0,0,11.58-128.667" transform="translate(671.159 463.241)"/><path class="c" d="M29.888,364.67c30.838,77.2,94.956,133.916,176.274,151.184a212.3,212.3,0,0,0,146.681-24.447A240.607,240.607,0,0,1,218.385,474.68a218.091,218.091,0,0,1-93.927-81.061,200.077,200.077,0,0,1-19.943-174.344,69.312,69.312,0,1,0,80.417-85.564,64.332,64.332,0,0,0-19.3,0A200.721,200.721,0,0,1,334.185,95.755a222.6,222.6,0,0,1,107.437,64.334A250.9,250.9,0,0,1,506.6,278.462a212.944,212.944,0,0,0-26.377-146.681A241.25,241.25,0,0,0,359.276,28.848,251.544,251.544,0,0,0,195.225,23.7,259.727,259.727,0,0,0,12.518,282.322a272.777,272.777,0,0,0,17.37,82.347" transform="translate(750.852 563.215)"/></g></g></svg>