<svg xmlns="http://www.w3.org/2000/svg" width="1702.931" height="1725.22" viewBox="0 0 1702.931 1725.22"><defs><style>.a{fill:#3B8495;}</style></defs><g transform="translate(-682.218 -474.056)"><path class="a" d="M1710.213,795.972c-7.5-100.285-41.364-198.553-81.941-290.567A825.211,825.211,0,0,0,1464.1,264.234,815.04,815.04,0,0,0,961.42,15.8,755.476,755.476,0,0,0,442.757,146.554,832.477,832.477,0,0,1,942.533,120.4a742.4,742.4,0,0,1,393.719,258.6,726.419,726.419,0,0,1,97.34,739.493,164.171,164.171,0,1,0-184.511,226.643h26.151L1212.76,1398.9a726.435,726.435,0,0,1-199.039,106.057,748.209,748.209,0,0,1-454.738,0,765.645,765.645,0,0,1-379.191-278.945A833.925,833.925,0,0,1,34.509,748.028a761.287,761.287,0,0,0,59.566,533.191A822.3,822.3,0,0,0,262.6,1507.862a846.989,846.989,0,0,0,241.171,158.36,871.7,871.7,0,0,0,581.134,36.321,883.324,883.324,0,0,0,475.078-342.869,932.723,932.723,0,0,0,124.943-270.228,849.924,849.924,0,0,0,26.152-290.567" transform="translate(671.159 463.241)"/><path class="a" d="M44.732,807.932a562.247,562.247,0,0,0,405.341,341.417,479.434,479.434,0,0,0,331.247-55.208,543.358,543.358,0,0,1-303.643-37.774A492.511,492.511,0,0,1,265.563,873.31a451.831,451.831,0,0,1-45.038-393.718,156.527,156.527,0,1,0,181.6-193.228,145.282,145.282,0,0,0-43.585,0,453.285,453.285,0,0,1,380.643-85.717A502.684,502.684,0,0,1,981.812,345.93a566.6,566.6,0,0,1,146.736,267.322,480.888,480.888,0,0,0-59.566-331.247A544.81,544.81,0,0,0,795.849,49.552,568.058,568.058,0,0,0,425.376,37.929,586.538,586.538,0,0,0,12.77,621.969,616.009,616.009,0,0,0,52,807.932" transform="translate(852.711 690.999)"/></g></svg>
