<?xml version="1.0" encoding="UTF-8"?>
<svg fill="#FFFFFF" width="100pt" height="100pt" version="1.1" viewBox="0 0 100 100" xmlns="http://www.w3.org/2000/svg">
 <g>
  <path d="m33.836 41.137h5.5625v-25.898c0.007812-2.2031 1.7969-3.9883 4-3.9883h13.188c1.0625-0.003906 2.0781 0.41406 2.8281 1.1641 0.75 0.74609 1.1719 1.7656 1.1719 2.8242v25.898h5.5781c1.7227-0.003907 3.2969 0.99219 4.0273 2.5547 0.73438 1.5664 0.49219 3.4102-0.61719 4.7344l-16.16 19.363c-0.84766 1.0078-2.0977 1.5938-3.4141 1.5938s-2.5664-0.58594-3.4141-1.5938l-16.172-19.363c-1.1133-1.3242-1.3516-3.1758-0.61719-4.7383s2.3125-2.5586 4.0391-2.5508z"/>
  <path d="m29.363 86.477v-4.5898c0.007813-1.2422 1.0156-2.25 2.2617-2.25h36.75c1.2461 0 2.2539 1.0078 2.2617 2.25v4.5898c0 1.25-1.0117 2.2656-2.2617 2.2734h-36.75c-1.25-0.007812-2.2617-1.0234-2.2617-2.2734z"/>
 </g>
</svg>
