<svg xmlns="http://www.w3.org/2000/svg" width="1422.033" height="1426.677" viewBox="0 0 1422.033 1426.677"><path d="M9.89.4A2.981,2.981,0,0,0,6.909.4H.946s-2.129,0,0,2.555L29.908,176.721l55.367,164.4h9.8L65.683,165.648Z" transform="translate(795.484 1063.921)" fill="#1d2845"/><path d="M85.606,344.606a2.556,2.556,0,0,0,2.555,0h5.963v-2.555L64.737,166.58,8.944.48a2.555,2.555,0,0,0-2.981,0H0V3.035L28.961,176.8Z" transform="translate(528.54 21.241)" fill="#1d2845"/><path d="M11.073,2.13A2.555,2.555,0,0,0,8.518,0H0V176.322L31.517,351.367h8.518a2.555,2.555,0,0,0,2.129-2.555V170.785Z" transform="translate(737.657 1070.709)" fill="#1d2845"/><path d="M34.5,352.65a2.555,2.555,0,0,0,2.555,2.129h5.963V174.625L12.777.432H3.833A2.555,2.555,0,0,0,0,1.71V178.032Z" transform="translate(635.015 2.55)" fill="#1d2845"/><path d="M34.924,0H28.535A2.645,2.645,0,0,0,25.98,2.129L0,176.322l3.833,177.6H9.8a2.556,2.556,0,0,0,2.555,0l26.406-175.9L34.924,2.129H32.794" transform="translate(655.032 1072.413)" fill="#1d2845"/><path d="M5.963,356.052h5.963a2.555,2.555,0,0,0,2.555-2.129l25.98-175.9L37.053,2.556S37.053,0,34.924,0H28.535A2.555,2.555,0,0,0,25.98,2.13L0,176.322l3.833,177.6a2.556,2.556,0,0,0,2.129,2.555" transform="translate(722.324)" fill="#1d2845"/><path d="M78.708.48h0a2.555,2.555,0,0,0-2.981,0L22.915,170.839.342,345.458a2.556,2.556,0,0,0,0,2.556H5.879a2.556,2.556,0,0,0,2.981,0L62.1,177.654,86.374,3.035A2.555,2.555,0,0,0,85.522.48H79.559" transform="translate(549.493 1063.841)" fill="#1d2845"/><path d="M8.518,348.865a2.555,2.555,0,0,0,2.981,0L64.737,178.505,89.013,3.461A3.407,3.407,0,0,0,86.884.48H80.921a2.555,2.555,0,0,0-2.981,0L24.276,168.71,0,345.032a2.555,2.555,0,0,0,2.13,2.555Z" transform="translate(781.098 15.705)" fill="#1d2845"/><path d="M139.323,2.738,133.36.609h0a2.129,2.129,0,0,0-2.981,0L52.014,158.191.48,328.551a2.555,2.555,0,0,0,0,2.981l5.963,2.129a2.981,2.981,0,0,0,2.981,0L88.641,174.375,139.323,4.016a2.555,2.555,0,0,0,0-2.981" transform="translate(441.177 1045.825)" fill="#1d2845"/><path d="M1.035,332.232l5.537,2.129a2.129,2.129,0,0,0,2.981,0L88.77,173.8,139.026,5.567a2.555,2.555,0,0,0,0-2.981L133.489.456h0a3.408,3.408,0,0,0-3.407,0L51.717,158.039.609,328.4a2.13,2.13,0,0,0,0,2.981" transform="translate(836.708 47.244)" fill="#1d2845"/><path d="M188.673,5.963a3.407,3.407,0,0,0,0-3.407L182.285,0H179.3L77.088,143.1,0,303.666v2.981l5.111,2.981H8.092L111.16,164.4Z" transform="translate(341.997 1021.731)" fill="#1d2845"/><path d="M.852,302.814a2.13,2.13,0,0,0,0,3.407L5.963,309.2a2.13,2.13,0,0,0,3.407,0L112.437,164.4,188.673,6.388a2.13,2.13,0,0,0,0-3.407L183.562,0h-2.981L78.365,143.528Z" transform="translate(886.721 97.531)" fill="#1d2845"/><path d="M232.115,7.891a2.129,2.129,0,0,0,0-3.407A37.041,37.041,0,0,1,227.43.651h0a2.556,2.556,0,0,0-3.407,0L100.938,128.42,0,272.374v2.981l4.685,3.833a2.555,2.555,0,0,0,3.407,0l124.362-127.77Z" transform="translate(251.706 987.86)" fill="#1d2845"/><path d="M.456,270.074a3.407,3.407,0,0,0,0,3.407l4.685,3.833a2.129,2.129,0,0,0,3.407,0l124.362-127.77L234.7,7.72a2.555,2.555,0,0,0,0-3.407L230.016.48h0a2.555,2.555,0,0,0-2.981,0L103.524,128.249Z" transform="translate(932.687 162.214)" fill="#1d2845"/><path d="M271.948,8.317a2.555,2.555,0,0,0,0-3.407A40.04,40.04,0,0,1,267.689.651h0a2.555,2.555,0,0,0-3.407,0L123.31,105,.651,232.765a2.556,2.556,0,0,0,0,3.407l3.833,4.685a3.408,3.408,0,0,0,3.407,0L150.567,134.809Z" transform="translate(170.986 948.678)" fill="#1d2845"/><path d="M.651,234.275a2.556,2.556,0,0,0,0,3.407l3.833,4.259a2.129,2.129,0,0,0,3.407,0L150.567,136.318,271.948,8.549a2.129,2.129,0,0,0,0-3.407A22.149,22.149,0,0,1,267.689.456h0a3.407,3.407,0,0,0-3.407,0l-141.4,105.623Z" transform="translate(975.083 236.769)" fill="#1d2845"/><path d="M303.72,8.974a2.129,2.129,0,0,0,0-3.407L300.738.456h0a3.407,3.407,0,0,0-3.407,0L141.878,80.951.48,188.278a2.555,2.555,0,0,0,0,2.981l2.981,5.111a2.981,2.981,0,0,0,3.407,0l157.583-82.624Z" transform="translate(104.291 903.301)" fill="#1d2845"/><path d="M.651,188.7a2.556,2.556,0,0,0,0,3.407l3.407,5.111a2.556,2.556,0,0,0,2.981,0l157.582-82.2L304.316,8.549V5.567L301.335.456h0a3.407,3.407,0,0,0-3.407,0L142.049,81.377Z" transform="translate(1009.155 327.06)" fill="#1d2845"/><path d="M326.847,9.127a2.961,2.961,0,0,0,.948-3.149l-.948-3.171c-.448-1.271-1.2-2.9-2.981-2.2L156.488,55.124.609,140.3a2.129,2.129,0,0,0,0,2.981l2.129,5.537a3.407,3.407,0,0,0,3.407,0L176.5,92.177Z" transform="translate(52.629 853.318)" fill="#1d2845"/><path d="M343.754,8.518s1.606-.031.8-3.392a41.661,41.661,0,0,0-1.42-4.5C342.714-.112,342.515-.2,341.2,0L167.858,28.961.48,85.606a2.556,2.556,0,0,0,0,2.981v5.962a3.407,3.407,0,0,0,2.981,0L178.505,65.162Z" transform="translate(17.834 800.264)" fill="#1d2845"/><path d="M350.94,11.073a2.981,2.981,0,0,0,2.13-2.981,25.988,25.988,0,0,1,0-5.963h0A2.555,2.555,0,0,0,350.515,0h-175.9L0,31.517v8.518a2.555,2.555,0,0,0,2.555,0h177.6Z" transform="translate(0 742.767)" fill="#1d2845"/><path d="M173.626,40.46,349.1,37.053a2.555,2.555,0,0,0,2.555-2.555,30.237,30.237,0,0,1,0-5.963h0a2.555,2.555,0,0,0,0-2.555L177.885,0,.285,3.407a2.129,2.129,0,0,0,0,2.129V11.5a2.555,2.555,0,0,0,2.129,2.555Z" transform="translate(0.141 660.143)" fill="#1d2845"/><path d="M170.413,64.173,344.18,88.023a2.555,2.555,0,0,0,2.555-2.555V79.5h0V76.949l-167.8-52.811L3.035.288A2.981,2.981,0,0,0,.48.288V6.25a2.555,2.555,0,0,0,0,2.981Z" transform="translate(12.297 552.955)" fill="#1d2845"/><path d="M162.024,89.838l167.8,51.108c1.2.367,2.153.812,2.981,0a36.936,36.936,0,0,1,4.259-5.963,2.13,2.13,0,0,0,0-2.981L176.5,51.933,6.145.4A2.981,2.981,0,0,0,3.164.4L.609,5.936a2.13,2.13,0,0,0,0,2.981Z" transform="translate(42.407 445.517)" fill="#1d2845"/><path d="M145.84,113.472l158.008,76.662a3.407,3.407,0,0,0,3.407,0,23,23,0,0,1,2.981-5.537h0a2.129,2.129,0,0,0,0-3.407L166.283,80.252,7,.609a2.129,2.129,0,0,0-2.981,0L.609,5.72a2.129,2.129,0,0,0,0,2.981Z" transform="translate(92.237 345.221)" fill="#1d2845"/><path d="M166.1,77.088,6.388.852a2.13,2.13,0,0,0-3.407,0L0,5.963V8.944L144.805,112.437,302.388,189.1a2.981,2.981,0,0,0,3.407,0l2.981-5.537h0v-2.981Z" transform="translate(1015.343 893.11)" fill="#1d2845"/><path d="M127.568,133.36,271.522,233.872H274.5a22.147,22.147,0,0,1,4.259-4.685h0v-2.981L153.122,101.844,7.465.48a2.555,2.555,0,0,0-2.981,0L.651,5.165a2.555,2.555,0,0,0,0,3.407Z" transform="translate(156.506 254.634)" fill="#1d2845"/><path d="M153.323,102.216,8.092.852a2.129,2.129,0,0,0-3.407,0L.852,5.111a2.13,2.13,0,0,0,0,3.407l127.77,124.788L272.575,233.818a2.556,2.556,0,0,0,3.407,0l3.833-4.685h0a2.555,2.555,0,0,0,0-3.407Z" transform="translate(982.122 939.107)" fill="#1d2845"/><path d="M232.145,272.575h2.981l4.685-4.259h0v-2.981L135.892,123.085,8.123,0H5.141L.456,3.833a3.407,3.407,0,0,0,0,3.407l105.2,143.528Z" transform="translate(234.64 174.619)" fill="#1d2845"/><path d="M8.518.651a2.555,2.555,0,0,0-3.407,0L.852,4.484a2.129,2.129,0,0,0,0,3.407l105.623,143.1L234.244,272.8a2.555,2.555,0,0,0,3.407,0l4.259-3.833h0a2.555,2.555,0,0,0,0-3.407L137.565,123.735Z" transform="translate(942.94 978.49)" fill="#1d2845"/><path d="M81.8,163.545,187.426,303.666a2.981,2.981,0,0,0,3.407,0l5.111-3.407h0a2.129,2.129,0,0,0,0-3.407l-80.921-156.3L8.549,0H5.567L.456,2.981a3.407,3.407,0,0,0,0,3.407Z" transform="translate(323.652 108.604)" fill="#1d2845"/><path d="M8.092.852a2.129,2.129,0,0,0-3.407,0L0,3.833V6.814L81.773,164.823l105.2,140.121a2.556,2.556,0,0,0,3.407,0l5.111-3.407h0a3.407,3.407,0,0,0,0-3.407l-81.346-156.3Z" transform="translate(898.646 1014.917)" fill="#1d2845"/><path d="M139.452,329.4a2.13,2.13,0,0,0,2.981,0l5.537-2.13h0a2.129,2.129,0,0,0,0-2.981L93.881,156.914,8.7.609a2.129,2.129,0,0,0-2.981,0L.609,2.738a2.129,2.129,0,0,0,0,2.981L56.827,176.079Z" transform="translate(421.457 55.61)" fill="#1d2845"/><path d="M9,.48a2.555,2.555,0,0,0-2.981,0L.48,3.035a2.555,2.555,0,0,0,0,2.981L57.124,176.376,139.749,331.4a2.556,2.556,0,0,0,2.981,0l5.963-2.556h0a2.129,2.129,0,0,0,0-2.981L92.9,158.914Z" transform="translate(848.336 1042.546)" fill="#1d2845"/><path d="M5.963,356.052h5.963a2.555,2.555,0,0,0,2.555-2.129l25.98-175.9L37.053,2.556S37.053,0,34.924,0H28.535A2.555,2.555,0,0,0,25.98,2.13L0,176.322l3.833,177.6a2.556,2.556,0,0,0,2.129,2.555" transform="matrix(0.485, 0.875, -0.875, 0.485, 1335.751, 394.799)" fill="#1d2845"/><path d="M8.518,348.865a2.555,2.555,0,0,0,2.981,0L64.737,178.505,89.013,3.461A3.407,3.407,0,0,0,86.884.48H80.921a2.555,2.555,0,0,0-2.981,0L24.276,168.71,0,345.032a2.555,2.555,0,0,0,2.13,2.555Z" transform="matrix(0.485, 0.875, -0.875, 0.485, 1350.509, 453.818)" fill="#1d2845"/><path d="M1.035,332.232l5.537,2.129a2.129,2.129,0,0,0,2.981,0L88.77,173.8,139.026,5.567a2.555,2.555,0,0,0,0-2.981L133.489.456h0a3.408,3.408,0,0,0-3.407,0L51.717,158.039.609,328.4a2.13,2.13,0,0,0,0,2.981" transform="matrix(0.485, 0.875, -0.875, 0.485, 1349.884, 517.746)" fill="#1d2845"/><path d="M.852,302.814a2.13,2.13,0,0,0,0,3.407L5.963,309.2a2.13,2.13,0,0,0,3.407,0L112.437,164.4,188.673,6.388a2.13,2.13,0,0,0,0-3.407L183.562,0h-2.981L78.365,143.528Z" transform="matrix(0.485, 0.875, -0.875, 0.485, 1330.149, 585.867)" fill="#1d2845"/><path d="M.456,270.074a3.407,3.407,0,0,0,0,3.407l4.685,3.833a2.129,2.129,0,0,0,3.407,0l124.362-127.77L234.7,7.72a2.555,2.555,0,0,0,0-3.407L230.016.48h0a2.555,2.555,0,0,0-2.981,0L103.524,128.249Z" transform="matrix(0.485, 0.875, -0.875, 0.485, 1295.861, 657.43)" fill="#1d2845"/><path d="M.651,234.275a2.556,2.556,0,0,0,0,3.407l3.833,4.259a2.13,2.13,0,0,0,3.407,0L150.567,136.318,271.948,8.549a2.129,2.129,0,0,0,0-3.407A22.147,22.147,0,0,1,267.689.456h0a3.407,3.407,0,0,0-3.407,0l-141.4,105.623Z" transform="matrix(0.485, 0.875, -0.875, 0.485, 1251.207, 730.655)" fill="#1d2845"/></svg>