<svg xmlns="http://www.w3.org/2000/svg" width="78.948" height="68.952" viewBox="0 0 78.948 68.952"><defs><style>.a{fill:#71d4ff;opacity:0.197;}</style></defs><path class="a" d="M4.488-118.728q0-11.832,8.466-24.072T36.72-164.22l.408.612Q25.092-146.268,20.6-132.8q9.588.408,15.81,5.814a17.435,17.435,0,0,1,6.222,13.77,17.246,17.246,0,0,1-5.2,12.852,18.285,18.285,0,0,1-13.362,5.1q-7.956,0-13.77-6.834A24.789,24.789,0,0,1,4.488-118.728Zm40.8,0q0-11.832,8.466-24.072T77.52-164.22l.408.612Q65.892-146.268,61.4-132.8q9.588.408,15.81,5.814a17.435,17.435,0,0,1,6.222,13.77,17.246,17.246,0,0,1-5.2,12.852,18.284,18.284,0,0,1-13.362,5.1q-7.956,0-13.77-6.834A24.789,24.789,0,0,1,45.288-118.728Z" transform="translate(-4.488 164.22)"/></svg>