<svg xmlns="http://www.w3.org/2000/svg" width="668.456" height="720.231" viewBox="0 0 668.456 720.231"><defs><style>.a{opacity:0.1;}.b{fill:#4296a3;}</style></defs><g class="a" transform="translate(27.57 40.46)"><g transform="translate(-27.57 -40.46)"><path class="b" d="M23.761,25.192a1.5,1.5,0,0,0-1.505,0h-3.01s-1.075,0,0,1.29l14.62,87.723L61.817,197.2h4.945L51.927,108.615Z" transform="translate(382.817 512.11)"/><path class="b" d="M55.716,174.476a1.29,1.29,0,0,0,1.29,0h3.01v-1.29L45.181,84.6,17.015.751a1.29,1.29,0,0,0-1.505,0H12.5v1.29L27.12,89.764Z" transform="translate(254.323 10.215)"/><path class="b" d="M23,26.225a1.29,1.29,0,0,0-1.29-1.075h-4.3v89.013l15.911,88.368h4.3a1.29,1.29,0,0,0,1.075-1.29V111.368Z" transform="translate(354.982 515.377)"/><path class="b" d="M32.416,178.1a1.29,1.29,0,0,0,1.29,1.075h3.01V88.226L21.45.288H16.935A1.29,1.29,0,0,0,15,.933V89.946Z" transform="translate(305.575 1.217)"/><path class="b" d="M33.1,25.19H29.875a1.335,1.335,0,0,0-1.29,1.075L15.47,114.2l1.935,89.658h3.01a1.29,1.29,0,0,0,1.29,0l13.33-88.8L33.1,26.265H32.026" transform="translate(315.21 516.197)"/><path class="b" d="M20.06,179.756h3.01a1.29,1.29,0,0,0,1.29-1.075l13.115-88.8L35.756,1.3s0-1.29-1.075-1.29H31.455a1.29,1.29,0,0,0-1.29,1.075L17.05,89.023l1.935,89.658a1.29,1.29,0,0,0,1.075,1.29" transform="translate(347.602 -0.01)"/><path class="b" d="M52.726,25.231h0a1.29,1.29,0,0,0-1.505,0l-26.661,86-11.4,88.153a1.29,1.29,0,0,0,0,1.29h2.8a1.29,1.29,0,0,0,1.505,0l26.876-86L56.6,26.521a1.29,1.29,0,0,0-.43-1.29h-3.01" transform="translate(264.409 512.071)"/><path class="b" d="M22.73,176.5a1.29,1.29,0,0,0,1.505,0l26.876-86L63.367,2.126A1.72,1.72,0,0,0,62.291.621h-3.01a1.29,1.29,0,0,0-1.5,0L30.685,85.549,18.43,174.561a1.29,1.29,0,0,0,1.075,1.29Z" transform="translate(375.892 7.549)"/><path class="b" d="M80.783,25.948l-3.01-1.075h0a1.075,1.075,0,0,0-1.5,0L36.707,104.426l-26.016,86a1.29,1.29,0,0,0,0,1.505l3.01,1.075a1.5,1.5,0,0,0,1.505,0L55.2,112.6l25.586-86a1.29,1.29,0,0,0,0-1.505" transform="translate(212.271 503.399)"/><path class="b" d="M20.258,168.84l2.8,1.075a1.075,1.075,0,0,0,1.505,0L64.549,88.857,89.92,3.93a1.29,1.29,0,0,0,0-1.505l-2.8-1.075h0a1.72,1.72,0,0,0-1.72,0L45.844,80.9l-25.8,86a1.075,1.075,0,0,0,0,1.505" transform="translate(402.66 22.731)"/><path class="b" d="M103.368,27.01a1.72,1.72,0,0,0,0-1.72L100.143,24H98.638l-51.6,72.242L8.12,177.3V178.8l2.58,1.505h1.505l52.032-73.317Z" transform="translate(164.53 491.801)"/><path class="b" d="M21.34,155.17a1.075,1.075,0,0,0,0,1.72l2.58,1.505a1.075,1.075,0,0,0,1.72,0l52.032-73.1L116.158,5.525a1.075,1.075,0,0,0,0-1.72L113.578,2.3h-1.505l-51.6,72.457Z" transform="translate(426.734 46.937)"/><path class="b" d="M123.179,27.188a1.075,1.075,0,0,0,0-1.72,18.7,18.7,0,0,1-2.365-1.935h0a1.29,1.29,0,0,0-1.72,0l-62.137,64.5L6,160.707v1.505l2.365,1.935a1.29,1.29,0,0,0,1.72,0l62.782-64.5Z" transform="translate(121.069 475.498)"/><path class="b" d="M22.22,140.16a1.72,1.72,0,0,0,0,1.72l2.365,1.935a1.075,1.075,0,0,0,1.72,0l62.782-64.5,51.387-71.6a1.29,1.29,0,0,0,0-1.72l-2.365-1.935h0a1.29,1.29,0,0,0-1.5,0l-62.352,64.5Z" transform="translate(448.86 78.072)"/><path class="b" d="M141.392,26.483a1.29,1.29,0,0,0,0-1.72,20.213,20.213,0,0,1-2.15-2.15h0a1.29,1.29,0,0,0-1.72,0L66.355,75.29l-61.922,64.5a1.29,1.29,0,0,0,0,1.72l1.935,2.365a1.72,1.72,0,0,0,1.72,0L80.116,90.34Z" transform="translate(82.215 456.637)"/><path class="b" d="M23.313,123.838a1.29,1.29,0,0,0,0,1.72l1.935,2.15a1.075,1.075,0,0,0,1.72,0L99,74.387l61.277-64.5a1.075,1.075,0,0,0,0-1.72,11.18,11.18,0,0,1-2.15-2.365h0a1.72,1.72,0,0,0-1.72,0L85.02,59.121Z" transform="translate(469.267 113.959)"/><path class="b" d="M155.866,25.75a1.075,1.075,0,0,0,0-1.72l-1.505-2.58h0a1.72,1.72,0,0,0-1.72,0L74.163,62.086,2.781,116.268a1.29,1.29,0,0,0,0,1.505l1.505,2.58a1.5,1.5,0,0,0,1.72,0L85.559,78.642Z" transform="translate(50.111 434.795)"/><path class="b" d="M24.113,102.953a1.29,1.29,0,0,0,0,1.72l1.72,2.58a1.29,1.29,0,0,0,1.505,0l79.552-41.5L177.413,12V10.5l-1.505-2.58h0a1.72,1.72,0,0,0-1.72,0L95.5,48.771Z" transform="translate(485.668 157.421)"/><path class="b" d="M166.328,24.653a1.075,1.075,0,0,0,0-1.505v-2.8h0a1.075,1.075,0,0,0-1.505,0l-84.5,27.521-78.692,43a1.075,1.075,0,0,0,0,1.505l1.075,2.8a1.72,1.72,0,0,0,1.72,0l86-28.6Z" transform="translate(25.243 410.736)"/><path class="b" d="M174.046,23.1s1.075,0,0-1.505V18.8h-1.29L85.249,33.42l-84.5,28.6a1.29,1.29,0,0,0,0,1.505v3.01a1.72,1.72,0,0,0,1.505,0L90.624,51.7Z" transform="translate(8.494 385.198)"/><path class="b" d="M177.256,23.04a1.505,1.505,0,0,0,1.075-1.505,13.117,13.117,0,0,1,0-3.01h0a1.29,1.29,0,0,0-1.29-1.075h-88.8L.09,33.361v4.3a1.29,1.29,0,0,0,1.29,0H91.038Z" transform="translate(-0.09 357.522)"/><path class="b" d="M87.745,35.936l88.583-1.72a1.29,1.29,0,0,0,1.29-1.29,15.263,15.263,0,0,1,0-3.01h0a1.29,1.29,0,0,0,0-1.29L89.9,15.51.237,17.23a1.075,1.075,0,0,0,0,1.075v3.01a1.29,1.29,0,0,0,1.075,1.29Z" transform="translate(-0.022 317.751)"/><path class="b" d="M86.409,45.39l87.723,12.04a1.29,1.29,0,0,0,1.29-1.29V53.13h0V51.84L90.709,25.179l-88.8-12.04a1.505,1.505,0,0,0-1.29,0v3.01a1.29,1.29,0,0,0,0,1.505Z" transform="translate(5.829 266.155)"/><path class="b" d="M82.881,55.824l84.713,25.8a1.075,1.075,0,0,0,1.505,0,16.774,16.774,0,0,1,0-3.01h2.15a1.075,1.075,0,0,0,0-1.505L90.191,36.688l-86-26.016a1.505,1.505,0,0,0-1.505,0l-1.29,2.8a1.075,1.075,0,0,0,0,1.505Z" transform="translate(20.323 214.44)"/><path class="b" d="M75.88,65.4l79.768,38.7a1.72,1.72,0,0,0,1.72,0,11.612,11.612,0,0,1,1.505-2.8h0a1.075,1.075,0,0,0,0-1.72L86.2,48.629,5.788,8.423a1.075,1.075,0,0,0-1.505,0L2.563,11a1.075,1.075,0,0,0,0,1.505Z" transform="translate(44.308 166.163)"/><path class="b" d="M107.783,59.9,27.155,21.41a1.075,1.075,0,0,0-1.72,0L23.93,23.99V25.5l73.1,52.247,79.553,38.7a1.5,1.5,0,0,0,1.72,0l1.505-2.8h0v-1.505Z" transform="translate(488.646 429.889)"/><path class="b" d="M68.165,73.313l72.672,50.742h1.505a11.181,11.181,0,0,1,2.15-2.365h0v-1.505L81.066,57.4,7.533,6.231a1.29,1.29,0,0,0-1.505,0L4.093,8.6a1.29,1.29,0,0,0,0,1.72Z" transform="translate(75.244 122.558)"/><path class="b" d="M100.552,73.662,27.235,22.49a1.075,1.075,0,0,0-1.72,0L23.58,24.64a1.075,1.075,0,0,0,0,1.72l64.5,63L160.754,140.1a1.29,1.29,0,0,0,1.72,0l1.935-2.365h0a1.29,1.29,0,0,0,0-1.72Z" transform="translate(472.656 452.03)"/><path class="b" d="M122.793,141.714H124.3l2.365-2.15h0v-1.505L74.2,66.247,9.7,4.11H8.195L5.83,6.045a1.72,1.72,0,0,0,0,1.72L58.936,80.222Z" transform="translate(112.854 84.043)"/><path class="b" d="M26.53,23.313a1.29,1.29,0,0,0-1.72,0l-2.15,1.935a1.075,1.075,0,0,0,0,1.72L75.982,99.211l64.5,61.492a1.29,1.29,0,0,0,1.72,0l2.15-1.935h0a1.29,1.29,0,0,0,0-1.72L91.677,85.45Z" transform="translate(453.795 470.987)"/><path class="b" d="M48.986,85.123l53.322,70.737a1.505,1.505,0,0,0,1.72,0l2.58-1.72h0a1.075,1.075,0,0,0,0-1.72L65.757,73.512,12,2.56H10.5L7.92,4.065a1.72,1.72,0,0,0,0,1.72Z" transform="translate(155.7 52.267)"/><path class="b" d="M25.275,24.27a1.075,1.075,0,0,0-1.72,0L21.19,25.775V27.28l41.281,79.767,53.107,70.737a1.29,1.29,0,0,0,1.72,0l2.58-1.72h0a1.72,1.72,0,0,0,0-1.72L78.812,95.437Z" transform="translate(432.474 488.521)"/><path class="b" d="M80.385,167.608a1.075,1.075,0,0,0,1.505,0l2.8-1.075h0a1.075,1.075,0,0,0,0-1.505l-27.306-84.5-43-78.908a1.075,1.075,0,0,0-1.505,0L10.293,2.7a1.075,1.075,0,0,0,0,1.505l28.381,86Z" transform="translate(202.779 26.758)"/><path class="b" d="M24.551,24.731a1.29,1.29,0,0,0-1.505,0l-2.8,1.29a1.29,1.29,0,0,0,0,1.505l28.6,86,41.711,78.263a1.29,1.29,0,0,0,1.505,0l3.01-1.29h0a1.075,1.075,0,0,0,0-1.5L66.907,104.713Z" transform="translate(408.258 501.821)"/></g></g></svg>