<svg xmlns="http://www.w3.org/2000/svg" width="1898.065" height="2045.077" viewBox="0 0 1898.065 2045.077"><defs><style>.a{fill:#f7f2e1;}</style></defs><path class="a" d="M32.945,25.563a4.273,4.273,0,0,0-4.274,0H20.124s-3.052,0,0,3.663L61.639,278.313,141,513.968h14.042L112.921,262.44Z" transform="translate(1121.523 1500.093)"/><path class="a" d="M135.212,494.486a3.664,3.664,0,0,0,3.663,0h8.547v-3.663L105.3,239.294,25.321,1.2a3.663,3.663,0,0,0-4.273,0H12.5V4.86L54.014,253.946Z" transform="translate(745.138 29.94)"/><path class="a" d="M33.283,28.2A3.663,3.663,0,0,0,29.62,25.15H17.41V277.9L62.588,528.818H74.8a3.662,3.662,0,0,0,3.052-3.663V269.963Z" transform="translate(1039.987 1509.663)"/><path class="a" d="M64.451,505.578a3.663,3.663,0,0,0,3.663,3.052h8.547V250.386L33.315.689H20.495A3.663,3.663,0,0,0,15,2.521V255.27Z" transform="translate(895.265 3.585)"/><path class="a" d="M65.531,25.19H56.374a3.792,3.792,0,0,0-3.663,3.052L15.47,277.94l5.495,254.581h8.547a3.664,3.664,0,0,0,3.663,0L71.026,280.382,65.532,28.242H62.479" transform="translate(923.489 1512.065)"/><path class="a" d="M25.6,510.394h8.547a3.663,3.663,0,0,0,3.663-3.052L75.048,255.2,70.164,3.673S70.164.01,67.111.01H57.954a3.663,3.663,0,0,0-3.663,3.053L17.05,252.76l5.494,254.581A3.663,3.663,0,0,0,25.6,511" transform="translate(1018.369 -0.01)"/><path class="a" d="M125.816,25.677h0a3.663,3.663,0,0,0-4.274,0l-75.7,244.2L13.483,520.187a3.664,3.664,0,0,0,0,3.663h7.937a3.663,3.663,0,0,0,4.274,0l76.313-244.2L136.8,29.339a3.663,3.663,0,0,0-1.221-3.663h-8.547" transform="translate(774.681 1499.979)"/><path class="a" d="M30.64,500.461a3.663,3.663,0,0,0,4.274,0l76.313-244.2L146.026,5.34a4.884,4.884,0,0,0-3.052-4.274h-8.547a3.663,3.663,0,0,0-4.273,0L53.229,242.217l-34.8,252.75a3.663,3.663,0,0,0,3.053,3.663Z" transform="translate(1101.238 22.133)"/><path class="a" d="M210.162,28.491l-8.547-3.053h0a3.052,3.052,0,0,0-4.273,0L85.008,251.326l-73.871,244.2a3.663,3.663,0,0,0,0,4.274l8.547,3.052a4.273,4.273,0,0,0,4.274,0L137.511,274.525l72.65-244.2a3.663,3.663,0,0,0,0-4.273" transform="translate(621.959 1474.577)"/><path class="a" d="M21.219,477.358l7.936,3.052a3.052,3.052,0,0,0,4.274,0L146.983,250.25,219.023,9.1a3.663,3.663,0,0,0,0-4.274l-7.937-3.053h0a4.885,4.885,0,0,0-4.884,0L93.869,227.661l-73.261,244.2a3.053,3.053,0,0,0,0,4.274" transform="translate(1179.647 66.603)"/><path class="a" d="M278.574,32.547a4.884,4.884,0,0,0,0-4.884L269.417,24h-4.274L118.622,229.13,8.12,459.291v4.274l7.326,4.273H19.72L167.462,259.655Z" transform="translate(482.117 1440.605)"/><path class="a" d="M22.131,436.37a3.053,3.053,0,0,0,0,4.884l7.326,4.274a3.053,3.053,0,0,0,4.884,0L182.084,237.955l109.281-226.5a3.053,3.053,0,0,0,0-4.884L284.038,2.3h-4.273L133.243,208.041Z" transform="translate(1250.165 137.506)"/><path class="a" d="M338.726,34.516a3.052,3.052,0,0,0,0-4.884,53.1,53.1,0,0,1-6.716-5.495h0a3.663,3.663,0,0,0-4.884,0L150.69,207.289,6,413.64v4.274l6.716,5.495a3.663,3.663,0,0,0,4.884,0L195.868,240.257Z" transform="translate(354.809 1392.848)"/><path class="a" d="M22.644,390.957a4.884,4.884,0,0,0,0,4.884l6.716,5.495a3.052,3.052,0,0,0,4.884,0L212.511,218.184l145.911-203.3a3.663,3.663,0,0,0,0-4.884l-6.716-5.495h0a3.663,3.663,0,0,0-4.273,0L170.386,187.658Z" transform="translate(1314.976 228.707)"/><path class="a" d="M393.93,34.207a3.663,3.663,0,0,0,0-4.884,57.391,57.391,0,0,1-6.105-6.1h0a3.663,3.663,0,0,0-4.884,0L180.863,172.792,5.037,355.943a3.663,3.663,0,0,0,0,4.884l5.495,6.715a4.885,4.885,0,0,0,4.884,0l204.52-152.016Z" transform="translate(240.997 1337.602)"/><path class="a" d="M23.917,341.392a3.663,3.663,0,0,0,0,4.884l5.494,6.105a3.052,3.052,0,0,0,4.884,0l204.52-151.406L412.81,17.823a3.052,3.052,0,0,0,0-4.884A31.749,31.749,0,0,1,406.7,6.224h0a4.884,4.884,0,0,0-4.884,0L199.133,157.629Z" transform="translate(1374.753 333.829)"/><path class="a" d="M437.907,34.084a3.052,3.052,0,0,0,0-4.884l-4.273-7.326h0a4.884,4.884,0,0,0-4.884,0L205.915,137.259,3.227,291.107a3.663,3.663,0,0,0,0,4.274L7.5,302.707a4.273,4.273,0,0,0,4.884,0L238.272,184.268Z" transform="translate(146.958 1273.621)"/><path class="a" d="M24.717,278.187a3.663,3.663,0,0,0,0,4.884L29.6,290.4a3.663,3.663,0,0,0,4.274,0L259.762,172.57,460.008,19.943V15.67l-4.273-7.326h0a4.884,4.884,0,0,0-4.884,0l-223.445,116Z" transform="translate(1422.793 461.136)"/><path class="a" d="M469.846,33.129a3.053,3.053,0,0,0,0-4.274V20.918h0a3.052,3.052,0,0,0-4.273,0L225.644,99.063,2.2,221.164a3.052,3.052,0,0,0,0,4.274l3.053,7.936a4.884,4.884,0,0,0,4.884,0l244.2-81.2Z" transform="translate(74.115 1203.147)"/><path class="a" d="M493.265,31.01s3.052,0,0-4.274V18.8H489.6L241.126,60.314,1.2,141.512a3.663,3.663,0,0,0,0,4.274v8.547a4.884,4.884,0,0,0,4.274,0l250.918-42.125Z" transform="translate(25.055 1128.342)"/><path class="a" d="M503.147,33.323A4.274,4.274,0,0,0,506.2,29.05a37.253,37.253,0,0,1,0-8.547h0a3.663,3.663,0,0,0-3.663-3.052H250.4L.09,62.628v12.21a3.663,3.663,0,0,0,3.663,0H258.334Z" transform="translate(-0.09 1047.273)"/><path class="a" d="M248.978,73.508l251.529-4.884a3.663,3.663,0,0,0,3.663-3.663,43.335,43.335,0,0,1,0-8.547h0a3.663,3.663,0,0,0,0-3.663L255.083,15.51.5,20.394a3.052,3.052,0,0,0,0,3.052v8.547a3.663,3.663,0,0,0,3.053,3.663Z" transform="translate(0.108 930.775)"/><path class="a" d="M244.659,104.982,493.745,139.17a3.663,3.663,0,0,0,3.663-3.663V126.96h0V123.3l-240.54-75.7L4.73,13.406a4.274,4.274,0,0,0-3.663,0v8.547a3.663,3.663,0,0,0,0,4.274Z" transform="translate(17.249 779.643)"/><path class="a" d="M233.34,139.25,473.88,212.51a3.052,3.052,0,0,0,4.273,0,47.632,47.632,0,0,1,0-8.547h6.105a3.053,3.053,0,0,0,0-4.274L254.1,84.914,9.895,11.043a4.273,4.273,0,0,0-4.274,0L1.958,18.98a3.053,3.053,0,0,0,0,4.274Z" transform="translate(59.703 628.157)"/><path class="a" d="M211.311,170.772l226.5,109.891a4.885,4.885,0,0,0,4.884,0,32.969,32.969,0,0,1,4.273-7.937h0a3.052,3.052,0,0,0,0-4.884L240.615,123.153,12.286,8.988a3.053,3.053,0,0,0-4.274,0L3.128,16.314a3.053,3.053,0,0,0,0,4.274Z" transform="translate(129.962 486.743)"/><path class="a" d="M262.027,131.482,33.088,22.2a3.053,3.053,0,0,0-4.884,0L23.93,29.527V33.8L231.5,182.154,457.39,292.045a4.273,4.273,0,0,0,4.884,0l4.273-7.937h0v-4.273Z" transform="translate(1431.518 1259.253)"/><path class="a" d="M186.628,197.155,392.98,341.234h4.274a31.747,31.747,0,0,1,6.1-6.716h0v-4.274l-180.1-178.268L14.466,6.677a3.663,3.663,0,0,0-4.274,0L4.7,13.392a3.663,3.663,0,0,0,0,4.884Z" transform="translate(220.579 359.017)"/><path class="a" d="M242.932,168.582,34.75,23.281a3.052,3.052,0,0,0-4.884,0l-5.495,6.105a3.053,3.053,0,0,0,0,4.884L207.523,213.149,413.874,357.228a3.663,3.663,0,0,0,4.884,0l5.495-6.716h0a3.663,3.663,0,0,0,0-4.884Z" transform="translate(1384.678 1324.107)"/><path class="a" d="M338.369,394.834h4.274l6.716-6.105h0v-4.273L200.395,180.546,17.243,4.11H12.969L6.254,9.6a4.884,4.884,0,0,0,0,4.884l150.8,205.741Z" transform="translate(330.746 246.198)"/><path class="a" d="M34.44,23.917a3.663,3.663,0,0,0-4.884,0l-6.105,5.494a3.052,3.052,0,0,0,0,4.884l151.406,205.13,183.152,174.6a3.663,3.663,0,0,0,4.884,0l6.1-5.495h0a3.663,3.663,0,0,0,0-4.884l-149.574-203.3Z" transform="translate(1329.431 1379.637)"/><path class="a" d="M124.95,236.994,276.356,437.851a4.274,4.274,0,0,0,4.884,0l7.326-4.884h0a3.052,3.052,0,0,0,0-4.884l-116-224.056L19.943,2.56H15.67L8.344,6.834a4.884,4.884,0,0,0,0,4.884Z" transform="translate(456.252 153.119)"/><path class="a" d="M32.79,25.061a3.052,3.052,0,0,0-4.884,0L21.19,29.334v4.273l117.217,226.5L289.2,460.962a3.663,3.663,0,0,0,4.884,0l7.326-4.884h0a4.884,4.884,0,0,0,0-4.884L184.806,227.139Z" transform="translate(1266.978 1430.998)"/><path class="a" d="M209.883,473.5a3.053,3.053,0,0,0,4.274,0l7.936-3.053h0a3.052,3.052,0,0,0,0-4.273L144.559,226.244,22.458,2.188a3.052,3.052,0,0,0-4.273,0L10.858,5.241a3.052,3.052,0,0,0,0,4.274l80.587,244.2Z" transform="translate(594.154 78.399)"/><path class="a" d="M32.907,25.176a3.663,3.663,0,0,0-4.273,0L20.7,28.839a3.663,3.663,0,0,0,0,4.274l81.2,244.2L220.332,499.54a3.664,3.664,0,0,0,4.274,0l8.547-3.664h0a3.052,3.052,0,0,0,0-4.273L153.176,252.285Z" transform="translate(1196.043 1469.954)"/></svg>